<svg width="142" height="42" xmlns="http://www.w3.org/2000/svg"><g transform="translate(1 1.21)" fill="none"><path d="M7.307 0h125.386C136.727 0 140 2.387 140 5.33v29.34c0 2.943-3.273 5.33-7.307 5.33H7.307C3.273 40 0 37.613 0 34.67V5.33C0 2.387 3.273 0 7.307 0z" stroke="#0047DD"/><g transform="translate(14 12.79)" fill="#0047DD"><path d="M11.294 7.224c0 2.347-.636 4.144-1.9 5.39-1.27 1.25-3.096 1.87-5.482 1.87H0V.223h4.337c2.2 0 3.912.62 5.13 1.852 1.218 1.222 1.827 2.94 1.827 5.149zm-1.753.055c0-1.86-.461-3.264-1.384-4.204-.923-.935-2.298-1.407-4.115-1.407h-2.4v11.39h2.012c1.956 0 3.423-.486 4.41-1.463.983-.973 1.477-2.413 1.477-4.316zm17.165.055c0 2.287-.572 4.084-1.716 5.39-1.145 1.31-2.732 1.963-4.762 1.963-2.094 0-3.704-.64-4.835-1.926-1.135-1.283-1.698-3.098-1.698-5.445 0-2.32.563-4.117 1.698-5.39C16.537.644 18.153 0 20.247 0c2.03 0 3.608.657 4.743 1.963 1.144 1.297 1.716 3.089 1.716 5.371zm-11.257 0c0 1.94.406 3.408 1.218 4.408.812.99 1.997 1.482 3.561 1.482 1.56 0 2.74-.491 3.544-1.482.798-1 1.2-2.468 1.2-4.408 0-1.912-.402-3.361-1.2-4.352-.803-1-1.975-1.5-3.525-1.5-1.578 0-2.768.5-3.58 1.5-.812 1-1.218 2.454-1.218 4.352zm26.75 7.15h-1.623l-2.86-9.538c-.139-.43-.291-.968-.462-1.612-.161-.638-.25-1.023-.258-1.148-.139.852-.36 1.792-.665 2.815l-2.768 9.483H31.94L28.174.223h1.735l2.233 8.816a30.12 30.12 0 0 1 .683 3.352c.17-1.185.429-2.352.775-3.5L36.128.223h1.754l2.657 8.76c.305 1 .563 2.14.775 3.408.12-.926.355-2.046.701-3.37L44.23.222h1.753L42.2 14.483zm17.039 0h-1.882L49.623 2.52h-.074c.11 1.407.166 2.699.166 3.87v8.094h-1.531V.223h1.863l7.696 11.927h.092c-.013-.185-.046-.75-.092-1.704-.05-.949-.07-1.63-.055-2.037V.223h1.55v14.26z"/><path d="M63.111 14.485L63.111 0.223 64.753 0.223 64.753 12.983 70.991 12.983 70.991 14.485z"/><path d="M85.658 7.334c0 2.287-.572 4.084-1.716 5.39-1.145 1.31-2.732 1.963-4.762 1.963-2.094 0-3.704-.64-4.835-1.926-1.135-1.283-1.698-3.098-1.698-5.445 0-2.32.563-4.117 1.698-5.39C75.49.644 77.105 0 79.2 0c2.03 0 3.608.657 4.743 1.963 1.144 1.297 1.716 3.089 1.716 5.371zm-11.257 0c0 1.94.406 3.408 1.218 4.408.812.99 1.997 1.482 3.561 1.482 1.56 0 2.74-.491 3.544-1.482.798-1 1.2-2.468 1.2-4.408 0-1.912-.402-3.361-1.2-4.352-.803-1-1.975-1.5-3.525-1.5-1.578 0-2.768.5-3.58 1.5-.812 1-1.218 2.454-1.218 4.352zm23.3 7.148l-1.772-4.537h-5.666l-1.734 4.537h-1.661L92.46.166h1.384l5.555 14.316H97.7zm-2.27-6.019l-1.643-4.426a19.385 19.385 0 0 1-.664-2.056c-.148.63-.35 1.315-.61 2.056l-1.66 4.426h4.577zm17.198-1.24c0 2.348-.637 4.145-1.9 5.39-1.27 1.25-3.096 1.87-5.482 1.87h-3.912V.224h4.337c2.2 0 3.912.62 5.13 1.852 1.218 1.222 1.827 2.94 1.827 5.149zm-1.753.056c0-1.86-.461-3.264-1.384-4.204-.923-.935-2.298-1.407-4.116-1.407h-2.399v11.39h2.012c1.956 0 3.423-.486 4.41-1.463.983-.973 1.477-2.413 1.477-4.316z"/></g></g></svg>