<svg width="142" height="42" xmlns="http://www.w3.org/2000/svg"><g transform="translate(1 1.21)" fill="none"><path d="M7.307 0h125.386C136.727 0 140 2.387 140 5.33v29.34c0 2.943-3.273 5.33-7.307 5.33H7.307C3.273 40 0 37.613 0 34.67V5.33C0 2.387 3.273 0 7.307 0z" stroke="#0047DD"/><g transform="translate(8.942 12.778)" fill="#0047DD"><path d="M6.957 7h4.817v6.928a14.09 14.09 0 0 1-2.288.555c-.775.12-1.675.185-2.695.185-2.14 0-3.81-.639-5-1.926C.594 11.46 0 9.66 0 7.334c0-1.481.295-2.778.886-3.89A6.065 6.065 0 0 1 3.433.89C4.549.296 5.855 0 7.345 0c1.5 0 2.902.287 4.208.852l-.646 1.463c-1.269-.556-2.492-.833-3.673-.833-1.725 0-3.072.518-4.041 1.555-.96 1.038-1.44 2.473-1.44 4.297 0 1.926.462 3.39 1.384 4.39.932.99 2.307 1.481 4.116 1.481.982 0 1.942-.11 2.879-.333v-4.39H6.957V7.001z"/><path d="M23.0328947 14.4648421L15.1518947 14.4648421 15.1518947 0.2028421 23.0328947 0.2028421 23.0328947 1.6858421 16.7938947 1.6858421 16.7938947 6.2778421 22.6638947 6.2778421 22.6638947 7.7408421 16.7938947 7.7408421 16.7938947 12.9828421 23.0328947 12.9828421z"/><path d="M30.5188947 14.4648421L28.8768947 14.4648421 28.8768947 1.6858421 24.3928947 1.6858421 24.3928947 0.2028421 35.0028947 0.2028421 35.0028947 1.6858421 30.5188947 1.6858421z"/><path d="M50.252 10.668c0 1.26-.457 2.24-1.366 2.945-.9.703-2.122 1.055-3.672 1.055-1.675 0-2.962-.222-3.857-.666v-1.593c.576.25 1.204.444 1.882.592.687.14 1.366.204 2.03.204 1.093 0 1.92-.208 2.473-.63.554-.416.83-1 .83-1.74 0-.491-.101-.894-.295-1.204-.198-.32-.526-.616-.978-.89-.457-.268-1.158-.573-2.104-.907-1.32-.467-2.26-1.028-2.823-1.685-.568-.653-.85-1.5-.85-2.537 0-1.098.411-1.973 1.237-2.63C43.58.329 44.665 0 46.007 0c1.403 0 2.695.269 3.876.796l-.517 1.426c-1.158-.49-2.288-.74-3.396-.74-.876 0-1.56.194-2.048.574-.48.37-.72.898-.72 1.574 0 .495.083.903.258 1.222.185.31.49.593.923.852.43.26 1.08.551 1.956.87 1.486.533 2.51 1.107 3.064 1.723.563.607.849 1.399.849 2.37z"/><path d="M57.4818947 14.4648421L55.8398947 14.4648421 55.8398947 1.6858421 51.3548947 1.6858421 51.3548947 0.2028421 61.9658947 0.2028421 61.9658947 1.6858421 57.4818947 1.6858421z"/><path d="M72.976 14.464l-1.771-4.537h-5.666l-1.735 4.537h-1.66L67.734.148h1.384l5.555 14.316h-1.698zm-2.27-6.019L69.064 4.02a19.385 19.385 0 0 1-.664-2.056c-.148.63-.351 1.315-.61 2.056l-1.66 4.426h4.576zm7.547.093v5.926h-1.642V.204h3.875c1.735 0 3.013.342 3.839 1.018.835.667 1.255 1.676 1.255 3.019 0 1.88-.95 3.148-2.843 3.815l3.84 6.408h-1.939l-3.432-5.926h-2.953zm0-1.427h2.251c1.168 0 2.021-.226 2.566-.685.54-.467.812-1.167.812-2.093 0-.949-.277-1.63-.83-2.037-.554-.417-1.44-.63-2.658-.63h-2.141v5.445z"/><path d="M93.2028947 14.4648421L91.5608947 14.4648421 91.5608947 1.6858421 87.0768947 1.6858421 87.0768947 0.2028421 97.6878947 0.2028421 97.6878947 1.6858421 93.2028947 1.6858421z"/><path d="M107.681895 14.4648421L99.8008947 14.4648421 99.8008947 0.2028421 107.681895 0.2028421 107.681895 1.6858421 101.443895 1.6858421 101.443895 6.2778421 107.312895 6.2778421 107.312895 7.7408421 101.443895 7.7408421 101.443895 12.9828421 107.681895 12.9828421z"/><path d="M122.109 7.204c0 2.348-.637 4.144-1.901 5.39-1.269 1.25-3.096 1.87-5.481 1.87h-3.913V.204h4.337c2.201 0 3.913.62 5.13 1.851 1.219 1.223 1.828 2.94 1.828 5.15zm-1.753.056c0-1.862-.462-3.265-1.385-4.205-.922-.935-2.297-1.407-4.115-1.407h-2.4v11.39h2.013c1.956 0 3.423-.486 4.41-1.463.983-.972 1.477-2.412 1.477-4.315z"/></g></g></svg>