<svg width="142" height="42" xmlns="http://www.w3.org/2000/svg"><g fill="none"><path d="M8.307 1.21h125.386c4.034 0 7.307 2.387 7.307 5.33v29.34c0 2.943-3.273 5.33-7.307 5.33H8.307C4.273 41.21 1 38.823 1 35.88V6.54c0-2.943 3.273-5.33 7.307-5.33z" stroke="#0047DD"/><g fill="#0047DD"><path d="M16.899 20.988h4.817v6.928a14.09 14.09 0 0 1-2.288.555 17.77 17.77 0 0 1-2.695.185c-2.14 0-3.81-.639-5-1.926-1.197-1.282-1.791-3.082-1.791-5.408 0-1.481.295-2.778.886-3.89a6.065 6.065 0 0 1 2.547-2.554c1.116-.594 2.422-.89 3.912-.89 1.5 0 2.902.287 4.208.852l-.646 1.463c-1.269-.556-2.492-.833-3.673-.833-1.725 0-3.072.518-4.041 1.555-.96 1.038-1.44 2.473-1.44 4.297 0 1.926.462 3.39 1.384 4.39.932.99 2.307 1.481 4.116 1.481.982 0 1.942-.11 2.879-.333v-4.39h-3.175v-1.481zm16.076 7.465h-7.881V14.19h7.88v1.483h-6.238v4.592h5.87v1.463h-5.87v5.242h6.239zm7.486 0h-1.642v-12.78h-4.484v-1.482h10.61v1.483H40.46zm19.733-3.797c0 1.26-.457 2.24-1.366 2.945-.9.703-2.122 1.055-3.672 1.055-1.675 0-2.962-.222-3.857-.666v-1.593c.576.25 1.204.444 1.882.592.687.14 1.366.204 2.03.204 1.093 0 1.92-.208 2.473-.63.554-.416.83-1 .83-1.74 0-.491-.101-.894-.295-1.204-.198-.32-.526-.616-.978-.89-.457-.268-1.158-.573-2.104-.907-1.32-.467-2.26-1.028-2.823-1.685-.568-.653-.85-1.5-.85-2.537 0-1.098.411-1.973 1.237-2.63.821-.653 1.906-.982 3.248-.982 1.403 0 2.695.269 3.876.796l-.517 1.426c-1.158-.49-2.288-.74-3.396-.74-.876 0-1.56.194-2.048.574-.48.37-.72.898-.72 1.574 0 .495.083.903.258 1.222.185.31.49.593.923.852.43.26 1.08.551 1.956.87 1.486.533 2.51 1.107 3.064 1.723.563.607.849 1.399.849 2.37zm7.23 3.797h-1.642v-12.78h-4.485v-1.482h10.61v1.483h-4.483zm15.494-.001l-1.771-4.537h-5.666l-1.735 4.537h-1.66l5.59-14.316h1.384l5.555 14.316h-1.698zm-2.27-6.019l-1.642-4.425a19.385 19.385 0 0 1-.664-2.056 20.45 20.45 0 0 1-.61 2.056l-1.66 4.426h4.576zm7.547.093v5.926h-1.642v-14.26h3.875c1.735 0 3.013.342 3.839 1.018.835.667 1.255 1.676 1.255 3.019 0 1.88-.95 3.148-2.843 3.815l3.84 6.408H94.58l-3.432-5.926h-2.953zm0-1.427h2.251c1.168 0 2.021-.226 2.566-.685.54-.467.812-1.167.812-2.093 0-.949-.277-1.63-.83-2.037-.554-.417-1.44-.63-2.658-.63h-2.141v5.445zm14.95 7.354h-1.642v-12.78h-4.484v-1.482h10.61v1.483h-4.484zm14.479 0h-7.881V14.19h7.88v1.483h-6.237v4.592h5.869v1.463h-5.87v5.242h6.239zm14.427-7.261c0 2.348-.637 4.144-1.901 5.39-1.269 1.25-3.096 1.87-5.481 1.87h-3.913v-14.26h4.337c2.201 0 3.913.62 5.13 1.851 1.219 1.223 1.828 2.94 1.828 5.15zm-1.753.056c0-1.862-.462-3.265-1.385-4.205-.922-.935-2.297-1.407-4.115-1.407h-2.4v11.39h2.013c1.956 0 3.423-.486 4.41-1.463.983-.972 1.477-2.412 1.477-4.315z"/></g></g></svg>