<svg width="300" height="44" xmlns="http://www.w3.org/2000/svg"><g fill="none" fill-rule="evenodd"><path d="M7.692 0h284.616c2.675 0 3.645.278 4.623.801a5.452 5.452 0 0 1 2.268 2.268c.523.978.801 1.948.801 4.623v28.616c0 2.675-.278 3.645-.801 4.623a5.452 5.452 0 0 1-2.268 2.268c-.978.523-1.948.801-4.623.801H7.692c-2.675 0-3.645-.278-4.623-.801A5.452 5.452 0 0 1 .801 40.93C.278 39.953 0 38.983 0 36.308V7.692c0-2.675.278-3.645.801-4.623A5.452 5.452 0 0 1 3.07.801C4.047.278 5.017 0 7.692 0z" fill="#000"/><text transform="translate(71.555 9)" fill="#FFF" font-family="CircularStd-Medium, Circular Std" font-size="21" font-weight="400" letter-spacing=".399"><tspan x="0" y="21">Getting Started</tspan></text></g></svg>