<svg height="50" viewBox="0 0 160 50" width="160" xmlns="http://www.w3.org/2000/svg" xmlns:xlink="http://www.w3.org/1999/xlink"><linearGradient id="a" x1="50%" x2="50%" y1="0%" y2="94.501%"><stop offset="0" stop-color="#f87128"/><stop offset="1" stop-color="#ea090f"/></linearGradient><g fill="none" fill-rule="evenodd"><path d="m0 0h160v50h-160z"/><g fill="url(#a)" fill-rule="nonzero" transform="translate(12 9)"><path d="m3.548 11.1075v1.6685c-.00536966.8455488.32825238 1.6580005.92629866 2.2557649s1.41065515.9310034 2.25620134.9253088h2.9215v-1.6170737h-2.922c-.887 0-1.565-.73-1.565-1.5645v-1.7205c.78431942-.3209562 1.29869578-1.08206758 1.304-1.9295 0-1.147-.939-2.138-2.139-2.138-1.148 0-2.1395.939-2.1395 2.138 0 .939.522 1.721 1.357 1.982"/><path d="m6.73 25.865h2.922v-1.6165737h-2.922c-.84554619-.0056946-1.65815506.3275444-2.25620134.9253088s-.93166832 1.4102161-.92629866 2.2557649v1.3035c-.783.313-1.357 1.095-1.357 1.9815 0 1.147.9395 2.138 2.1395 2.138 1.1475 0 2.139-.9385 2.139-2.138 0-.8865-.522-1.6165-1.3045-1.9295v-1.3035c-.052-.8865.6785-1.6165 1.565-1.6165"/><path d="m2.191 22.2665178c.887 0 1.67-.5210178 1.983-1.3035178h5.478v-1.6165h-5.53c-.3135-.782-1.096-1.3035-1.983-1.3035-1.1475 0-2.139.9385-2.139 2.138.05307589 1.1701582 1.01964806 2.0901885 2.191 2.0855178"/><path d="m43.512 12.828v-1.668c.7825-.313 1.3565-1.095 1.3565-1.9815 0-1.1475-.9395-2.138-2.139-2.138-1.148 0-2.1395.9385-2.1395 2.138 0 .8865.522 1.6165 1.305 1.9295v1.7205c0 .8865-.731 1.5645-1.5655 1.5645h-2.922v1.6165h2.922c1.7735 0 3.1825-1.46 3.1825-3.181"/><path d="m41.9465 27.4815v1.3035c-.7825.313-1.304 1.095-1.304 1.9295 0 1.147.939 2.138 2.139 2.138 1.1475 0 2.139-.9385 2.139-2.138 0-.8865-.574-1.6685-1.3565-1.9815v-1.3035c.0053697-.8455488-.3282524-1.6580005-.9262987-2.2557649-.5980462-.5977644-1.4106551-.9310034-2.2562013-.9253088h-2.9215v1.6165737h2.9215c.835 0 1.565.73 1.565 1.6165"/><path d="m44.8685 18.0429841c-.887 0-1.67.5215159-1.9825 1.3035159h-5.426v1.6165h5.478c.313.7825 1.0955 1.3035 1.9825 1.3035 1.148 0 2.139-.9385 2.139-2.138-.0533281-1.1700433-1.0197505-2.0899309-2.191-2.0855159"/><path d="m13.565 29.9845h19.93c1.2 0 2.139-.9385 2.139-2.138v-13.819c0-1.1995-.9395-2.138-2.139-2.138h-1.9305v-3.859c0-4.4325-3.6-8.0305-8.035-8.0305-4.4345 0-8.0345 3.598-8.0345 8.0305v3.859h-1.93c-1.2 0-2.139.9385-2.139 2.138v13.819c0 1.1995.939 2.138 2.139 2.138zm12.104-4.902c.104.313-.1565.678-.522.678h-3.182c-.365 0-.574-.313-.5215-.678l.7825-3.0765c-.5262168-.4163151-.8336773-1.0500152-.835-1.721 0-1.1995.9915-2.19 2.1915-2.19s2.191.9905 2.191 2.19c0 .73-.313 1.356-.835 1.721l.731 3.0765zm-7.0955-17.052c0-2.7635 2.2435-4.954 4.9565-4.954 2.765 0 4.956 2.2425 4.956 4.954v3.859h-9.9125z"/><path d="m58.85 18.84c-.673-.6725-1.009-1.4835-1.009-2.4335s.336-1.761 1.0085-2.433c.6725-.6765 1.484-1.015 2.4345-1.015.583 0 1.1275.139 1.634.4165v-1.5995c-.5252933-.1830878-1.0777144-.2762285-1.634-.2755042-1.354 0-2.5105.4795042-3.47 1.4385042-.959.959-1.439 2.115-1.439 3.468s.48 2.5095 1.439 3.468c.9595.959 2.116 1.4385 3.47 1.4385.56 0 1.105-.094 1.634-.282v-1.593c-.5014592.2720621-1.0635006.4130884-1.634.41-.95 0-1.762-.336-2.4345-1.0085zm6.664-3.1325v-2.6485h2.091c.3635 0 .675.13.935.39.255.26.3835.5735.3835.941 0 .363-.128.672-.3835.9275-.26.26-.5715.39-.935.39zm3.18 1.237c.4957972-.2097512.9191269-.5604108 1.2175-1.0085.3145887-.4538578.4813524-.993788.4775-1.546 0-.7705-.2735-1.427-.82-1.9695-.5435-.5465-1.198-.82-1.964-.82h-3.551v9.6185h1.4595v-4.053h1.6475l2.105 4.053h1.6475l-2.219-4.275zm8.0235-5.3435-2.0375 3.455-2.0375-3.455h-1.695l3 5.095v4.5235h1.4655v-4.5235l2.999-5.095h-1.695zm3.9745 4.1065h2.0915c.363 0 .675-.13.935-.39.255-.255.383-.5645.383-.9275 0-.3675-.128-.681-.3835-.941-.2444611-.2535049-.5828575-.3946542-.935-.39h-2.091zm0 5.5115h-1.4595v-9.618h3.551c.7665 0 1.421.273 1.9635.82.547.542.8205 1.1985.8205 1.9695 0 .766-.2735 1.42-.82 1.9625-.543.542-1.1975.813-1.964.813h-2.0915zm5.7155-9.618v1.4585h2.0375v8.16h1.466v-8.1605h2.0375v-1.458zm7.76 2.3725c-.672.672-1.0085 1.483-1.0085 2.433s.3365 1.761 1.009 2.433c.6725.6725 1.484 1.0085 2.434 1.0085.9505 0 1.762-.336 2.4345-1.0085.6725-.672 1.009-1.483 1.009-2.433s-.3365-1.761-1.009-2.433c-.6725-.6725-1.484-1.0085-2.4345-1.0085-.95 0-1.7615.336-2.434 1.0085zm2.4355-2.4735c1.3535 0 2.51.4795 3.47 1.4385.959.959 1.4385 2.115 1.4385 3.468 0 1.3535-.48 2.5095-1.439 3.4685-.9595.959-2.116 1.4385-3.47 1.4385-1.3535 0-2.51-.48-3.47-1.4385-.959-.959-1.439-2.115-1.439-3.4685 0-1.353.48-2.509 1.439-3.468.9595-.959 2.116-1.4385 3.4695-1.4385zm12.6815 0c.56 0 1.105.092 1.634.2755v1.6c-.500123-.2762471-1.062661-.4198079-1.634-.417-.95 0-1.762.3385-2.4345 1.015-.6725.672-1.0085 1.483-1.0085 2.433s.336 1.761 1.0085 2.4335c.6725.672 1.484 1.008 2.4345 1.008.570499.0030884 1.132541-.1379379 1.634-.41v1.593c-.524395.1872752-1.077168.2826743-1.634.2820035-1.354 0-2.5105-.4795035-3.47-1.4385035-.9595-.9585-1.4395-2.1145-1.4395-3.468 0-1.353.48-2.509 1.439-3.468.9595-.959 2.116-1.4385 3.47-1.4385zm7.318 0c1.354 0 2.5105.4795 3.47 1.4385s1.439 2.115 1.439 3.468c0 1.3535-.48 2.5095-1.439 3.4685-.9595.959-2.116 1.4385-3.47 1.4385-1.3535 0-2.51-.48-3.47-1.4385-.959-.959-1.439-2.115-1.439-3.4685 0-1.353.48-2.509 1.439-3.468.9595-.959 2.116-1.4385 3.4695-1.4385zm0 1.465c-.95 0-1.7615.336-2.434 1.0085-.6725.672-1.009 1.483-1.009 2.433s.3365 1.761 1.009 2.433c.6725.6725 1.484 1.0085 2.434 1.0085.9505 0 1.762-.336 2.4345-1.0085.6725-.672 1.009-1.483 1.009-2.433s-.3365-1.761-1.009-2.433c-.6725-.6725-1.484-1.0085-2.4345-1.0085zm9.395-1.3645c.767 0 1.4215.2735 1.964.82.547.5425.82 1.199.82 1.97 0 .564-.159 1.0795-.477 1.5455-.27053.4060867-.644344.7327858-1.083.9465l-.1345.062 2.219 4.275h-1.6475l-2.105-4.0535h-1.6475v4.053h-1.459v-9.6185zm9.3715 0v1.4595h-3.45v2.6075h2.663v1.4585h-2.663v2.635h3.45v1.4585h-4.909v-9.6185h4.909zm-9.371 1.4585h-2.0915v2.6485h2.0915c.363 0 .675-.13.935-.39.255-.255.383-.5645.383-.9275 0-.3675-.128-.681-.3835-.941-.244427-.2535553-.582846-.3947141-.935-.39z"/></g></g></svg>