<svg height="160" width="320" xmlns="http://www.w3.org/2000/svg" xmlns:xlink="http://www.w3.org/1999/xlink"><linearGradient id="a" x1="50%" x2="50%" y1="0%" y2="94.501%"><stop offset="0" stop-color="#f87128"/><stop offset="1" stop-color="#ea090f"/></linearGradient><g fill="none" fill-rule="evenodd"><path d="m0 0h320v160h-320z"/><g fill="url(#a)" fill-rule="nonzero"><g transform="translate(10.5 48.75)"><path d="m7.096 22.215v3.337a6.322 6.322 0 0 0 6.365 6.362h5.843v-3.234h-5.844c-1.774 0-3.13-1.46-3.13-3.129v-3.441a4.198 4.198 0 0 0 2.608-3.859c0-2.294-1.878-4.276-4.278-4.276-2.296 0-4.279 1.878-4.279 4.276 0 1.878 1.044 3.442 2.714 3.964"/><path d="m13.46 51.73h5.844v-3.233h-5.844a6.322 6.322 0 0 0 -6.365 6.362v2.607c-1.566.626-2.714 2.19-2.714 3.963 0 2.294 1.879 4.276 4.279 4.276 2.295 0 4.278-1.877 4.278-4.276 0-1.773-1.044-3.233-2.609-3.859v-2.607c-.104-1.773 1.357-3.233 3.13-3.233"/><path d="m4.382 44.533c1.774 0 3.34-1.042 3.966-2.607h10.956v-3.233h-11.06c-.627-1.564-2.192-2.607-3.966-2.607-2.295 0-4.278 1.877-4.278 4.276a4.369 4.369 0 0 0 4.382 4.171"/><path d="m87.024 25.656v-3.336c1.565-.626 2.713-2.19 2.713-3.963 0-2.295-1.879-4.276-4.278-4.276-2.296 0-4.279 1.877-4.279 4.276 0 1.773 1.044 3.233 2.61 3.859v3.441c0 1.773-1.462 3.129-3.131 3.129h-5.844v3.233h5.844c3.547 0 6.365-2.92 6.365-6.362"/><path d="m83.893 54.963v2.607c-1.565.626-2.608 2.19-2.608 3.859 0 2.294 1.878 4.276 4.278 4.276 2.295 0 4.278-1.877 4.278-4.276 0-1.773-1.148-3.337-2.713-3.963v-2.607a6.322 6.322 0 0 0 -6.365-6.362h-5.843v3.233h5.843c1.67 0 3.13 1.46 3.13 3.233"/><path d="m89.737 36.086c-1.774 0-3.34 1.043-3.965 2.607h-10.852v3.233h10.956c.626 1.565 2.191 2.607 3.965 2.607 2.296 0 4.278-1.877 4.278-4.276a4.37 4.37 0 0 0 -4.382-4.171"/><path d="m27.13 59.969h39.86c2.4 0 4.278-1.877 4.278-4.276v-27.638c0-2.399-1.879-4.276-4.278-4.276h-3.861v-7.718c0-8.865-7.2-16.061-16.07-16.061-8.869 0-16.069 7.196-16.069 16.061v7.718h-3.86c-2.4 0-4.278 1.877-4.278 4.276v27.638c0 2.399 1.878 4.276 4.278 4.276zm24.208-9.804c.208.626-.313 1.356-1.044 1.356h-6.364c-.73 0-1.148-.626-1.043-1.356l1.565-6.153a4.4 4.4 0 0 1 -1.67-3.442c0-2.399 1.983-4.38 4.383-4.38s4.382 1.981 4.382 4.38c0 1.46-.626 2.712-1.67 3.442l1.462 6.153zm-14.191-34.104c0-5.527 4.487-9.908 9.913-9.908 5.53 0 9.912 4.485 9.912 9.908v7.718h-19.825z"/></g><path d="m4.95 14.68c-1.346-1.345-2.018-2.967-2.018-4.867s.672-3.522 2.017-4.866c1.345-1.353 2.968-2.03 4.869-2.03 1.166 0 2.255.278 3.268.833v-3.199a9.89 9.89 0 0 0 -3.268-.551c-2.708 0-5.021.959-6.94 2.877-1.918 1.918-2.878 4.23-2.878 6.936s.96 5.019 2.878 6.936c1.919 1.918 4.232 2.877 6.94 2.877 1.12 0 2.21-.188 3.268-.564v-3.186a6.776 6.776 0 0 1 -3.268.82c-1.9 0-3.524-.672-4.869-2.017zm13.328-6.265v-5.297h4.182c.727 0 1.35.26 1.87.78.51.52.767 1.147.767 1.882 0 .726-.256 1.344-.767 1.855-.52.52-1.143.78-1.87.78zm6.36 2.474a5.5 5.5 0 0 0 2.435-2.017 5.362 5.362 0 0 0 .955-3.092c0-1.541-.547-2.854-1.64-3.939-1.087-1.093-2.396-1.64-3.928-1.64h-7.102v19.237h2.919v-8.106h3.295l4.21 8.106h3.295l-4.438-8.55zm16.047-10.687-4.075 6.91-4.075-6.91h-3.39l6 10.19v9.047h2.931v-9.047l5.998-10.19h-3.39zm7.949 8.213h4.183c.726 0 1.35-.26 1.87-.78.51-.51.766-1.129.766-1.855 0-.735-.256-1.362-.767-1.882a2.551 2.551 0 0 0 -1.87-.78h-4.182zm0 11.023h-2.919v-19.236h7.102c1.533 0 2.842.546 3.927 1.64 1.094 1.084 1.641 2.397 1.641 3.939 0 1.532-.547 2.84-1.64 3.925-1.086 1.084-2.395 1.626-3.928 1.626h-4.183zm11.431-19.236v2.917h4.075v16.32h2.932v-16.321h4.075v-2.916zm15.52 4.745c-1.344 1.344-2.017 2.966-2.017 4.866s.673 3.522 2.018 4.866c1.345 1.345 2.968 2.017 4.868 2.017 1.901 0 3.524-.672 4.869-2.017 1.345-1.344 2.018-2.966 2.018-4.866s-.673-3.522-2.018-4.866c-1.345-1.345-2.968-2.017-4.869-2.017-1.9 0-3.523.672-4.868 2.017zm4.871-4.947c2.707 0 5.02.959 6.94 2.877 1.918 1.918 2.877 4.23 2.877 6.936 0 2.707-.96 5.019-2.878 6.937-1.919 1.918-4.232 2.877-6.94 2.877-2.707 0-5.02-.96-6.94-2.877-1.918-1.918-2.878-4.23-2.878-6.937 0-2.706.96-5.018 2.878-6.936 1.919-1.918 4.232-2.877 6.939-2.877zm25.363 0c1.12 0 2.21.184 3.268.551v3.2a6.691 6.691 0 0 0 -3.268-.834c-1.9 0-3.524.677-4.869 2.03-1.345 1.344-2.017 2.966-2.017 4.866s.672 3.522 2.017 4.867c1.345 1.344 2.968 2.016 4.869 2.016a6.776 6.776 0 0 0 3.268-.82v3.186a9.682 9.682 0 0 1 -3.268.564c-2.708 0-5.021-.959-6.94-2.877-1.919-1.917-2.879-4.229-2.879-6.936 0-2.706.96-5.018 2.878-6.936 1.919-1.918 4.232-2.877 6.94-2.877zm14.636 0c2.708 0 5.021.959 6.94 2.877s2.878 4.23 2.878 6.936c0 2.707-.96 5.019-2.878 6.937-1.919 1.918-4.232 2.877-6.94 2.877-2.707 0-5.02-.96-6.94-2.877-1.918-1.918-2.878-4.23-2.878-6.937 0-2.706.96-5.018 2.878-6.936 1.919-1.918 4.232-2.877 6.939-2.877zm0 2.93c-1.9 0-3.523.672-4.868 2.017-1.345 1.344-2.018 2.966-2.018 4.866s.673 3.522 2.018 4.866c1.345 1.345 2.968 2.017 4.868 2.017 1.901 0 3.524-.672 4.869-2.017 1.345-1.344 2.018-2.966 2.018-4.866s-.673-3.522-2.018-4.866c-1.345-1.345-2.968-2.017-4.869-2.017zm18.79-2.729c1.534 0 2.843.547 3.928 1.64 1.094 1.085 1.64 2.398 1.64 3.94 0 1.128-.318 2.159-.954 3.091a5.494 5.494 0 0 1 -2.166 1.893l-.269.124 4.438 8.55h-3.295l-4.21-8.107h-3.295v8.106h-2.918v-19.237zm18.743 0v2.919h-6.9v5.215h5.326v2.917h-5.326v5.27h6.9v2.917h-9.818v-19.237h9.818zm-18.742 2.917h-4.183v5.297h4.183c.726 0 1.35-.26 1.87-.78.51-.51.766-1.129.766-1.855 0-.735-.256-1.362-.767-1.882a2.55 2.55 0 0 0 -1.87-.78z" transform="translate(123.25 71.75)"/></g></g></svg>