<svg width="400" height="200" xmlns="http://www.w3.org/2000/svg"><defs><linearGradient x1="50%" y1="94.501%" x2="50%" y2="0%" id="a"><stop stop-color="#861EFE" offset="0%"/><stop stop-color="#22ACFF" offset="100%"/></linearGradient><linearGradient x1="50%" y1="94.501%" x2="50%" y2="0%" id="b"><stop stop-color="#861EFE" offset="0%"/><stop stop-color="#22ACFF" offset="100%"/></linearGradient><linearGradient x1="50%" y1="94.501%" x2="50%" y2="0%" id="c"><stop stop-color="#861EFE" offset="0%"/><stop stop-color="#22ACFF" offset="100%"/></linearGradient><linearGradient x1="50%" y1="94.501%" x2="50%" y2="0%" id="d"><stop stop-color="#861EFE" offset="0%"/><stop stop-color="#22ACFF" offset="100%"/></linearGradient><linearGradient x1="50%" y1="94.501%" x2="50%" y2="0%" id="e"><stop stop-color="#861EFE" offset="0%"/><stop stop-color="#22ACFF" offset="100%"/></linearGradient><linearGradient x1="50%" y1="94.501%" x2="50%" y2="0%" id="f"><stop stop-color="#861EFE" offset="0%"/><stop stop-color="#22ACFF" offset="100%"/></linearGradient><linearGradient x1="50%" y1="94.501%" x2="50%" y2="0%" id="g"><stop stop-color="#861EFE" offset="0%"/><stop stop-color="#22ACFF" offset="100%"/></linearGradient><linearGradient x1="50%" y1="94.501%" x2="50%" y2="0%" id="h"><stop stop-color="#861EFE" offset="0%"/><stop stop-color="#22ACFF" offset="100%"/></linearGradient></defs><g fill="none" fill-rule="evenodd"><path d="M0 0L400 0 400 200 0 200z"/><g transform="translate(13.125 60.938)" fill-rule="nonzero"><g><path d="M8.87 27.769v4.171a7.902 7.902 0 0 0 7.956 7.953h7.304V35.85h-7.305c-2.217 0-3.912-1.825-3.912-3.911v-4.302a5.248 5.248 0 0 0 3.26-4.823c0-2.868-2.348-5.345-5.348-5.345-2.87 0-5.349 2.347-5.349 5.345 0 2.347 1.305 4.302 3.393 4.955" fill="url(#a)"/><path d="M16.825 64.662h7.305v-4.04h-7.305a7.903 7.903 0 0 0-7.956 7.952v3.258c-1.958.783-3.393 2.738-3.393 4.954 0 2.868 2.349 5.345 5.349 5.345 2.869 0 5.348-2.346 5.348-5.345 0-2.216-1.305-4.041-3.262-4.823v-3.26c-.13-2.216 1.697-4.04 3.913-4.04" fill="url(#b)"/><path d="M5.478 55.666c2.217 0 4.175-1.302 4.957-3.258H24.13v-4.042H10.305c-.784-1.955-2.74-3.258-4.957-3.258-2.87 0-5.348 2.346-5.348 5.345a5.461 5.461 0 0 0 5.478 5.213" fill="url(#c)"/><path d="M108.78 32.07V27.9c1.956-.782 3.391-2.737 3.391-4.954 0-2.869-2.349-5.345-5.347-5.345-2.87 0-5.349 2.347-5.349 5.345 0 2.216 1.305 4.041 3.263 4.824v4.301c0 2.217-1.828 3.912-3.914 3.912h-7.305v4.04h7.305c4.433 0 7.956-3.65 7.956-7.952" fill="url(#d)"/><path d="M104.866 68.704v3.259c-1.956.782-3.26 2.737-3.26 4.823 0 2.868 2.348 5.345 5.348 5.345 2.869 0 5.347-2.346 5.347-5.345 0-2.216-1.435-4.171-3.391-4.954v-3.258a7.902 7.902 0 0 0-7.956-7.953H93.65v4.041h7.304c2.087 0 3.912 1.825 3.912 4.042" fill="url(#e)"/><path d="M112.171 45.107c-2.217 0-4.175 1.304-4.956 3.26H93.65v4.04h13.695c.782 1.957 2.739 3.26 4.956 3.26 2.87 0 5.348-2.347 5.348-5.346a5.463 5.463 0 0 0-5.478-5.214" fill="url(#f)"/><path d="M33.913 74.961h49.825c3 0 5.347-2.346 5.347-5.345V35.07c0-2.999-2.349-5.345-5.347-5.345H78.91v-9.648C78.911 8.995 69.911 0 58.824 0S38.737 8.995 38.737 20.076v9.648h-4.825c-3 0-5.347 2.346-5.347 5.345v34.547c0 2.999 2.348 5.345 5.348 5.345zm30.26-12.255c.26.783-.392 1.695-1.306 1.695h-7.954c-.913 0-1.435-.782-1.304-1.695l1.956-7.691a5.5 5.5 0 0 1-2.087-4.303c0-2.998 2.478-5.475 5.478-5.475 3 0 5.478 2.477 5.478 5.475 0 1.825-.783 3.39-2.088 4.303l1.828 7.691h-.002zm-17.74-42.63c0-6.909 5.61-12.385 12.392-12.385 6.912 0 12.39 5.606 12.39 12.385v9.648H46.434v-9.648z" fill="url(#g)"/></g><path d="M147.125 47.1c-1.683-1.681-2.523-3.709-2.523-6.084 0-2.375.84-4.402 2.522-6.082 1.681-1.691 3.71-2.538 6.086-2.538 1.457 0 2.819.348 4.085 1.041V29.44a12.363 12.363 0 0 0-4.085-.689c-3.385 0-6.276 1.199-8.675 3.596-2.398 2.398-3.597 5.288-3.597 8.67 0 3.383 1.2 6.274 3.597 8.67 2.399 2.398 5.29 3.596 8.675 3.596 1.4 0 2.762-.234 4.085-.704v-3.983a8.47 8.47 0 0 1-4.085 1.025c-2.375 0-4.405-.84-6.086-2.521l.001.001zm16.66-7.831v-6.621h5.227c.91 0 1.688.324 2.338.974a3.24 3.24 0 0 1 .959 2.353c0 .907-.32 1.68-.959 2.319-.65.65-1.429.975-2.338.975h-5.227zm7.95 3.092a6.875 6.875 0 0 0 3.044-2.521 6.702 6.702 0 0 0 1.194-3.865c0-1.926-.684-3.568-2.05-4.924-1.36-1.366-2.995-2.05-4.91-2.05h-8.878v24.046h3.649V42.916h4.119l5.262 10.133h4.119l-5.548-10.688-.001.001zm20.059-13.358L186.7 37.64l-5.094-8.637h-4.237l7.5 12.737v11.309h3.663V41.74l7.498-12.738h-4.238.002zm9.936 10.266h5.229c.907 0 1.687-.325 2.337-.975a3.16 3.16 0 0 0 .958-2.319c0-.919-.32-1.703-.959-2.352a3.189 3.189 0 0 0-2.337-.975h-5.228v6.62zm0 13.779h-3.649V29.002h8.878c1.916 0 3.552.683 4.909 2.05 1.367 1.355 2.05 2.997 2.05 4.924 0 1.915-.683 3.55-2.05 4.907-1.357 1.354-2.993 2.032-4.91 2.032h-5.228v10.133zm14.289-24.046v3.647h5.094v20.4h3.665V32.648h5.093v-3.646H216.02zm19.4 5.932c-1.68 1.68-2.522 3.707-2.522 6.082s.842 4.403 2.523 6.083c1.681 1.681 3.71 2.521 6.085 2.521 2.376 0 4.405-.84 6.086-2.521 1.681-1.68 2.523-3.708 2.523-6.083s-.841-4.402-2.523-6.082c-1.681-1.681-3.71-2.521-6.086-2.521-2.375 0-4.404.84-6.085 2.52h-.001zm-2.588 14.754c-2.4-2.398-3.599-5.288-3.599-8.672 0-3.382 1.2-6.272 3.598-8.67 2.4-2.397 5.291-3.596 8.675-3.596 3.385 0 6.276 1.199 8.675 3.596 2.399 2.398 3.597 5.288 3.597 8.67 0 3.384-1.2 6.274-3.597 8.672-2.399 2.397-5.29 3.596-8.675 3.596-3.384 0-6.275-1.2-8.675-3.596h.001zm38.718 3.578a9.4 9.4 0 0 1-4.405-1.277c-1.525-.885-2.562-2.072-3.11-3.563l3.428-1.26c.282.74.858 1.339 1.733 1.799a6.188 6.188 0 0 0 2.521.655c1.4.056 2.561-.286 3.48-1.025.774-.627 1.183-1.344 1.228-2.15.067-1.535-1.541-2.763-4.825-3.681-5.145-1.445-7.638-3.893-7.481-7.343.1-2.42 1.137-4.229 3.11-5.427 1.502-.919 3.306-1.328 5.412-1.228 2.556.113 4.608 1.003 6.154 2.673l-2.673 2.487c-.875-.942-2.09-1.446-3.648-1.512-1.098-.045-2.034.095-2.808.419-1.21.516-1.844 1.434-1.9 2.756-.066 1.512 1.541 2.727 4.825 3.646 2.96.829 5.055 2.05 6.288 3.663.852 1.12 1.25 2.358 1.193 3.714-.089 1.904-.952 3.518-2.587 4.84-1.525 1.22-3.353 1.832-5.481 1.832-.158 0-.31-.006-.454-.018zm11.431-24.263v24.044h12.272v-3.646h-8.625v-6.587h6.66v-3.647h-6.658V32.65h8.625v-3.647H282.98zm18.661 10.266v-6.621h5.229c.907 0 1.688.324 2.337.974.638.65.958 1.434.958 2.353 0 .907-.32 1.68-.959 2.319-.65.65-1.429.975-2.337.975h-5.228zm7.951 3.092a6.875 6.875 0 0 0 3.044-2.521 6.704 6.704 0 0 0 1.194-3.865c0-1.926-.684-3.568-2.051-4.924-1.356-1.366-2.993-2.05-4.91-2.05h-8.877v24.046h3.648V42.916h4.12l5.262 10.133h4.118l-5.548-10.688v.001zm7.516-13.358v24.044h4.472l14.173-24.044h-4.238l-10.741 18.23v-18.23h-3.666zm32.877 0v3.646h-8.625v6.518h6.657v3.647h-6.657V49.4h8.625v3.646h-12.273V29.003h12.273zm11.571 0c1.918 0 3.554.682 4.91 2.05 1.368 1.354 2.05 2.996 2.05 4.922 0 1.413-.397 2.7-1.192 3.865a6.875 6.875 0 0 1-3.044 2.521l5.548 10.688h-4.12l-5.262-10.134h-4.119v10.133h-3.647V29h8.876v.002zm0 3.645h-5.227v6.62h5.228c.908 0 1.688-.324 2.338-.974a3.16 3.16 0 0 0 .958-2.319c0-.919-.32-1.703-.96-2.352a3.188 3.188 0 0 0-2.337-.975z" fill="url(#h)"/></g></g></svg>