<?xml version="1.0" encoding="UTF-8"?>
<svg width="783px" height="200px" viewBox="0 0 783 200" version="1.1" xmlns="http://www.w3.org/2000/svg" xmlns:xlink="http://www.w3.org/1999/xlink">
    <title>crypto-lib-small</title>
    <defs>
        <linearGradient x1="50%" y1="23.0908939%" x2="50%" y2="94.501%" id="linearGradient-1">
            <stop stop-color="#EA38FF" offset="0%"></stop>
            <stop stop-color="#7D2CFE" offset="100%"></stop>
        </linearGradient>
        <linearGradient x1="50%" y1="23.0908939%" x2="50%" y2="94.501%" id="linearGradient-2">
            <stop stop-color="#EA38FF" offset="0%"></stop>
            <stop stop-color="#7D2CFE" offset="100%"></stop>
        </linearGradient>
        <linearGradient x1="50%" y1="23.0908939%" x2="50%" y2="94.501%" id="linearGradient-3">
            <stop stop-color="#EA38FF" offset="0%"></stop>
            <stop stop-color="#7D2CFE" offset="100%"></stop>
        </linearGradient>
        <linearGradient x1="50%" y1="23.0908939%" x2="50%" y2="94.501%" id="linearGradient-4">
            <stop stop-color="#EA38FF" offset="0%"></stop>
            <stop stop-color="#7D2CFE" offset="100%"></stop>
        </linearGradient>
        <linearGradient x1="50%" y1="23.0908939%" x2="50%" y2="94.501%" id="linearGradient-5">
            <stop stop-color="#EA38FF" offset="0%"></stop>
            <stop stop-color="#7D2CFE" offset="100%"></stop>
        </linearGradient>
        <linearGradient x1="50%" y1="23.0908939%" x2="50%" y2="94.501%" id="linearGradient-6">
            <stop stop-color="#EA38FF" offset="0%"></stop>
            <stop stop-color="#7D2CFE" offset="100%"></stop>
        </linearGradient>
        <linearGradient x1="50%" y1="23.0908939%" x2="50%" y2="94.501%" id="linearGradient-7">
            <stop stop-color="#EA38FF" offset="0%"></stop>
            <stop stop-color="#7D2CFE" offset="100%"></stop>
        </linearGradient>
        <linearGradient x1="50%" y1="23.0908939%" x2="50%" y2="94.501%" id="linearGradient-8">
            <stop stop-color="#EA38FF" offset="0%"></stop>
            <stop stop-color="#7D2CFE" offset="100%"></stop>
        </linearGradient>
        <linearGradient x1="50%" y1="23.0908939%" x2="50%" y2="94.501%" id="linearGradient-9">
            <stop stop-color="#EA38FF" offset="0%"></stop>
            <stop stop-color="#7D2CFE" offset="100%"></stop>
        </linearGradient>
        <linearGradient x1="50%" y1="23.0908939%" x2="50%" y2="94.501%" id="linearGradient-10">
            <stop stop-color="#EA38FF" offset="0%"></stop>
            <stop stop-color="#7D2CFE" offset="100%"></stop>
        </linearGradient>
        <linearGradient x1="50%" y1="23.0908939%" x2="50%" y2="94.501%" id="linearGradient-11">
            <stop stop-color="#EA38FF" offset="0%"></stop>
            <stop stop-color="#7D2CFE" offset="100%"></stop>
        </linearGradient>
        <linearGradient x1="50%" y1="23.0908939%" x2="50%" y2="94.501%" id="linearGradient-12">
            <stop stop-color="#EA38FF" offset="0%"></stop>
            <stop stop-color="#7D2CFE" offset="100%"></stop>
        </linearGradient>
        <linearGradient x1="50%" y1="23.0908939%" x2="50%" y2="94.501%" id="linearGradient-13">
            <stop stop-color="#EA38FF" offset="0%"></stop>
            <stop stop-color="#7D2CFE" offset="100%"></stop>
        </linearGradient>
        <linearGradient x1="50%" y1="23.0908939%" x2="50%" y2="94.501%" id="linearGradient-14">
            <stop stop-color="#EA38FF" offset="0%"></stop>
            <stop stop-color="#7D2CFE" offset="100%"></stop>
        </linearGradient>
    </defs>
    <g id="Page-1" stroke="none" stroke-width="1" fill="none" fill-rule="evenodd">
        <g id="crypto-lib-small" fill-rule="nonzero">
            <g id="Group">
                <g>
                    <path d="M21.5980519,67.6189027 L21.5980519,77.7779469 C21.5980519,88.571646 30.1735028,97.143292 40.9725287,97.143292 L58.7588464,97.143292 L58.7588464,87.3015752 L40.9725287,87.3015752 C35.5726353,87.3015752 31.4443345,82.857469 31.4443345,77.7779469 L31.4443345,67.3015752 C36.2080511,65.3968496 39.3843695,60.6354159 39.3843695,55.5558938 C39.3843695,48.571646 33.6671486,42.5401415 26.3625295,42.5401415 C19.3744768,42.5401415 13.3399285,48.2543185 13.3399285,55.5558938 C13.3399285,61.2700708 16.5162469,66.0322654 21.5980519,67.6189027" id="Path" fill="url(#linearGradient-1)"></path>
                    <path d="M40.9725287,157.460619 L58.7588464,157.460619 L58.7588464,147.619664 L40.9725287,147.619664 C30.1735028,147.619664 21.5980519,156.190549 21.5980519,166.984248 L21.5980519,174.921239 C16.8335743,176.825204 13.3399285,181.587398 13.3399285,186.984248 C13.3399285,193.968496 19.0571494,200 26.3625295,200 C33.3498212,200 39.3843695,194.285823 39.3843695,186.984248 C39.3843695,181.587398 36.2080511,177.143292 31.4443345,175.238566 L31.4443345,167.301575 C31.1262461,161.905487 35.5726353,157.460619 40.9725287,157.460619" id="Path" fill="url(#linearGradient-2)"></path>
                    <path d="M13.3399285,135.555894 C18.739061,135.555894 23.5035385,132.381097 25.4090252,127.618903 L58.7588464,127.618903 L58.7588464,117.777947 L25.0916977,117.777947 C23.1862111,113.015752 18.4217335,109.840956 13.022601,109.840956 C6.03454836,109.841717 5.40706747e-15,115.556655 5.40706747e-15,122.85823 C0.321953885,129.98343 6.20751913,135.585964 13.3399285,135.556882" id="Path" fill="url(#linearGradient-3)"></path>
                    <path d="M264.892322,78.0952743 L264.892322,67.9362301 C269.656038,66.0322654 273.150445,61.2700708 273.150445,55.8732212 C273.150445,48.8889734 267.433224,42.857469 260.127844,42.857469 C253.140552,42.857469 247.106004,48.571646 247.106004,55.8732212 C247.106004,61.2700708 250.281562,65.714177 255.046039,67.6189027 L255.046039,78.0952743 C255.046039,83.4921239 250.59965,87.6189027 245.517845,87.6189027 L227.731527,87.6189027 L227.731527,97.4606194 L245.517845,97.4606194 C256.31611,97.4606194 264.892322,88.571646 264.892322,78.0952743" id="Path" fill="url(#linearGradient-1)"></path>
                    <path d="M255.363367,167.301575 L255.363367,175.238566 C250.59965,177.143292 247.423332,181.904726 247.423332,186.984248 C247.423332,193.968496 253.140552,200 260.445933,200 C267.433224,200 273.467773,194.285823 273.467773,186.984248 C273.467773,181.587398 269.974127,176.825204 265.21041,174.921239 L265.21041,166.984248 C265.21041,156.190549 256.634198,147.619664 245.835172,147.619664 L228.048855,147.619664 L228.048855,157.460619 L245.835172,157.460619 C250.916977,157.460619 255.363367,161.904726 255.363367,167.301575" id="Path" fill="url(#linearGradient-2)"></path>
                    <path d="M273.150445,109.841494 C267.751313,109.841494 262.986835,113.015752 261.081348,117.778708 L228.048855,117.778708 L228.048855,127.618903 L261.398676,127.618903 C263.304163,132.381097 268.06864,135.555894 273.467773,135.555894 C280.455825,135.555894 286.490374,129.840956 286.490374,122.539381 C286.16764,115.414656 280.282417,109.812783 273.150445,109.841494" id="Path" fill="url(#linearGradient-4)"></path>
                    <path d="M82.5804733,182.540142 L203.910661,182.540142 C211.21528,182.540142 216.93174,176.825204 216.93174,169.524389 L216.93174,85.3968496 C216.93174,78.0952743 211.21528,72.3810973 203.9099,72.3810973 L192.158131,72.3810973 L192.158131,48.8897344 C192.158131,21.9054866 170.241991,-1.08141349e-14 143.244806,-1.08141349e-14 C116.247622,-1.08141349e-14 94.3322426,21.9047257 94.3322426,48.8889734 L94.3322426,72.3810973 L82.5804733,72.3810973 C75.2750932,72.3810973 69.5578723,78.0952743 69.5578723,85.3968496 L69.5578723,169.524389 C69.5578723,176.825204 75.2750932,182.540142 82.5804733,182.540142 L82.5804733,182.540142 Z M156.267407,152.698425 C156.902823,154.60315 155.314664,156.825965 153.091089,156.825965 L133.716612,156.825965 C131.493798,156.825965 130.222966,154.920478 130.540294,152.698425 L135.30401,133.968496 C132.128453,131.428354 130.222966,127.618903 130.222966,123.492124 C130.222966,116.190549 136.257515,110.159044 143.562895,110.159044 C150.868275,110.159044 156.902823,116.190549 156.902823,123.492124 C156.902823,127.93623 154.996576,131.745681 151.821018,133.968496 L156.267407,152.698425 Z M113.071304,48.8889734 C113.071304,32.0637699 126.72932,18.7299292 143.244806,18.7299292 C160.079142,18.7299292 173.418309,32.3810973 173.418309,48.8889734 L173.418309,72.3810973 L113.071304,72.3810973 L113.071304,48.8897344 L113.071304,48.8889734 Z" id="Shape" fill="url(#linearGradient-5)"></path>
                </g>
                <g id="CRYPTO-LIB" transform="translate(333.588007, 95.657865)">
                    <path d="M28.3326992,58.4856556 C20.4712985,58.4856556 13.7838318,55.8212211 8.27029906,50.4923522 C2.75676635,45.1634832 0,38.0934987 0,29.2823986 C0,20.5240596 2.79633716,13.454075 8.38901149,8.07244502 C13.9816858,2.69081501 20.6032012,0 28.2535576,0 C35.0069756,0 40.5600791,1.71473505 44.9128681,5.14420516 C49.2656571,8.57367527 52.1279456,12.9264642 53.4997337,18.2025721 L44.5567308,21.2099536 C43.6597925,17.5694392 41.8395353,14.6148188 39.0959592,12.3460924 C36.3523831,10.077366 32.7382492,8.94300282 28.2535576,8.94300282 C23.2412551,8.94300282 18.9016564,10.7236892 15.2347614,14.285062 C11.5678665,17.8464348 9.73441899,22.845547 9.73441899,29.2823986 C9.73441899,35.5609669 11.5546762,40.4809375 15.1951906,44.0423103 C18.835705,47.6036831 23.2148746,49.3843695 28.3326992,49.3843695 C32.7118687,49.3843695 36.3260026,48.1972453 39.1751008,45.8229967 C42.0241991,43.4487482 43.976359,40.5205083 45.0315805,37.0382771 L53.7371585,39.8873754 C52.3653705,45.1107222 49.4767014,49.5162722 45.0711514,53.1040256 C40.6656013,56.6917789 35.0861172,58.4856556 28.3326992,58.4856556 Z" id="Path" fill="url(#linearGradient-6)"></path>
                    <path d="M91.7251351,57.2985313 L79.933034,35.1388783 L72.9685716,35.1388783 L72.9685716,57.2985313 L63.3924359,57.2985313 L63.3924359,1.18712427 L84.9189559,1.18712427 C90.1950638,1.18712427 94.4423306,2.80952743 97.6607564,6.05433376 C100.879182,9.2991401 102.488395,13.3485529 102.488395,18.2025721 C102.488395,22.2124141 101.354032,25.6418842 99.0853055,28.4909824 C96.8165792,31.3400807 93.7300561,33.2394795 89.8257362,34.1891789 L102.488395,57.2985313 L91.7251351,57.2985313 Z M72.9685716,26.7498668 L83.1778403,26.7498668 C86.0796997,26.7498668 88.4143774,25.9716409 90.1818735,24.4151891 C91.9493697,22.8587373 92.8331177,20.787865 92.8331177,18.2025721 C92.8331177,15.5645182 91.9493697,13.4672653 90.1818735,11.9108135 C88.4143774,10.3543617 86.0796997,9.57613576 83.1778403,9.57613576 L72.9685716,9.57613576 L72.9685716,26.7498668 Z" id="Shape" fill="url(#linearGradient-7)"></path>
                    <polygon id="Path" fill="url(#linearGradient-8)" points="125.518606 33.556046 105.891485 1.18712427 117.129594 1.18712427 130.583669 24.6921848 144.116886 1.18712427 154.801004 1.18712427 135.0156 33.556046 135.0156 57.2985313 125.518606 57.2985313"></polygon>
                    <path d="M171.816452,26.9872917 L181.709155,26.9872917 C184.716536,26.9872917 187.077594,26.2090658 188.792329,24.652614 C190.507064,23.0961621 191.364432,20.9989093 191.364432,18.3608553 C191.364432,15.6700403 190.507064,13.5332167 188.792329,11.9503843 C187.077594,10.3675519 184.716536,9.57613576 181.709155,9.57613576 L171.816452,9.57613576 L171.816452,26.9872917 Z M183.133704,35.3763032 L171.816452,35.3763032 L171.816452,57.2985313 L162.319458,57.2985313 L162.319458,1.18712427 L183.133704,1.18712427 C188.462573,1.18712427 192.775791,2.79633716 196.073358,6.01476296 C199.370926,9.23318875 201.019709,13.3221723 201.019709,18.2817137 C201.019709,23.2940162 199.370926,27.39619 196.073358,30.5882353 C192.775791,33.7802805 188.462573,35.3763032 183.133704,35.3763032 Z" id="Shape" fill="url(#linearGradient-9)"></path>
                    <polygon id="Path" fill="url(#linearGradient-10)" points="250.245796 10.1301271 231.964082 10.1301271 231.964082 57.2985313 222.467088 57.2985313 222.467088 10.1301271 204.264516 10.1301271 204.264516 1.18712427 250.245796 1.18712427"></polygon>
                    <path d="M268.131801,14.3246328 C264.438526,17.8596251 262.591888,22.8191665 262.591888,29.203257 C262.591888,35.5873475 264.438526,40.5600791 268.131801,44.1214519 C271.825077,47.6828247 276.230627,49.4635111 281.348451,49.4635111 C286.466276,49.4635111 290.885016,47.6828247 294.604672,44.1214519 C298.324328,40.5600791 300.184156,35.5873475 300.184156,29.203257 C300.184156,22.8191665 298.324328,17.8464348 294.604672,14.285062 C290.885016,10.7236892 286.466276,8.94300282 281.348451,8.94300282 C276.230627,8.94300282 271.825077,10.7368795 268.131801,14.3246328 Z M256.893691,44.8732973 C254.202876,40.3358446 252.857469,35.1124978 252.857469,29.203257 C252.857469,23.2940162 254.216067,18.0838597 256.933262,13.5727875 C259.650458,9.06171524 263.145879,5.67181595 267.419527,3.40308957 C271.693174,1.13436319 276.336149,0 281.348451,0 C286.360754,0 291.003729,1.13436319 295.277376,3.40308957 C299.551024,5.67181595 303.059635,9.06171524 305.803211,13.5727875 C308.546787,18.0838597 309.918575,23.2940162 309.918575,29.203257 C309.918575,35.1124978 308.546787,40.3358446 305.803211,44.8732973 C303.059635,49.4107501 299.551024,52.8138396 295.277376,55.082566 C291.003729,57.3512924 286.360754,58.4856556 281.348451,58.4856556 C276.336149,58.4856556 271.693174,57.3512924 267.419527,55.082566 C263.145879,52.8138396 259.637268,49.4107501 256.893691,44.8732973 Z" id="Shape" fill="url(#linearGradient-11)"></path>
                    <polygon id="Path" fill="url(#linearGradient-12)" points="374.814702 57.2985313 339.596682 57.2985313 339.596682 1.18712427 349.093676 1.18712427 349.093676 48.2763869 374.814702 48.2763869"></polygon>
                    <polygon id="Path" fill="url(#linearGradient-13)" points="393.175557 57.2985313 383.52028 57.2985313 383.52028 1.18712427 393.175557 1.18712427"></polygon>
                    <path d="M406.629632,1.18712427 L425.940187,1.18712427 C431.216295,1.18712427 435.38442,2.58529285 438.444563,5.38163001 C441.504705,8.17796718 443.034777,11.8184816 443.034777,16.3031733 C443.034777,19.2050326 442.269741,21.7243741 440.73967,23.8611978 C439.209598,25.9980215 437.204677,27.5149025 434.724907,28.4118408 C437.732288,29.203257 440.159298,30.8124699 442.005936,33.2394795 C443.852573,35.6664891 444.775892,38.5155873 444.775892,41.7867742 C444.775892,46.324227 443.166679,50.043883 439.948254,52.9457423 C436.729828,55.8476017 432.535322,57.2985313 427.364736,57.2985313 L406.629632,57.2985313 L406.629632,1.18712427 Z M416.047485,24.9296096 L424.673921,24.9296096 C427.417497,24.9296096 429.580702,24.2173351 431.163534,22.7927859 C432.746366,21.3682368 433.537783,19.468838 433.537783,17.0945895 C433.537783,14.6675798 432.733176,12.7549907 431.123963,11.3568222 C429.51475,9.95865358 427.285595,9.25956929 424.436496,9.25956929 L416.047485,9.25956929 L416.047485,24.9296096 Z M416.047485,49.2260863 L425.702762,49.2260863 C428.551861,49.2260863 430.833777,48.5006215 432.548512,47.0496918 C434.263247,45.5987621 435.120615,43.633412 435.120615,41.1536413 C435.120615,38.6738706 434.316008,36.6821399 432.706796,35.1784491 C431.097583,33.6747584 428.868427,32.922913 426.019329,32.922913 L416.047485,32.922913 L416.047485,49.2260863 Z" id="Shape" fill="url(#linearGradient-14)"></path>
                </g>
            </g>
        </g>
    </g>
</svg>