<svg width="160" height="50" xmlns="http://www.w3.org/2000/svg"><defs><linearGradient x1="50%" y1="100%" x2="50%" y2="0%" id="a"><stop stop-color="#D676EB" offset="0%"/><stop stop-color="#8227FF" offset="100%"/></linearGradient><linearGradient x1="50%" y1="100%" x2="50%" y2="0%" id="b"><stop stop-color="#D676EB" offset="0%"/><stop stop-color="#8227FF" offset="100%"/></linearGradient><linearGradient x1="50%" y1="100%" x2="50%" y2="0%" id="c"><stop stop-color="#D676EB" offset="0%"/><stop stop-color="#8227FF" offset="100%"/></linearGradient><linearGradient x1="50%" y1="100%" x2="50%" y2="0%" id="d"><stop stop-color="#D676EB" offset="0%"/><stop stop-color="#8227FF" offset="100%"/></linearGradient><linearGradient x1="50%" y1="100%" x2="50%" y2="0%" id="e"><stop stop-color="#D676EB" offset="0%"/><stop stop-color="#8227FF" offset="100%"/></linearGradient><linearGradient x1="50%" y1="100%" x2="50%" y2="0%" id="f"><stop stop-color="#D676EB" offset="0%"/><stop stop-color="#8227FF" offset="100%"/></linearGradient><linearGradient x1="50%" y1="100%" x2="50%" y2="0%" id="g"><stop stop-color="#D676EB" offset="0%"/><stop stop-color="#8227FF" offset="100%"/></linearGradient><linearGradient x1="50%" y1="100%" x2="50%" y2="0%" id="h"><stop stop-color="#D676EB" offset="0%"/><stop stop-color="#8227FF" offset="100%"/></linearGradient></defs><g fill="none" fill-rule="evenodd"><path d="M0 0L160 0 160 50 0 50z"/><g transform="translate(5 9)" fill-rule="nonzero"><path d="M3.548 11.107v1.669a3.161 3.161 0 0 0 3.182 3.181h2.922V14.34H6.73c-.887 0-1.565-.73-1.565-1.564v-1.721a2.099 2.099 0 0 0 1.304-1.929c0-1.147-.94-2.138-2.139-2.138a2.148 2.148 0 0 0-2.139 2.138c0 .939.522 1.72 1.357 1.981" fill="url(#a)"/><path d="M6.73 25.865h2.922v-1.617H6.73a3.161 3.161 0 0 0-3.183 3.181v1.304c-.783.313-1.356 1.095-1.356 1.982 0 1.146.939 2.137 2.139 2.137a2.148 2.148 0 0 0 2.139-2.137c0-.887-.522-1.617-1.304-1.93v-1.303c-.053-.887.678-1.617 1.564-1.617" fill="url(#b)"/><path d="M2.192 22.267c.886 0 1.668-.522 1.982-1.304h5.478v-1.617h-5.53c-.313-.782-1.096-1.303-1.983-1.303A2.148 2.148 0 0 0 0 20.181a2.185 2.185 0 0 0 2.192 2.086" fill="url(#c)"/><path d="M43.512 12.828V11.16c.782-.313 1.356-1.095 1.356-1.982A2.148 2.148 0 0 0 42.73 7.04c-1.148 0-2.139.939-2.139 2.138 0 .887.522 1.617 1.304 1.93v1.72c0 .887-.73 1.565-1.564 1.565h-2.922v1.616h2.922c1.773 0 3.182-1.46 3.182-3.18" fill="url(#d)"/><path d="M41.947 27.482v1.303a2.099 2.099 0 0 0-1.305 1.93c0 1.146.94 2.137 2.14 2.137a2.148 2.148 0 0 0 2.139-2.137c0-.887-.575-1.669-1.357-1.982v-1.304a3.161 3.161 0 0 0-3.182-3.18H37.46v1.616h2.922c.835 0 1.565.73 1.565 1.617" fill="url(#e)"/><path d="M44.868 18.043c-.887 0-1.67.521-1.982 1.303H37.46v1.617h5.478c.313.782 1.095 1.303 1.982 1.303a2.148 2.148 0 0 0 2.14-2.137 2.185 2.185 0 0 0-2.192-2.086" fill="url(#f)"/><path d="M13.565 29.985h19.93c1.2 0 2.139-.939 2.139-2.139V14.027c0-1.199-.94-2.137-2.139-2.137h-1.93V8.03c0-4.431-3.6-8.03-8.036-8.03-4.434 0-8.034 3.598-8.034 8.03v3.86h-1.93c-1.2 0-2.139.938-2.139 2.137v13.82c0 1.199.939 2.137 2.139 2.137zm12.104-4.902c.104.313-.157.678-.522.678h-3.182c-.365 0-.574-.313-.521-.678l.782-3.077a2.2 2.2 0 0 1-.835-1.721c0-1.199.992-2.19 2.192-2.19 1.2 0 2.191.991 2.191 2.19 0 .73-.314 1.356-.835 1.721l.73 3.076zM18.573 8.03a4.953 4.953 0 0 1 4.957-4.955 4.953 4.953 0 0 1 4.956 4.954v3.86h-9.913V8.03z" fill="url(#g)"/><path d="M58.946 19.099a3.317 3.317 0 0 1-1.008-2.433c0-.95.335-1.761 1.008-2.434a3.309 3.309 0 0 1 2.434-1.014c.584 0 1.128.139 1.634.416v-1.6a4.946 4.946 0 0 0-1.634-.275c-1.353 0-2.51.48-3.47 1.438-.959.96-1.438 2.116-1.438 3.469 0 1.353.48 2.509 1.438 3.468.96.959 2.117 1.439 3.47 1.439.56 0 1.105-.095 1.634-.283v-1.593a3.387 3.387 0 0 1-1.634.41 3.32 3.32 0 0 1-2.434-1.008zm6.665-3.133V13.32h2.091c.363 0 .674.13.934.39.256.26.384.573.384.94 0 .364-.128.673-.383.928a1.275 1.275 0 0 1-.936.39h-2.09zm3.18 1.237c.496-.21.919-.56 1.217-1.008.315-.453.481-.993.478-1.546 0-.77-.274-1.427-.82-1.97a2.668 2.668 0 0 0-1.965-.82h-3.55v9.619h1.459v-4.053h1.647l2.105 4.053h1.648l-2.219-4.275zm8.023-5.343l-2.037 3.455-2.038-3.455h-1.695l2.999 5.095v4.524h1.466v-4.524l3-5.095h-1.695zm3.974 4.107h2.091c.364 0 .675-.13.935-.39.256-.255.384-.565.384-.928 0-.367-.128-.681-.384-.94a1.275 1.275 0 0 0-.934-.39h-2.092v2.647zm0 5.511h-1.46V11.86h3.551c.767 0 1.422.274 1.965.82.546.543.82 1.199.82 1.97 0 .765-.274 1.42-.82 1.962a2.676 2.676 0 0 1-1.965.814h-2.09v4.053h-.001zm5.716-9.618v1.459h2.037v8.16h1.466v-8.16h2.038V11.86h-5.541zm7.76 2.373a3.317 3.317 0 0 0-1.008 2.433c0 .95.336 1.76 1.008 2.433a3.318 3.318 0 0 0 2.434 1.008 3.32 3.32 0 0 0 2.436-1.008 3.318 3.318 0 0 0 1.008-2.433c0-.95-.337-1.761-1.009-2.434a3.319 3.319 0 0 0-2.434-1.007c-.95 0-1.762.335-2.434 1.008h-.001zm-1.035 5.901c-.96-.959-1.44-2.115-1.44-3.468 0-1.354.48-2.51 1.44-3.469.96-.958 2.116-1.438 3.47-1.438 1.353 0 2.51.48 3.47 1.438.959.96 1.439 2.116 1.439 3.469 0 1.353-.48 2.509-1.44 3.468-.959.959-2.116 1.439-3.47 1.439-1.353 0-2.51-.48-3.47-1.439h.001zm15.487 1.431a3.76 3.76 0 0 1-1.762-.51c-.61-.354-1.024-.829-1.244-1.425l1.372-.504c.112.296.343.535.692.719.314.158.658.247 1.009.262.56.023 1.025-.114 1.392-.41.31-.251.473-.537.491-.86.027-.614-.617-1.105-1.93-1.472-2.058-.578-3.055-1.557-2.993-2.937.04-.969.456-1.692 1.245-2.171.6-.368 1.322-.531 2.165-.491 1.022.045 1.843.401 2.461 1.069l-1.069.994c-.35-.376-.836-.578-1.46-.604-.438-.018-.813.037-1.122.168-.484.205-.738.573-.76 1.102-.027.605.616 1.091 1.93 1.459 1.184.331 2.022.82 2.514 1.465.341.447.5.943.478 1.485-.035.762-.381 1.407-1.035 1.936-.61.488-1.341.733-2.193.733-.063 0-.123-.003-.181-.008zm4.573-9.705v9.619h4.909v-1.46h-3.45v-2.634h2.663v-1.459h-2.663V13.32h3.45V11.86h-4.91zm7.465 4.107v-2.649h2.09c.364 0 .675.13.936.39.254.26.382.574.382.941 0 .364-.128.673-.383.928a1.275 1.275 0 0 1-.934.39h-2.092zm3.18 1.236c.495-.21.919-.56 1.217-1.008.315-.453.481-.993.478-1.546 0-.77-.274-1.427-.821-1.97a2.668 2.668 0 0 0-1.964-.82h-3.55v9.619h1.459v-4.053h1.647l2.105 4.053h1.648l-2.22-4.275zm3.005-5.343v9.619h1.79l5.668-9.619h-1.695l-4.296 7.293V11.86h-1.467zm8.36 9.619h1.459v-9.605h-1.46v9.604zm5.103-2.38a3.313 3.313 0 0 1-1.008-2.433c0-.95.336-1.761 1.008-2.434a3.308 3.308 0 0 1 2.435-1.014c.583 0 1.127.139 1.634.416v-1.6a4.946 4.946 0 0 0-1.634-.275c-1.353 0-2.51.48-3.47 1.438-.959.96-1.439 2.116-1.439 3.469 0 1.353.48 2.509 1.439 3.468.96.959 2.117 1.439 3.47 1.439.56 0 1.105-.095 1.634-.283v-1.593a3.387 3.387 0 0 1-1.634.41c-.95 0-1.762-.336-2.434-1.008zm5.28-7.239v9.619h4.909v-1.46h-3.45v-2.634h2.663v-1.459h-2.663V13.32h3.45V11.86h-4.91z" fill="#111"/><path d="M58.947 19.099a3.314 3.314 0 0 1-1.01-2.433c0-.95.337-1.761 1.009-2.434a3.309 3.309 0 0 1 2.434-1.014c.584 0 1.128.139 1.634.416v-1.6a4.946 4.946 0 0 0-1.634-.275c-1.353 0-2.51.48-3.47 1.438-.959.96-1.438 2.116-1.438 3.469 0 1.353.48 2.509 1.438 3.468.96.959 2.117 1.439 3.47 1.439.56 0 1.105-.095 1.634-.283v-1.593a3.387 3.387 0 0 1-1.634.41 3.32 3.32 0 0 1-2.434-1.008zm6.663-3.133V13.32h2.092c.363 0 .674.13.934.39.256.259.384.572.384.94 0 .363-.128.673-.383.928a1.275 1.275 0 0 1-.936.39h-2.09zm3.181 1.237c.496-.21.919-.56 1.217-1.008.315-.454.481-.994.478-1.546a2.67 2.67 0 0 0-.82-1.969 2.667 2.667 0 0 0-1.965-.82h-3.55v9.618h1.46v-4.053h1.646l2.105 4.053h1.648l-2.219-4.275zm8.023-5.343l-2.038 3.455-2.037-3.455h-1.695l2.999 5.095v4.524h1.466v-4.524l3-5.095h-1.695zm3.974 4.107h2.091c.364 0 .675-.13.935-.39.256-.255.384-.565.384-.928 0-.367-.128-.681-.384-.941a1.275 1.275 0 0 0-.934-.39h-2.092v2.649zm0 5.511h-1.46V11.86h3.551c.767 0 1.421.274 1.964.82a2.67 2.67 0 0 1 .82 1.97c0 .765-.273 1.42-.82 1.962a2.68 2.68 0 0 1-1.964.814h-2.091v4.053zm5.716-9.618v1.459h2.037v8.16h1.467v-8.16h2.038V11.86h-5.543.001zm7.76 2.373a3.316 3.316 0 0 0-1.008 2.433c0 .95.336 1.76 1.008 2.433a3.317 3.317 0 0 0 2.434 1.008 3.32 3.32 0 0 0 2.436-1.008 3.316 3.316 0 0 0 1.008-2.433c0-.95-.337-1.761-1.009-2.434a3.319 3.319 0 0 0-2.434-1.008c-.95 0-1.762.336-2.435 1.008zm-1.035 5.901c-.96-.959-1.44-2.115-1.44-3.468 0-1.354.48-2.51 1.44-3.469.959-.958 2.115-1.438 3.47-1.438 1.353 0 2.51.48 3.47 1.438.959.96 1.438 2.116 1.438 3.469 0 1.353-.48 2.509-1.439 3.468-.96.959-2.116 1.439-3.47 1.439-1.353 0-2.51-.48-3.47-1.439h.001zm15.487 1.431a3.76 3.76 0 0 1-1.762-.51c-.61-.354-1.024-.829-1.244-1.425l1.372-.504c.112.295.343.535.693.719.313.158.657.247 1.008.262.56.023 1.025-.114 1.392-.41.31-.251.473-.537.491-.86.027-.614-.617-1.105-1.93-1.472-2.058-.578-3.055-1.557-2.993-2.937.04-.969.456-1.692 1.245-2.171.6-.368 1.322-.531 2.165-.491 1.022.044 1.843.401 2.461 1.069l-1.069.994c-.35-.376-.836-.578-1.46-.604-.438-.018-.813.037-1.122.168-.484.205-.738.573-.76 1.101-.027.606.616 1.092 1.93 1.459 1.184.332 2.022.82 2.514 1.465.341.448.5.944.478 1.486-.035.762-.381 1.407-1.035 1.936-.61.488-1.34.733-2.193.733-.063 0-.123-.003-.181-.008zm4.573-9.705v9.619h4.909v-1.46h-3.45v-2.635h2.663v-1.457h-2.663v-2.608h3.45V11.86h-4.91zm7.465 4.107v-2.649h2.09c.364 0 .675.13.936.39.254.26.382.573.382.941 0 .363-.128.673-.383.928a1.275 1.275 0 0 1-.934.39h-2.092zm3.18 1.236c.495-.21.919-.56 1.217-1.008.315-.454.481-.994.478-1.546a2.67 2.67 0 0 0-.821-1.969 2.665 2.665 0 0 0-1.964-.82h-3.55v9.618h1.459v-4.053h1.647l2.105 4.053h1.648l-2.22-4.275zm3.005-5.343v9.619h1.79l5.668-9.619h-1.695l-4.296 7.293V11.86h-1.467zm8.36 9.619h1.459v-9.605h-1.46v9.604zm5.104-2.38a3.314 3.314 0 0 1-1.009-2.433c0-.95.337-1.761 1.009-2.434a3.307 3.307 0 0 1 2.434-1.014c.583 0 1.127.139 1.634.416v-1.6a4.946 4.946 0 0 0-1.634-.275c-1.353 0-2.51.48-3.47 1.438-.959.96-1.439 2.116-1.439 3.469 0 1.353.48 2.509 1.439 3.468.96.959 2.117 1.439 3.47 1.439.56 0 1.105-.095 1.634-.283v-1.593a3.387 3.387 0 0 1-1.634.41c-.95 0-1.762-.336-2.434-1.008zm5.279-7.239v9.619h4.909v-1.46h-3.45v-2.635h2.663v-1.457h-2.663v-2.608h3.45V11.86h-4.91z" fill="url(#h)"/></g></g></svg>