<svg height="640" viewBox="0 0 1303 640" width="1303" xmlns="http://www.w3.org/2000/svg" xmlns:xlink="http://www.w3.org/1999/xlink"><linearGradient id="a" x1="50%" x2="50%" y1="23.090894%" y2="94.501%"><stop offset="0" stop-color="#22acff"/><stop offset="1" stop-color="#861efe"/></linearGradient><g fill="none" fill-rule="evenodd"><path d="m0 0h1280v640h-1280z"/><g fill="url(#a)" fill-rule="nonzero"><g transform="translate(44 199)"><path d="m28.382 88.858v13.35c0 14.184 11.269 25.448 25.46 25.448h23.373v-12.933h-23.373c-7.096 0-12.521-5.84-12.521-12.515v-13.767c6.26-2.503 10.434-8.76 10.434-15.435 0-9.178-7.513-17.104-17.112-17.104-9.183 0-17.113 7.509-17.113 17.104 0 7.509 4.174 13.767 10.852 15.852"/><path d="m53.842 206.919h23.373v-12.932h-23.373c-14.191 0-25.46 11.263-25.46 25.447v10.43c-6.261 2.502-10.852 8.76-10.852 15.852 0 9.178 7.513 17.104 17.113 17.104 9.182 0 17.112-7.509 17.112-17.104 0-7.092-4.174-12.932-10.434-15.435v-10.43c-.418-7.091 5.425-12.932 12.521-12.932"/><path d="m17.53 178.134c7.095 0 13.356-4.172 15.86-10.43h43.825v-12.932h-44.242c-2.504-6.258-8.765-10.43-15.86-10.43-9.183.001-17.113 7.511-17.113 17.106.4230796 9.363225 8.15730089 16.725515 17.53 16.687299"/><path d="m348.095 102.625v-13.35c6.26-2.502 10.852-8.76 10.852-15.852 0-9.178-7.513-17.104-17.113-17.104-9.182 0-17.112 7.509-17.112 17.104 0 7.092 4.173 12.932 10.434 15.435v13.767c0 7.092-5.843 12.515-12.521 12.515h-23.373v12.933h23.373c14.19 0 25.46-11.681 25.46-25.448"/><path d="m335.573 219.851v10.43c-6.26 2.503-10.434 8.76-10.434 15.435 0 9.178 7.513 17.104 17.113 17.104 9.182 0 17.112-7.509 17.112-17.104 0-7.092-4.591-13.35-10.851-15.852v-10.43c0-14.184-11.27-25.447-25.461-25.447h-23.373v12.932h23.373c6.678 0 12.521 5.84 12.521 12.932"/><path d="m358.947 144.342708c-7.095 0-13.356 4.171292-15.86 10.430292h-43.408v12.931h43.825c2.504 6.258 8.765 10.43 15.86 10.43 9.183 0 17.113-7.51 17.113-17.105-.424104-9.362601-8.157876-16.724022-17.53-16.686292"/><path d="m108.519 239.876h159.44c9.599 0 17.111-7.51 17.111-17.104v-110.552c0-9.595-7.512-17.104-17.112-17.104h-15.443v-30.87c0-35.46-28.8-64.246-64.277-64.246s-64.276 28.785-64.276 64.245v30.871h-15.443c-9.6 0-17.113 7.509-17.113 17.104v110.552c0 9.594 7.513 17.104 17.113 17.104zm96.832-39.215c.835 2.503-1.252 5.424-4.174 5.424h-25.46c-2.921 0-4.591-2.504-4.174-5.424l6.26-24.613c-4.173-3.338-6.677-8.344-6.677-13.767 0-9.595 7.93-17.521 17.53-17.521s17.53 7.926 17.53 17.521c0 5.84-2.505 10.846-6.678 13.767zm-56.764-136.416c0-22.11 17.948-39.632 39.651-39.632 22.122 0 39.651 17.939 39.651 39.632v30.871h-79.302v-30.87z"/></g><text font-family="CircularStd-Medium, Circular Std" font-size="104" font-weight="400" transform="translate(478 296)"><tspan x="0" y="104">CRYPTO SERVER</tspan></text></g></g></svg>