<?xml version="1.0" encoding="UTF-8"?>
<svg width="400px" height="103px" viewBox="0 0 400 103" version="1.1" xmlns="http://www.w3.org/2000/svg" xmlns:xlink="http://www.w3.org/1999/xlink">
    <title>crypto-lib-small</title>
    <defs>
        <linearGradient x1="50%" y1="23.0908939%" x2="50%" y2="94.501%" id="linearGradient-1">
            <stop stop-color="#EA38FF" offset="0%"></stop>
            <stop stop-color="#7D2CFE" offset="100%"></stop>
        </linearGradient>
        <linearGradient x1="50%" y1="23.0908939%" x2="50%" y2="94.501%" id="linearGradient-2">
            <stop stop-color="#EA38FF" offset="0%"></stop>
            <stop stop-color="#7D2CFE" offset="100%"></stop>
        </linearGradient>
        <linearGradient x1="50%" y1="23.0908939%" x2="50%" y2="94.501%" id="linearGradient-3">
            <stop stop-color="#EA38FF" offset="0%"></stop>
            <stop stop-color="#7D2CFE" offset="100%"></stop>
        </linearGradient>
        <linearGradient x1="50%" y1="23.0908939%" x2="50%" y2="94.501%" id="linearGradient-4">
            <stop stop-color="#EA38FF" offset="0%"></stop>
            <stop stop-color="#7D2CFE" offset="100%"></stop>
        </linearGradient>
        <linearGradient x1="50%" y1="23.0908939%" x2="50%" y2="94.501%" id="linearGradient-5">
            <stop stop-color="#EA38FF" offset="0%"></stop>
            <stop stop-color="#7D2CFE" offset="100%"></stop>
        </linearGradient>
        <linearGradient x1="50%" y1="23.0908939%" x2="50%" y2="94.501%" id="linearGradient-6">
            <stop stop-color="#EA38FF" offset="0%"></stop>
            <stop stop-color="#7D2CFE" offset="100%"></stop>
        </linearGradient>
        <linearGradient x1="50%" y1="23.0908939%" x2="50%" y2="94.501%" id="linearGradient-7">
            <stop stop-color="#EA38FF" offset="0%"></stop>
            <stop stop-color="#7D2CFE" offset="100%"></stop>
        </linearGradient>
        <linearGradient x1="50%" y1="23.0908939%" x2="50%" y2="94.501%" id="linearGradient-8">
            <stop stop-color="#EA38FF" offset="0%"></stop>
            <stop stop-color="#7D2CFE" offset="100%"></stop>
        </linearGradient>
        <linearGradient x1="50%" y1="23.0908939%" x2="50%" y2="94.501%" id="linearGradient-9">
            <stop stop-color="#EA38FF" offset="0%"></stop>
            <stop stop-color="#7D2CFE" offset="100%"></stop>
        </linearGradient>
        <linearGradient x1="50%" y1="23.0908939%" x2="50%" y2="94.501%" id="linearGradient-10">
            <stop stop-color="#EA38FF" offset="0%"></stop>
            <stop stop-color="#7D2CFE" offset="100%"></stop>
        </linearGradient>
        <linearGradient x1="50%" y1="23.0908939%" x2="50%" y2="94.501%" id="linearGradient-11">
            <stop stop-color="#EA38FF" offset="0%"></stop>
            <stop stop-color="#7D2CFE" offset="100%"></stop>
        </linearGradient>
        <linearGradient x1="50%" y1="23.0908939%" x2="50%" y2="94.501%" id="linearGradient-12">
            <stop stop-color="#EA38FF" offset="0%"></stop>
            <stop stop-color="#7D2CFE" offset="100%"></stop>
        </linearGradient>
        <linearGradient x1="50%" y1="23.0908939%" x2="50%" y2="94.501%" id="linearGradient-13">
            <stop stop-color="#EA38FF" offset="0%"></stop>
            <stop stop-color="#7D2CFE" offset="100%"></stop>
        </linearGradient>
        <linearGradient x1="50%" y1="23.0908939%" x2="50%" y2="94.501%" id="linearGradient-14">
            <stop stop-color="#EA38FF" offset="0%"></stop>
            <stop stop-color="#7D2CFE" offset="100%"></stop>
        </linearGradient>
    </defs>
    <g id="Page-1" stroke="none" stroke-width="1" fill="none" fill-rule="evenodd">
        <g id="crypto-lib-small" transform="translate(0.000000, -0.000000)" fill-rule="nonzero">
            <g id="Group">
                <path d="M11.0992054,34.7492492 L11.0992054,39.9699662 C11.0992054,45.5168315 15.5061163,49.921787 21.0557189,49.921787 L30.19608,49.921787 L30.19608,44.864144 L21.0557189,44.864144 C18.2807221,44.864144 16.1591947,42.5803248 16.1591947,39.9699662 L16.1591947,34.5861751 C18.6072613,33.6073395 20.2395664,31.1604462 20.2395664,28.5500876 C20.2395664,24.9608935 17.3014954,21.8613127 13.547663,21.8613127 C9.95651357,21.8613127 6.85536856,24.7978194 6.85536856,28.5500876 C6.85536856,31.4865943 8.48767366,33.9338787 11.0992054,34.7492492" id="Path" fill="url(#linearGradient-1)"></path>
                <path d="M21.0557189,80.9187678 L30.19608,80.9187678 L30.19608,75.8615163 L21.0557189,75.8615163 C15.5061163,75.8615163 11.0992054,80.2660808 11.0992054,85.812946 L11.0992054,89.8917533 C8.65074771,90.870198 6.85536856,93.3174821 6.85536856,96.0909149 C6.85536856,99.6801091 9.79343951,102.77969 13.547663,102.77969 C17.1384214,102.77969 20.2395664,99.843183 20.2395664,96.0909149 C20.2395664,93.3174821 18.6072613,91.0336629 16.1591947,90.0548272 L16.1591947,85.9760198 C15.9957296,83.2029786 18.2807221,80.9187678 21.0557189,80.9187678" id="Path" fill="url(#linearGradient-2)"></path>
                <path d="M6.85536856,69.6619636 C9.62997437,69.6619636 12.078432,68.0304403 13.0576586,65.5831562 L30.19608,65.5831562 L30.19608,60.5259042 L12.8945845,60.5259042 C11.9153579,58.0786196 9.46690026,56.4470969 6.69229445,56.4470969 C3.10114504,56.4474879 2.77868358e-15,59.3843857 2.77868358e-15,63.1366538 C0.165451602,66.798283 3.19003445,69.6774165 6.85536856,69.6625293" id="Path" fill="url(#linearGradient-3)"></path>
                <path d="M136.127753,40.1330403 L136.127753,34.9123232 C138.57582,33.9338787 140.37159,31.4865943 140.37159,28.7131617 C140.37159,25.1239676 137.433519,22.0243868 133.679295,22.0243868 C130.088537,22.0243868 126.987392,24.9608935 126.987392,28.7131617 C126.987392,31.4865943 128.619306,33.7704136 131.067764,34.7492492 L131.067764,40.1330403 C131.067764,42.9064729 128.782771,45.0272181 126.17124,45.0272181 L117.030878,45.0272181 L117.030878,50.0848611 L126.17124,50.0848611 C131.720451,50.0848611 136.127753,45.5168315 136.127753,40.1330403" id="Path" fill="url(#linearGradient-1)"></path>
                <path d="M131.230838,85.9760198 L131.230838,90.0548272 C128.782771,91.0336629 127.150466,93.4805565 127.150466,96.0909149 C127.150466,99.6801091 130.088537,102.77969 133.842761,102.77969 C137.433519,102.77969 140.534664,99.843183 140.534664,96.0909149 C140.534664,93.3174821 138.739285,90.870198 136.291218,89.8917533 L136.291218,85.812946 C136.291218,80.2660808 131.883916,75.8615163 126.334313,75.8615163 L117.193953,75.8615163 L117.193953,80.9187678 L126.334313,80.9187678 C128.945845,80.9187678 131.230838,83.2025875 131.230838,85.9760198" id="Path" fill="url(#linearGradient-2)"></path>
                <path d="M140.37159,56.4473169 C137.596984,56.4473169 135.148526,58.0786196 134.1693,60.5262953 L117.193953,60.5262953 L117.193953,65.5831562 L134.332374,65.5831562 C135.311601,68.0304403 137.760058,69.6619636 140.534664,69.6619636 C144.125813,69.6619636 147.226959,66.7250658 147.226959,62.9727978 C147.061106,59.3114126 144.036699,56.4326188 140.37159,56.4473169" id="Path" fill="url(#linearGradient-4)"></path>
                <path d="M42.4379771,93.8070957 L104.789372,93.8070957 C108.543205,93.8070957 111.480885,90.870198 111.480885,87.1183205 L111.480885,43.8853085 C111.480885,40.1330403 108.543205,37.1965336 104.788981,37.1965336 L98.7497654,37.1965336 L98.7497654,25.1243587 C98.7497654,11.2571956 87.487095,1.74556904e-15 73.6132835,1.74556904e-15 C59.7394726,1.74556904e-15 48.4771931,11.2568046 48.4771931,25.1239676 L48.4771931,37.1965336 L42.4379771,37.1965336 C38.6837536,37.1965336 35.7456827,40.1330403 35.7456827,43.8853085 L35.7456827,87.1183205 C35.7456827,90.870198 38.6837536,93.8070957 42.4379771,93.8070957 L42.4379771,93.8070957 Z M80.305578,78.4714837 C80.6321173,79.4503189 79.8159648,80.5926201 78.6732731,80.5926201 L68.7167594,80.5926201 C67.5744588,80.5926201 66.9213802,79.6133933 67.0844545,78.4714837 L69.5325208,68.8462022 C67.900607,67.5408272 66.9213802,65.5831562 66.9213802,63.4624109 C66.9213802,59.7101429 70.0225255,56.6105618 73.776749,56.6105618 C77.5309724,56.6105618 80.6321173,59.7101429 80.6321173,63.4624109 C80.6321173,65.7462301 79.6524999,67.7039011 78.0205856,68.8462022 L80.305578,78.4714837 Z M58.1071677,25.1239676 C58.1071677,16.4775216 65.1260009,9.62528155 73.6132835,9.62528155 C82.2644227,9.62528155 89.1193999,16.6405957 89.1193999,25.1239676 L89.1193999,37.1965336 L58.1071677,37.1965336 L58.1071677,25.1243587 L58.1071677,25.1239676 Z" id="Shape" fill="url(#linearGradient-5)"></path>
            </g>
            <g id="CRYPTO-LIB" transform="translate(171.430359, 49.158428)">
                <path d="M14.5601302,30.0556877 C10.5201685,30.0556877 7.08348978,28.6864389 4.25009385,25.9479415 C1.41669795,23.2094439 0,19.5761899 0,15.0481792 C0,10.5472824 1.43703333,6.91402827 4.31109999,4.14841697 C7.18516664,1.38280566 10.5879531,0 14.5194594,0 C17.9900304,0 20.8437617,0.881199682 23.0806532,2.64359905 C25.3175447,4.40599842 26.7884704,6.6428899 27.4934301,9.35427356 L22.8976348,10.8997622 C22.4366996,9.02890754 21.5012723,7.51053271 20.0913528,6.34463773 C18.6814333,5.17874275 16.8241355,4.59579527 14.5194594,4.59579527 C11.9436449,4.59579527 9.7135319,5.51088724 7.82912025,7.3410712 C5.94470865,9.17125515 5.00250282,11.7402912 5.00250282,15.0481792 C5.00250282,18.2747257 5.93793017,20.803091 7.80878487,22.6332749 C9.67963957,24.4634589 11.930088,25.3785509 14.5601302,25.3785509 C16.8105786,25.3785509 18.6678764,24.7684896 20.1320235,23.5483669 C21.5961707,22.3282443 22.5993827,20.8234263 23.1416593,19.0339131 L27.6154424,20.4980603 C26.9104827,23.1823301 25.4260001,25.4463355 23.1619948,27.2900764 C20.8979894,29.1338172 18.0307012,30.0556877 14.5601302,30.0556877 Z" id="Path" fill="url(#linearGradient-6)"></path>
                <path d="M47.1374046,29.4456263 L41.0774621,18.057815 L37.4984357,18.057815 L37.4984357,29.4456263 L32.5772745,29.4456263 L32.5772745,0.61006132 L43.6397197,0.61006132 C46.3511033,0.61006132 48.5337672,1.44381179 50.1877112,3.11131273 C51.8416551,4.77881367 52.6686272,6.85980062 52.6686272,9.35427356 C52.6686272,11.4149251 52.0856798,13.1773245 50.9197848,14.6414716 C49.7538898,16.1056188 48.1677304,17.0817169 46.1613065,17.569766 L52.6686272,29.4456263 L47.1374046,29.4456263 Z M37.4984357,13.746715 L42.7449631,13.746715 C44.2362241,13.746715 45.4360114,13.346786 46.3443249,12.5469278 C47.2526384,11.7470696 47.7067951,10.6828516 47.7067951,9.35427356 C47.7067951,7.99858175 47.2526384,6.92080674 46.3443249,6.12094858 C45.4360114,5.32109041 44.2362241,4.92116131 42.7449631,4.92116131 L37.4984357,4.92116131 L37.4984357,13.746715 Z" id="Shape" fill="url(#linearGradient-7)"></path>
                <polygon id="Path" fill="url(#linearGradient-8)" points="64.5038169 17.2444 54.4174698 0.61006132 60.1927166 0.61006132 67.1067449 12.6892755 74.0614441 0.61006132 79.5519958 0.61006132 69.3843074 17.2444 69.3843074 29.4456263 64.5038169 29.4456263"></polygon>
                <path d="M88.2962081,13.8687273 L93.3800528,13.8687273 C94.9255412,13.8687273 96.1388853,13.4687982 97.0200849,12.6689401 C97.9012846,11.8690819 98.3418847,10.7913069 98.3418847,9.43561505 C98.3418847,8.0528094 97.9012846,6.95469906 97.0200849,6.14128395 C96.1388853,5.32786884 94.9255412,4.92116131 93.3800528,4.92116131 L88.2962081,4.92116131 L88.2962081,13.8687273 Z M94.1121263,18.1798273 L88.2962081,18.1798273 L88.2962081,29.4456263 L83.4157176,29.4456263 L83.4157176,0.61006132 L94.1121263,0.61006132 C96.8506238,0.61006132 99.0671799,1.43703333 100.761794,3.09097735 C102.45641,4.74492137 103.303717,6.84624367 103.303717,9.3949443 C103.303717,11.9707588 102.45641,14.0788595 100.761794,15.7192467 C99.0671799,17.3596337 96.8506238,18.1798273 94.1121263,18.1798273 Z" id="Shape" fill="url(#linearGradient-9)"></path>
                <polygon id="Path" fill="url(#linearGradient-10)" points="128.600926 5.2058566 119.205982 5.2058566 119.205982 29.4456263 114.325491 29.4456263 114.325491 5.2058566 104.971218 5.2058566 104.971218 0.61006132 128.600926 0.61006132"></polygon>
                <path d="M137.792517,7.36140657 C135.894548,9.17803363 134.945564,11.7267343 134.945564,15.0075085 C134.945564,18.2882827 135.894548,20.8437617 137.792517,22.6739457 C139.690485,24.5041296 141.954491,25.4192216 144.584532,25.4192216 C147.214575,25.4192216 149.485358,24.5041296 151.396884,22.6739457 C153.308409,20.8437617 154.264172,18.2882827 154.264172,15.0075085 C154.264172,11.7267343 153.308409,9.17125515 151.396884,7.3410712 C149.485358,5.51088724 147.214575,4.59579527 144.584532,4.59579527 C141.954491,4.59579527 139.690485,5.51766572 137.792517,7.36140657 Z M132.017269,23.0603179 C130.634464,20.728528 129.943061,18.0442581 129.943061,15.0075085 C129.943061,11.9707588 130.641242,9.29326744 132.037605,6.97503444 C133.433967,4.6568014 135.230259,2.91473742 137.42648,1.74884245 C139.622701,0.582947483 142.008718,0 144.584532,0 C147.160347,0 149.546365,0.582947483 151.742585,1.74884245 C153.938806,2.91473742 155.741876,4.6568014 157.151796,6.97503444 C158.561715,9.29326744 159.266675,11.9707588 159.266675,15.0075085 C159.266675,18.0442581 158.561715,20.728528 157.151796,23.0603179 C155.741876,25.3921078 153.938806,27.1409502 151.742585,28.3068452 C149.546365,29.4727402 147.160347,30.0556877 144.584532,30.0556877 C142.008718,30.0556877 139.622701,29.4727402 137.42648,28.3068452 C135.230259,27.1409502 133.427189,25.3921078 132.017269,23.0603179 Z" id="Shape" fill="url(#linearGradient-11)"></path>
                <polygon id="Path" fill="url(#linearGradient-12)" points="192.616694 29.4456263 174.518208 29.4456263 174.518208 0.61006132 179.398698 0.61006132 179.398698 24.8091603 192.616694 24.8091603"></polygon>
                <polygon id="Path" fill="url(#linearGradient-13)" points="202.052309 29.4456263 197.090477 29.4456263 197.090477 0.61006132 202.052309 0.61006132"></polygon>
                <path d="M208.966337,0.61006132 L218.890001,0.61006132 C221.601385,0.61006132 223.743378,1.32857798 225.315981,2.76561131 C226.888583,4.20264465 227.674884,6.07349936 227.674884,8.37817546 C227.674884,9.86943645 227.281734,11.1641221 226.495433,12.2622325 C225.709131,13.3603429 224.678805,14.1398657 223.404455,14.6008009 C224.949944,15.0075085 226.19718,15.8344805 227.146165,17.0817169 C228.095149,18.3289534 228.569641,19.7931006 228.569641,21.4741584 C228.569641,23.8059484 227.742669,25.7174738 226.088725,27.2087348 C224.434781,28.6999959 222.279231,29.4456263 219.622075,29.4456263 L208.966337,29.4456263 L208.966337,0.61006132 Z M213.806157,12.8112877 L218.239269,12.8112877 C219.649189,12.8112877 220.760856,12.4452509 221.574271,11.7131773 C222.387686,10.9811037 222.794394,10.0050056 222.794394,8.78488302 C222.794394,7.5376465 222.380908,6.55476993 221.553936,5.83625331 C220.726964,5.11773662 219.581404,4.75847829 218.117257,4.75847829 L213.806157,4.75847829 L213.806157,12.8112877 Z M213.806157,25.2972094 L218.767989,25.2972094 C220.232136,25.2972094 221.40481,24.9243941 222.286009,24.1787636 C223.167209,23.4331331 223.607809,22.4231427 223.607809,21.1487924 C223.607809,19.8744421 223.194323,18.8508948 222.367351,18.0781504 C221.540379,17.3054061 220.394819,16.9190339 218.930672,16.9190339 L213.806157,16.9190339 L213.806157,25.2972094 Z" id="Shape" fill="url(#linearGradient-14)"></path>
            </g>
        </g>
    </g>
</svg>