<?xml version="1.0" encoding="UTF-8"?>
<svg width="246px" height="64" viewBox="0 0 246 64" version="1.1" xmlns="http://www.w3.org/2000/svg" xmlns:xlink="http://www.w3.org/1999/xlink">
    <title>crypto-cli-small</title>
    <defs>
        <linearGradient x1="50%" y1="23.0908939%" x2="50%" y2="94.501%" id="linearGradient-1">
            <stop stop-color="#66CDA9" offset="0%"></stop>
            <stop stop-color="#85D575" offset="100%"></stop>
        </linearGradient>
        <linearGradient x1="50%" y1="23.0908939%" x2="50%" y2="94.501%" id="linearGradient-2">
            <stop stop-color="#66CDA9" offset="0%"></stop>
            <stop stop-color="#85D575" offset="100%"></stop>
        </linearGradient>
        <linearGradient x1="50%" y1="23.0908939%" x2="50%" y2="94.501%" id="linearGradient-3">
            <stop stop-color="#66CDA9" offset="0%"></stop>
            <stop stop-color="#85D575" offset="100%"></stop>
        </linearGradient>
        <linearGradient x1="50%" y1="23.0908939%" x2="50%" y2="94.501%" id="linearGradient-4">
            <stop stop-color="#66CDA9" offset="0%"></stop>
            <stop stop-color="#85D575" offset="100%"></stop>
        </linearGradient>
        <linearGradient x1="50%" y1="23.0908939%" x2="50%" y2="94.501%" id="linearGradient-5">
            <stop stop-color="#66CDA9" offset="0%"></stop>
            <stop stop-color="#85D575" offset="100%"></stop>
        </linearGradient>
        <linearGradient x1="50%" y1="23.0908939%" x2="50%" y2="94.501%" id="linearGradient-6">
            <stop stop-color="#66CDA9" offset="0%"></stop>
            <stop stop-color="#85D575" offset="100%"></stop>
        </linearGradient>
        <linearGradient x1="50%" y1="23.0908939%" x2="50%" y2="94.501%" id="linearGradient-7">
            <stop stop-color="#66CDA9" offset="0%"></stop>
            <stop stop-color="#85D575" offset="100%"></stop>
        </linearGradient>
        <linearGradient x1="50%" y1="23.0908939%" x2="50%" y2="94.501%" id="linearGradient-8">
            <stop stop-color="#66CDA9" offset="0%"></stop>
            <stop stop-color="#85D575" offset="100%"></stop>
        </linearGradient>
        <linearGradient x1="50%" y1="23.0908939%" x2="50%" y2="94.501%" id="linearGradient-9">
            <stop stop-color="#66CDA9" offset="0%"></stop>
            <stop stop-color="#85D575" offset="100%"></stop>
        </linearGradient>
        <linearGradient x1="50%" y1="23.0908939%" x2="50%" y2="94.501%" id="linearGradient-10">
            <stop stop-color="#66CDA9" offset="0%"></stop>
            <stop stop-color="#85D575" offset="100%"></stop>
        </linearGradient>
        <linearGradient x1="50%" y1="23.0908939%" x2="50%" y2="94.501%" id="linearGradient-11">
            <stop stop-color="#66CDA9" offset="0%"></stop>
            <stop stop-color="#85D575" offset="100%"></stop>
        </linearGradient>
        <linearGradient x1="50%" y1="23.0908939%" x2="50%" y2="94.501%" id="linearGradient-12">
            <stop stop-color="#66CDA9" offset="0%"></stop>
            <stop stop-color="#85D575" offset="100%"></stop>
        </linearGradient>
        <linearGradient x1="50%" y1="23.0908939%" x2="50%" y2="94.501%" id="linearGradient-13">
            <stop stop-color="#66CDA9" offset="0%"></stop>
            <stop stop-color="#85D575" offset="100%"></stop>
        </linearGradient>
    </defs>
    <g id="Crypto-Service-Logos" stroke="none" stroke-width="1" fill="none" fill-rule="evenodd">
        <g id="Small-logos" transform="translate(-30.250000, 0.000000)" fill-rule="nonzero">
            <g id="crypto-cli-small" transform="translate(30.250000, 0.000000)">
                <g id="lock">
                    <path d="M6.74939122,21.1309071 L6.74939122,24.3056084 C6.74939122,27.6786394 9.42921962,30.3572787 12.8039152,30.3572787 L18.3621395,30.3572787 L18.3621395,27.2817423 L12.8039152,27.2817423 C11.1164485,27.2817423 9.82635454,25.8929591 9.82635454,24.3056084 L9.82635454,21.0317423 C11.315016,20.4365155 12.3076155,18.9485675 12.3076155,17.3612168 C12.3076155,15.1786394 10.5209839,13.2937942 8.23829046,13.2937942 C6.05452401,13.2937942 4.16872765,15.0794745 4.16872765,17.3612168 C4.16872765,19.1468971 5.16132714,20.6350829 6.74939122,21.1309071" id="Path" fill="url(#linearGradient-1)"></path>
                    <path d="M12.8039152,49.2064436 L18.3621395,49.2064436 L18.3621395,46.1311449 L12.8039152,46.1311449 C9.42921962,46.1311449 6.74939122,48.8095465 6.74939122,52.1825774 L6.74939122,54.6628871 C5.26049197,55.2578761 4.16872765,56.7460619 4.16872765,58.4325774 C4.16872765,60.6151549 5.95535918,62.5 8.23829046,62.5 C10.4218191,62.5 12.3076155,60.7143197 12.3076155,58.4325774 C12.3076155,56.7460619 11.315016,55.3572787 9.82635454,54.762052 L9.82635454,52.2817423 C9.72695191,50.5954646 11.1164485,49.2064436 12.8039152,49.2064436" id="Path" fill="url(#linearGradient-2)"></path>
                    <path d="M4.16872765,42.3612168 C5.85595655,42.3612168 7.34485579,41.3690929 7.94032037,39.8809071 L18.3621395,39.8809071 L18.3621395,36.8056084 L7.84115554,36.8056084 C7.24569097,35.3174226 5.75679172,34.3252987 4.06956282,34.3252987 C1.88579636,34.3255365 1.68970858e-15,36.1114546 1.68970858e-15,38.3931969 C0.100610589,40.6198218 1.93984973,42.3706137 4.16872765,42.3615258" id="Path" fill="url(#linearGradient-3)"></path>
                    <path d="M82.7788505,24.4047732 L82.7788505,21.2300719 C84.267512,20.6350829 85.3595141,19.1468971 85.3595141,17.4603816 C85.3595141,15.2778042 83.5728826,13.3929591 81.2899513,13.3929591 C79.1064226,13.3929591 77.2206263,15.1786394 77.2206263,17.4603816 C77.2206263,19.1468971 78.212988,20.5356803 79.7018872,21.1309071 L79.7018872,24.4047732 C79.7018872,26.0912887 78.3123906,27.3809071 76.7243265,27.3809071 L71.1661023,27.3809071 L71.1661023,30.4564436 L76.7243265,30.4564436 C80.0987843,30.4564436 82.7788505,27.6786394 82.7788505,24.4047732" id="Path" fill="url(#linearGradient-1)"></path>
                    <path d="M79.8010521,52.2817423 L79.8010521,54.762052 C78.3123906,55.3572787 77.3197911,56.8452268 77.3197911,58.4325774 C77.3197911,60.6151549 79.1064226,62.5 81.3893539,62.5 C83.5728826,62.5 85.4586789,60.7143197 85.4586789,58.4325774 C85.4586789,56.7460619 84.3669146,55.2578761 82.8782532,54.6628871 L82.8782532,52.1825774 C82.8782532,48.8095465 80.198187,46.1311449 76.8234914,46.1311449 L71.2652671,46.1311449 L71.2652671,49.2064436 L76.8234914,49.2064436 C78.4115554,49.2064436 79.8010521,50.5952268 79.8010521,52.2817423" id="Path" fill="url(#linearGradient-2)"></path>
                    <path d="M85.3595141,34.3254669 C83.6722852,34.3254669 82.183386,35.3174226 81.5879214,36.8058462 L71.2652671,36.8058462 L71.2652671,39.8809071 L81.6870862,39.8809071 C82.2825508,41.3690929 83.77145,42.3612168 85.4586789,42.3612168 C87.6424454,42.3612168 89.5282418,40.5752987 89.5282418,38.2935564 C89.4273876,36.0670799 87.5882553,34.3164947 85.3595141,34.3254669" id="Path" fill="url(#linearGradient-4)"></path>
                    <path d="M25.8063979,57.0437942 L63.7220817,57.0437942 C66.0047751,57.0437942 67.7911689,55.2578761 67.7911689,52.9763717 L67.7911689,26.6865155 C67.7911689,24.4047732 66.0047751,22.6190929 63.7218438,22.6190929 L60.049416,22.6190929 L60.049416,15.278042 C60.049416,6.84546458 53.2006221,-3.37941716e-15 44.764002,-3.37941716e-15 C36.3273819,-3.37941716e-15 29.4788258,6.84522677 29.4788258,15.2778042 L29.4788258,22.6190929 L25.8063979,22.6190929 C23.5234666,22.6190929 21.7368351,24.4047732 21.7368351,26.6865155 L21.7368351,52.9763717 C21.7368351,55.2578761 23.5234666,57.0437942 25.8063979,57.0437942 L25.8063979,57.0437942 Z M48.8335648,47.7182577 C49.0321323,48.3134845 48.5358325,49.0081139 47.8409653,49.0081139 L41.7864413,49.0081139 C41.0918119,49.0081139 40.694677,48.4126493 40.7938418,47.7182577 L42.2825032,41.8651549 C41.2901415,41.0713606 40.694677,39.8809071 40.694677,38.5912887 C40.694677,36.3095465 42.5804733,34.4247013 44.8634046,34.4247013 C47.1463359,34.4247013 49.0321323,36.3095465 49.0321323,38.5912887 C49.0321323,39.9800719 48.4364299,41.1705255 47.4440682,41.8651549 L48.8335648,47.7182577 Z M35.3347824,15.2778042 C35.3347824,10.0199281 39.6029126,5.85310288 44.764002,5.85310288 C50.0247318,5.85310288 54.1932216,10.1190929 54.1932216,15.2778042 L54.1932216,22.6190929 L35.3347824,22.6190929 L35.3347824,15.278042 L35.3347824,15.2778042 Z" id="Shape" fill="url(#linearGradient-5)"></path>
                </g>
                <g id="title" transform="translate(104.246252, 29.893083)">
                    <path d="M8.8539685,18.2767674 C6.39728078,18.2767674 4.30744743,17.4441316 2.58446846,15.7788601 C0.861489486,14.1135885 -1.35176687e-14,11.9042183 -1.35176687e-14,9.15074956 C-1.35176687e-14,6.41376861 0.873855364,4.20439845 2.62156609,2.52263907 C4.36927682,0.84087969 6.43850037,0 8.82923674,0 C10.9396799,0 12.6750247,0.535854704 14.0352713,1.60756411 C15.3955178,2.67927352 16.289983,4.03952008 16.7186668,5.68830378 L13.9239784,6.62811049 C13.6436852,5.49044974 13.0748548,4.56713086 12.2174873,3.85815387 C11.3601197,3.14917688 10.2307029,2.79468838 8.82923674,2.79468838 C7.26289222,2.79468838 5.90676762,3.35115288 4.76086295,4.46408188 C3.61495827,5.57701088 3.04200594,7.13923344 3.04200594,9.15074956 C3.04200594,11.1128022 3.61083631,12.650293 4.74849707,13.763222 C5.88615783,14.876151 7.2546483,15.4326155 8.8539685,15.4326155 C10.222459,15.4326155 11.3518758,15.0616391 12.242219,14.3196865 C13.1325622,13.5777338 13.7426122,12.6626589 14.0723689,11.5744616 L16.792862,12.4648048 C16.3641783,14.0971007 15.4614692,15.4738351 14.0847348,16.595008 C12.7080004,17.7161809 10.9644116,18.2767674 8.8539685,18.2767674 Z" id="Path" fill="url(#linearGradient-6)"></path>
                    <path d="M28.6641047,17.905791 L24.9790731,10.9808995 L22.8026786,10.9808995 L22.8026786,17.905791 L19.8101362,17.905791 L19.8101362,0.370976334 L26.5371737,0.370976334 C28.1859574,0.370976334 29.5132283,0.877977323 30.5189864,1.8919793 C31.5247444,2.90598128 32.0276235,4.17142277 32.0276235,5.68830378 C32.0276235,6.9413794 31.673135,8.01308881 30.964158,8.90343201 C30.255181,9.79377521 29.2906425,10.3873373 28.0705426,10.6841184 L32.0276235,17.905791 L28.6641047,17.905791 Z M22.8026786,8.35933338 L25.9930751,8.35933338 C26.8999061,8.35933338 27.6294929,8.11613779 28.1818355,7.62974659 C28.734178,7.1433554 29.0103493,6.4962078 29.0103493,5.68830378 C29.0103493,4.86391193 28.734178,4.20852041 28.1818355,3.72212921 C27.6294929,3.23573802 26.8999061,2.99254242 25.9930751,2.99254242 L22.8026786,2.99254242 L22.8026786,8.35933338 Z" id="Shape" fill="url(#linearGradient-7)"></path>
                    <polygon id="Path" fill="url(#linearGradient-8)" points="39.2245643 10.4862644 33.091089 0.370976334 36.6029982 0.370976334 40.8073967 7.71630774 45.0365269 0.370976334 48.3753139 0.370976334 42.192375 10.4862644 42.192375 17.905791 39.2245643 17.905791"></polygon>
                    <path d="M53.6926414,8.43352865 L56.7841108,8.43352865 C57.7239175,8.43352865 58.4617482,8.19033305 58.9976029,7.70394186 C59.5334576,7.21755067 59.801385,6.56215915 59.801385,5.73776729 C59.801385,4.8968876 59.5334576,4.2291302 58.9976029,3.73449509 C58.4617482,3.23985998 57.7239175,2.99254242 56.7841108,2.99254242 L53.6926414,2.99254242 L53.6926414,8.43352865 Z M57.2292824,11.0550947 L53.6926414,11.0550947 L53.6926414,17.905791 L50.7248307,17.905791 L50.7248307,0.370976334 L57.2292824,0.370976334 C58.8945539,0.370976334 60.2424346,0.873855364 61.2729244,1.87961342 C62.3034143,2.88537148 62.8186592,4.16317885 62.8186592,5.71303554 C62.8186592,7.27938006 62.3034143,8.56130939 61.2729244,9.55882353 C60.2424346,10.5563377 58.8945539,11.0550947 57.2292824,11.0550947 Z" id="Shape" fill="url(#linearGradient-9)"></path>
                    <polygon id="Path" fill="url(#linearGradient-10)" points="78.2018111 3.16566471 72.4887756 3.16566471 72.4887756 17.905791 69.5209649 17.905791 69.5209649 3.16566471 63.8326611 3.16566471 63.8326611 0.370976334 78.2018111 0.370976334"></polygon>
                    <path d="M83.7911879,4.47644776 C82.6370393,5.58113284 82.059965,7.13098952 82.059965,9.12601781 C82.059965,11.1210461 82.6370393,12.6750247 83.7911879,13.7879537 C84.9453365,14.9008827 86.3220709,15.4573472 87.9213911,15.4573472 C89.5207113,15.4573472 90.9015676,14.9008827 92.0639601,13.7879537 C93.2263526,12.6750247 93.8075489,11.1210461 93.8075489,9.12601781 C93.8075489,7.13098952 93.2263526,5.57701088 92.0639601,4.46408188 C90.9015676,3.35115288 89.5207113,2.79468838 87.9213911,2.79468838 C86.3220709,2.79468838 84.9453365,3.35527484 83.7911879,4.47644776 Z M80.2792786,14.0229054 C79.4383989,12.6049514 79.0179591,10.9726556 79.0179591,9.12601781 C79.0179591,7.27938006 79.4425209,5.65120615 80.2916445,4.24149608 C81.1407681,2.83178601 82.2330873,1.77244248 83.5686021,1.06346549 C84.9041169,0.354488497 86.3550465,0 87.9213911,0 C89.4877356,0 90.9386652,0.354488497 92.27418,1.06346549 C93.6096948,1.77244248 94.706136,2.83178601 95.5635035,4.24149608 C96.4208711,5.65120615 96.8495548,7.27938006 96.8495548,9.12601781 C96.8495548,10.9726556 96.4208711,12.6049514 95.5635035,14.0229054 C94.706136,15.4408594 93.6096948,16.5043249 92.27418,17.2133019 C90.9386652,17.9222789 89.4877356,18.2767674 87.9213911,18.2767674 C86.3550465,18.2767674 84.9041169,17.9222789 83.5686021,17.2133019 C82.2330873,16.5043249 81.1366461,15.4408594 80.2792786,14.0229054 Z" id="Shape" fill="url(#linearGradient-11)"></path>
                    <path d="M113.914466,18.2767674 C111.457778,18.2767674 109.367945,17.4441316 107.644966,15.7788601 C105.921987,14.1135885 105.060498,11.9042183 105.060498,9.15074956 C105.060498,6.41376861 105.934353,4.20439845 107.682064,2.52263907 C109.429774,0.84087969 111.498998,0 113.889734,0 C116.000178,0 117.735522,0.535854704 119.095769,1.60756411 C120.456016,2.67927352 121.350481,4.03952008 121.779164,5.68830378 L118.984476,6.62811049 C118.704183,5.49044974 118.135352,4.56713086 117.277985,3.85815387 C116.420617,3.14917688 115.291201,2.79468838 113.889734,2.79468838 C112.32339,2.79468838 110.967265,3.35115288 109.821361,4.46408188 C108.675456,5.57701088 108.102504,7.13923344 108.102504,9.15074956 C108.102504,11.1128022 108.671334,12.650293 109.808995,13.763222 C110.946656,14.876151 112.315146,15.4326155 113.914466,15.4326155 C115.282957,15.4326155 116.412373,15.0616391 117.302717,14.3196865 C118.19306,13.5777338 118.80311,12.6626589 119.132867,11.5744616 L121.85336,12.4648048 C121.424676,14.0971007 120.521967,15.4738351 119.145232,16.595008 C117.768498,17.7161809 116.024909,18.2767674 113.914466,18.2767674 Z" id="Path" fill="url(#linearGradient-6)"></path>
                    <polygon id="Path" fill="url(#linearGradient-12)" points="135.876265 17.905791 124.870634 17.905791 124.870634 0.370976334 127.838445 0.370976334 127.838445 15.0863709 135.876265 15.0863709"></polygon>
                    <polygon id="Path" fill="url(#linearGradient-13)" points="141.614032 17.905791 138.596758 17.905791 138.596758 0.370976334 141.614032 0.370976334"></polygon>
                </g>
            </g>
        </g>
    </g>
</svg>
