<svg width="320" height="160" xmlns="http://www.w3.org/2000/svg"><defs><linearGradient x1="50%" y1="94.501%" x2="50%" y2="0%" id="a"><stop stop-color="#861EFE" offset="0%"/><stop stop-color="#22ACFF" offset="100%"/></linearGradient><linearGradient x1="50%" y1="94.501%" x2="50%" y2="0%" id="b"><stop stop-color="#861EFE" offset="0%"/><stop stop-color="#22ACFF" offset="100%"/></linearGradient><linearGradient x1="50%" y1="94.501%" x2="50%" y2="0%" id="c"><stop stop-color="#861EFE" offset="0%"/><stop stop-color="#22ACFF" offset="100%"/></linearGradient><linearGradient x1="50%" y1="94.501%" x2="50%" y2="0%" id="d"><stop stop-color="#861EFE" offset="0%"/><stop stop-color="#22ACFF" offset="100%"/></linearGradient><linearGradient x1="50%" y1="94.501%" x2="50%" y2="0%" id="e"><stop stop-color="#861EFE" offset="0%"/><stop stop-color="#22ACFF" offset="100%"/></linearGradient><linearGradient x1="50%" y1="94.501%" x2="50%" y2="0%" id="f"><stop stop-color="#861EFE" offset="0%"/><stop stop-color="#22ACFF" offset="100%"/></linearGradient><linearGradient x1="50%" y1="94.501%" x2="50%" y2="0%" id="g"><stop stop-color="#861EFE" offset="0%"/><stop stop-color="#22ACFF" offset="100%"/></linearGradient></defs><g fill="none" fill-rule="evenodd"><path d="M0 0L320 0 320 160 0 160z"/><g transform="translate(10.5 48.75)" fill-rule="nonzero"><path d="M7.096 22.215v3.337a6.322 6.322 0 0 0 6.365 6.362h5.843V28.68H13.46c-1.774 0-3.13-1.46-3.13-3.129V22.11a4.198 4.198 0 0 0 2.608-3.859c0-2.294-1.878-4.276-4.278-4.276-2.296 0-4.279 1.878-4.279 4.276 0 1.878 1.044 3.442 2.714 3.964" fill="url(#a)"/><path d="M13.46 51.73h5.844v-3.233H13.46a6.322 6.322 0 0 0-6.365 6.362v2.607c-1.566.626-2.714 2.19-2.714 3.963 0 2.294 1.879 4.276 4.279 4.276 2.295 0 4.278-1.877 4.278-4.276 0-1.773-1.044-3.233-2.609-3.859v-2.607c-.104-1.773 1.357-3.233 3.13-3.233" fill="url(#b)"/><path d="M4.382 44.533c1.774 0 3.34-1.042 3.966-2.607h10.956v-3.233H8.244c-.627-1.564-2.192-2.607-3.966-2.607C1.983 36.086 0 37.963 0 40.362a4.369 4.369 0 0 0 4.382 4.171" fill="url(#c)"/><path d="M87.024 25.656V22.32c1.565-.626 2.713-2.19 2.713-3.963 0-2.295-1.879-4.276-4.278-4.276-2.296 0-4.279 1.877-4.279 4.276 0 1.773 1.044 3.233 2.61 3.859v3.441c0 1.773-1.462 3.129-3.131 3.129h-5.844v3.233h5.844c3.547 0 6.365-2.92 6.365-6.362" fill="url(#d)"/><path d="M83.893 54.963v2.607c-1.565.626-2.608 2.19-2.608 3.859 0 2.294 1.878 4.276 4.278 4.276 2.295 0 4.278-1.877 4.278-4.276 0-1.773-1.148-3.337-2.713-3.963v-2.607a6.322 6.322 0 0 0-6.365-6.362H74.92v3.233h5.843c1.67 0 3.13 1.46 3.13 3.233" fill="url(#b)"/><path d="M89.737 36.086c-1.774 0-3.34 1.043-3.965 2.607H74.92v3.233h10.956c.626 1.565 2.191 2.607 3.965 2.607 2.296 0 4.278-1.877 4.278-4.276a4.37 4.37 0 0 0-4.382-4.171" fill="url(#e)"/><path d="M27.13 59.969h39.86c2.4 0 4.278-1.877 4.278-4.276V28.055c0-2.399-1.879-4.276-4.278-4.276h-3.861v-7.718C63.129 7.196 55.929 0 47.059 0 38.19 0 30.99 7.196 30.99 16.061v7.718h-3.86c-2.4 0-4.278 1.877-4.278 4.276v27.638c0 2.399 1.878 4.276 4.278 4.276zm24.208-9.804c.208.626-.313 1.356-1.044 1.356H43.93c-.73 0-1.148-.626-1.043-1.356l1.565-6.153a4.4 4.4 0 0 1-1.67-3.442c0-2.399 1.983-4.38 4.383-4.38s4.382 1.981 4.382 4.38c0 1.46-.626 2.712-1.67 3.442l1.462 6.153zM37.147 16.061c0-5.527 4.487-9.908 9.913-9.908 5.53 0 9.912 4.485 9.912 9.908v7.718H37.147v-7.718z" fill="url(#f)"/></g><path d="M4.95 14.68c-1.346-1.345-2.018-2.967-2.018-4.867s.672-3.522 2.017-4.866c1.345-1.353 2.968-2.03 4.869-2.03 1.166 0 2.255.278 3.268.833V.551A9.89 9.89 0 0 0 9.818 0C7.11 0 4.797.959 2.878 2.877.96 4.795 0 7.107 0 9.813c0 2.706.96 5.019 2.878 6.936 1.919 1.918 4.232 2.877 6.94 2.877 1.12 0 2.21-.188 3.268-.564v-3.186a6.776 6.776 0 0 1-3.268.82c-1.9 0-3.524-.672-4.869-2.017zm13.328-6.265V3.118h4.182c.727 0 1.35.26 1.87.78.51.52.767 1.147.767 1.882 0 .726-.256 1.344-.767 1.855-.52.52-1.143.78-1.87.78h-4.182zm6.36 2.474a5.5 5.5 0 0 0 2.435-2.017 5.362 5.362 0 0 0 .955-3.092c0-1.541-.547-2.854-1.64-3.939C25.301.748 23.992.201 22.46.201h-7.102v19.237h2.919v-8.106h3.295l4.21 8.106h3.295l-4.438-8.55zM40.685.202l-4.075 6.91-4.075-6.91h-3.39l6 10.19v9.047h2.931v-9.047L44.074.202h-3.39zm7.949 8.213h4.183c.726 0 1.35-.26 1.87-.78.51-.51.766-1.129.766-1.855 0-.735-.256-1.362-.767-1.882a2.551 2.551 0 0 0-1.87-.78h-4.182v5.297zm0 11.023h-2.919V.202h7.102c1.533 0 2.842.546 3.927 1.64 1.094 1.084 1.641 2.397 1.641 3.939 0 1.532-.547 2.84-1.64 3.925-1.086 1.084-2.395 1.626-3.928 1.626h-4.183v8.106zM60.065.202v2.917h4.075v16.32h2.932V3.118h4.075V.202H60.065zm15.52 4.745c-1.344 1.344-2.017 2.966-2.017 4.866 0 1.9.673 3.522 2.018 4.866 1.345 1.345 2.968 2.017 4.868 2.017 1.901 0 3.524-.672 4.869-2.017 1.345-1.344 2.018-2.966 2.018-4.866 0-1.9-.673-3.522-2.018-4.866-1.345-1.345-2.968-2.017-4.869-2.017-1.9 0-3.523.672-4.868 2.017zm-2.07 11.803c-1.92-1.918-2.879-4.23-2.879-6.937 0-2.706.96-5.018 2.878-6.936C75.434.959 77.747 0 80.454 0c2.708 0 5.021.959 6.94 2.877 1.919 1.918 2.878 4.23 2.878 6.936 0 2.707-.96 5.019-2.878 6.937-1.919 1.918-4.232 2.877-6.94 2.877-2.707 0-5.02-.96-6.94-2.877zm30.974 2.863a7.52 7.52 0 0 1-3.524-1.022c-1.22-.708-2.049-1.657-2.488-2.85l2.743-1.008c.225.592.686 1.071 1.386 1.439a4.95 4.95 0 0 0 2.017.524c1.12.045 2.049-.229 2.784-.82.619-.502.946-1.075.982-1.72.054-1.228-1.233-2.21-3.86-2.945-4.116-1.156-6.11-3.114-5.985-5.874.08-1.936.91-3.383 2.488-4.342 1.202-.735 2.645-1.062 4.33-.982 2.045.09 3.686.802 4.923 2.138l-2.138 1.99c-.7-.754-1.672-1.157-2.919-1.21-.878-.036-1.627.076-2.246.335-.968.413-1.475 1.148-1.52 2.205-.053 1.21 1.233 2.182 3.86 2.917 2.368.663 4.044 1.64 5.03 2.93.682.897 1 1.887.955 2.972-.071 1.523-.762 2.814-2.07 3.871-1.22.977-2.682 1.466-4.385 1.466-.126 0-.247-.005-.363-.014zM113.634.202v19.236h9.818v-2.917h-6.9v-5.27h5.327V8.334h-5.326V3.12h6.9V.202h-9.819zm14.929 8.213V3.118h4.183c.726 0 1.35.26 1.87.78.51.52.766 1.147.766 1.882 0 .726-.256 1.344-.767 1.855-.52.52-1.143.78-1.87.78h-4.182zm6.361 2.474a5.5 5.5 0 0 0 2.435-2.017 5.363 5.363 0 0 0 .955-3.092c0-1.541-.547-2.854-1.641-3.939-1.085-1.093-2.394-1.64-3.928-1.64h-7.101v19.237h2.918v-8.106h3.296l4.21 8.106h3.294l-4.438-8.55zM140.936.202v19.236h3.578L155.852.202h-3.39l-8.593 14.585V.202h-2.933zm26.302 0v2.917h-6.9v5.215h5.326v2.917h-5.326v5.27h6.9v2.917h-9.818V.202h9.818zm9.257 0c1.534 0 2.843.546 3.928 1.64 1.094 1.084 1.64 2.397 1.64 3.938 0 1.13-.318 2.16-.954 3.092a5.5 5.5 0 0 1-2.435 2.017l4.438 8.55h-3.295l-4.21-8.107h-3.295v8.106h-2.918V.201h7.101zm0 2.916h-4.182v5.297h4.183c.726 0 1.35-.26 1.87-.78.51-.51.766-1.129.766-1.855 0-.735-.256-1.362-.767-1.882a2.55 2.55 0 0 0-1.87-.78z" transform="translate(123.25 71.75)" fill="url(#g)" fill-rule="nonzero"/></g></svg>