<svg height="50" viewBox="0 0 160 50" width="160" xmlns="http://www.w3.org/2000/svg" xmlns:xlink="http://www.w3.org/1999/xlink"><linearGradient id="a"><stop offset="0" stop-color="#861efe"/><stop offset="1" stop-color="#22acff"/></linearGradient><linearGradient id="b" x1="50.351763%" x2="50.351763%" xlink:href="#a" y1="94.502343%" y2="-.736137%"/><linearGradient id="c" x1="50.270201%" x2="50.270201%" xlink:href="#a" y1="95.615975%" y2="-.040816%"/><linearGradient id="d" x1="49.754483%" x2="49.754483%" xlink:href="#a" y1="94.651912%" y2="-.39695%"/><linearGradient id="e" x1="48.451178%" x2="48.451178%" xlink:href="#a" y1="94.840108%" y2="-.392533%"/><linearGradient id="f" x1="50.526566%" x2="50.526566%" xlink:href="#a" y1="95.639505%" y2="-.017287%"/><linearGradient id="g" x1="50.074906%" x2="50.074906%" xlink:href="#a" y1="94.651912%" y2="-.376838%"/><linearGradient id="h" x1="50.114735%" x2="50.114735%" xlink:href="#a" y1="94.520913%" y2="-.246152%"/><linearGradient id="i" x1="50.02636%" x2="50.02636%" xlink:href="#a" y1="93.533376%" y2=".795801%"/><g fill="none" fill-rule="evenodd"><path d="m0 0h160v50h-160z"/><g fill-rule="nonzero" transform="translate(6 9)"><path d="m3.5 11v1.7c0 1.7 1.4 3.2 3.1 3.2h2.9v-1.6h-2.8c-.9 0-1.6-.7-1.6-1.6v-1.7c.8-.3 1.3-1.1 1.3-1.9 0-1.1-.9-2.1-2.1-2.1-1.1 0-2.1.9-2.1 2.1-.1.9.5 1.7 1.3 1.9" fill="url(#b)"/><path d="m6.7 25.8h2.9v-1.6h-2.9c-1.7 0-3.2 1.4-3.2 3.1v1.3c-.8.3-1.4 1.1-1.4 2 0 1.1.9 2.1 2.1 2.1 1.1 0 2.1-.9 2.1-2.1 0-.9-.5-1.6-1.3-1.9v-1.3c.1-.9.8-1.6 1.7-1.6" fill="url(#c)"/><path d="m2.1 22.2c.9 0 1.7-.5 2-1.3h5.5v-1.6h-5.5c-.3-.8-1.1-1.3-2-1.3-1.1 0-2.1.9-2.1 2.1s1 2.1 2.1 2.1" fill="url(#d)"/><path d="m43.5 12.8v-1.7c.8-.3 1.4-1.1 1.4-2 0-1.1-.9-2.1-2.1-2.1-1.1 0-2.1.9-2.1 2.1 0 .9.5 1.6 1.3 1.9v1.7c0 .9-.7 1.6-1.6 1.6h-2.9v1.6h2.9c1.7 0 3.1-1.4 3.1-3.1" fill="url(#e)"/><path d="m41.9 27.4v1.3c-.8.3-1.3 1.1-1.3 1.9 0 1.1.9 2.1 2.1 2.1 1.1 0 2.1-.9 2.1-2.1 0-.9-.6-1.7-1.4-2v-1.2c0-1.7-1.4-3.2-3.1-3.2h-2.9v1.6h2.9c.9 0 1.6.7 1.6 1.6" fill="url(#f)"/><path d="m44.8 18c-.9 0-1.7.5-2 1.3h-5.4v1.6h5.5c.3.8 1.1 1.3 2 1.3 1.1 0 2.1-.9 2.1-2.1s-1-2.1-2.2-2.1" fill="url(#g)"/><path d="m13.5 29.9h19.9c1.2 0 2.1-.9 2.1-2.1v-13.8c0-1.2-.9-2.1-2.1-2.1h-1.9v-3.9c0-4.4-3.6-8-8-8s-8 3.6-8 8v3.9h-2c-1.2 0-2.1.9-2.1 2.1v13.8c0 1.2.9 2.1 2.1 2.1zm12.1-4.9c.1.3-.2.7-.5.7h-3.2c-.4 0-.6-.3-.5-.7l.8-3.1c-.5-.4-.8-1.1-.8-1.7 0-1.2 1-2.2 2.2-2.2s2.2 1 2.2 2.2c0 .7-.3 1.4-.8 1.7zm-7.1-17c0-2.8 2.2-5 5-5s5 2.2 5 5v3.9h-9.9v-3.9z" fill="url(#h)"/><path d="m59.5 19.4c-.7-.7-1-1.5-1-2.4 0-1 .3-1.8 1-2.4.7-.7 1.5-1 2.4-1 .6 0 1.1.1 1.6.4v-1.6c-.5-.2-1.1-.3-1.6-.3-1.4 0-2.5.5-3.5 1.4-1 1-1.4 2.1-1.4 3.5s.5 2.5 1.4 3.5c1 1 2.1 1.4 3.5 1.4.6 0 1.1-.1 1.6-.3v-1.6c-.5.3-1.1.4-1.6.4-.9 0-1.7-.3-2.4-1zm6.7-3.1v-2.6h2.1c.4 0 .7.1.9.4.3.3.4.6.4.9 0 .4-.1.7-.4.9-.3.3-.6.4-.9.4zm3.1 1.2c.5-.2.9-.6 1.2-1 .3-.5.5-1 .5-1.5 0-.8-.3-1.4-.8-2-.5-.5-1.2-.8-2-.8h-3.6v9.6h1.5v-4.1h1.6l2.1 4.1h1.6zm8.1-5.3-2 3.5-2-3.5h-1.7l3 5.1v4.5h1.5v-4.5l3-5.1zm3.9 4.1h2.1c.4 0 .7-.1.9-.4.3-.3.4-.6.4-.9 0-.4-.1-.7-.4-.9-.2-.3-.6-.4-.9-.4h-2.1zm0 5.5h-1.5v-9.6h3.6c.8 0 1.4.3 2 .8.5.5.8 1.2.8 2s-.3 1.4-.8 2c-.5.5-1.2.8-2 .8h-2.1zm5.8-9.6v1.5h2v8.2h1.5v-8.2h2v-1.5zm7.7 2.3c-.7.7-1 1.5-1 2.4s.3 1.8 1 2.4c.7.7 1.5 1 2.4 1 1 0 1.8-.3 2.4-1 .7-.7 1-1.5 1-2.4s-.3-1.8-1-2.4c-.7-.7-1.5-1-2.4-1s-1.7.4-2.4 1zm-1 5.9c-1-1-1.4-2.1-1.4-3.5s.5-2.5 1.4-3.5c1-1 2.1-1.4 3.5-1.4s2.5.5 3.5 1.4c1 1 1.4 2.1 1.4 3.5s-.5 2.5-1.4 3.5c-1 1-2.1 1.4-3.5 1.4-1.4.1-2.6-.4-3.5-1.4zm15.5 1.5c-.6 0-1.2-.2-1.8-.5-.6-.4-1-.8-1.2-1.4l1.4-.5c.1.3.3.5.7.7.3.2.7.2 1 .3.6 0 1-.1 1.4-.4.3-.3.5-.5.5-.9 0-.6-.6-1.1-1.9-1.5-2.1-.6-3.1-1.6-3-2.9 0-1 .5-1.7 1.2-2.2.6-.4 1.3-.5 2.2-.5 1 0 1.8.4 2.5 1.1l-1.1 1c-.4-.4-.8-.6-1.5-.6-.4 0-.8 0-1.1.2-.5.2-.7.6-.8 1.1 0 .6.6 1.1 1.9 1.5 1.2.3 2 .8 2.5 1.5.3.4.5.9.5 1.5 0 .8-.4 1.4-1 1.9s-1.3.7-2.2.7c-.1-.1-.2-.1-.2-.1zm4.5-9.7v9.6h4.9v-1.5h-3.4v-2.6h2.7v-1.5h-2.7v-2.6h3.4v-1.4zm7.5 4.1v-2.6h2.1c.4 0 .7.1.9.4.3.3.4.6.4.9 0 .4-.1.7-.4.9-.3.3-.6.4-.9.4zm3.2 1.2c.5-.2.9-.6 1.2-1 .3-.5.5-1 .5-1.5 0-.8-.3-1.4-.8-2-.5-.5-1.2-.8-2-.8h-3.6v9.6h1.5v-4.1h1.6l2.1 4.1h1.6zm3-5.3v9.6h1.8l5.7-9.6h-1.7l-4.3 7.3v-7.3zm13.1 0v1.5h-3.4v2.5h2.7v1.5h-2.7v2.6h3.4v1.5h-4.9v-9.6zm4.7 0c.8 0 1.4.3 2 .8.5.5.8 1.2.8 2 0 .6-.2 1.1-.5 1.5s-.7.8-1.2 1l2.2 4.3h-1.6l-2.1-4.1h-1.6v4.1h-1.5v-9.6zm0 1.4h-2.1v2.6h2.1c.4 0 .7-.1.9-.4.3-.3.4-.6.4-.9 0-.4-.1-.7-.4-.9-.2-.2-.6-.4-.9-.4z" fill="url(#i)"/></g></g></svg>