<svg height="640" viewBox="0 0 1372 640" width="1372" xmlns="http://www.w3.org/2000/svg" xmlns:xlink="http://www.w3.org/1999/xlink"><linearGradient id="a" x1="0%" x2="100%" y1="50%" y2="50%"><stop offset="0" stop-color="#9f310e"/><stop offset="1" stop-color="#e34912"/></linearGradient><g fill="none" fill-rule="evenodd"><path d="m0 0h1372v640h-1372z"/><g fill="url(#a)" fill-rule="nonzero"><g transform="translate(44 199)"><path d="m28.382 88.858v13.35c0 14.184 11.269 25.448 25.46 25.448h23.373v-12.933h-23.373c-7.096 0-12.521-5.84-12.521-12.515v-13.767c6.26-2.503 10.434-8.76 10.434-15.435 0-9.178-7.513-17.104-17.112-17.104-9.183 0-17.113 7.509-17.113 17.104 0 7.509 4.174 13.767 10.852 15.852"/><path d="m53.842 206.919h23.373v-12.932h-23.373c-14.191 0-25.46 11.263-25.46 25.447v10.43c-6.261 2.502-10.852 8.76-10.852 15.852 0 9.178 7.513 17.104 17.113 17.104 9.182 0 17.112-7.509 17.112-17.104 0-7.092-4.174-12.932-10.434-15.435v-10.43c-.418-7.091 5.425-12.932 12.521-12.932"/><path d="m17.53 178.134c7.095 0 13.356-4.172 15.86-10.43h43.825v-12.932h-44.242c-2.504-6.258-8.765-10.43-15.86-10.43-9.183.001-17.113 7.511-17.113 17.106.4230796 9.363225 8.15730089 16.725515 17.53 16.687447"/><path d="m348.095 102.625v-13.35c6.26-2.502 10.852-8.76 10.852-15.852 0-9.178-7.513-17.104-17.113-17.104-9.182 0-17.112 7.509-17.112 17.104 0 7.092 4.173 12.932 10.434 15.435v13.767c0 7.092-5.843 12.515-12.521 12.515h-23.373v12.933h23.373c14.19 0 25.46-11.681 25.46-25.448"/><path d="m335.573 219.851v10.43c-6.26 2.503-10.434 8.76-10.434 15.435 0 9.178 7.513 17.104 17.113 17.104 9.182 0 17.112-7.509 17.112-17.104 0-7.092-4.591-13.35-10.851-15.852v-10.43c0-14.184-11.27-25.447-25.461-25.447h-23.373v12.932h23.373c6.678 0 12.521 5.84 12.521 12.932"/><path d="m358.947 144.342564c-7.095 0-13.356 4.171436-15.86 10.430436h-43.408v12.931h43.825c2.504 6.258 8.765 10.43 15.86 10.43 9.183 0 17.113-7.51 17.113-17.105-.424104-9.362601-8.157876-16.724022-17.53-16.686436"/><path d="m108.519 239.876h159.44c9.599 0 17.111-7.51 17.111-17.104v-110.552c0-9.595-7.512-17.104-17.112-17.104h-15.443v-30.87c0-35.46-28.8-64.246-64.277-64.246s-64.276 28.785-64.276 64.245v30.871h-15.443c-9.6 0-17.113 7.509-17.113 17.104v110.552c0 9.594 7.513 17.104 17.113 17.104zm96.832-39.215c.835 2.503-1.252 5.424-4.174 5.424h-25.46c-2.921 0-4.591-2.504-4.174-5.424l6.26-24.613c-4.173-3.338-6.677-8.344-6.677-13.767 0-9.595 7.93-17.521 17.53-17.521s17.53 7.926 17.53 17.521c0 5.84-2.505 10.846-6.678 13.767zm-56.764-136.416c0-22.11 17.948-39.632 39.651-39.632 22.122 0 39.651 17.939 39.651 39.632v30.871h-79.302v-30.87z"/></g><g transform="translate(482.368 324.704)"><path d="m37.232 76.856c-10.3306667 0-19.1186667-3.5013333-26.364-10.504-7.24533333-7.0026667-10.868-16.2933333-10.868-27.872 0-11.5093333 3.67466667-20.8 11.024-27.872 7.3493333-7.072 16.0506667-10.608 26.104-10.608 8.8746667 0 16.172 2.25333333 21.892 6.76 5.72 4.5066667 9.4813333 10.2266667 11.284 17.16l-11.752 3.952c-1.1786667-4.784-3.5706667-8.6666667-7.176-11.648s-8.3546667-4.472-14.248-4.472c-6.5866667 0-12.2893333 2.34-17.108 7.02s-7.228 11.2493333-7.228 19.708c0 8.2506667 2.392 14.716 7.176 19.396s10.5386667 7.02 17.264 7.02c5.7546667 0 10.504-1.56 14.248-4.68s6.3093333-6.968 7.696-11.544l11.44 3.744c-1.8026667 6.864-5.5986667 12.6533333-11.388 17.368s-13.1213333 7.072-21.996 7.072z"/><path d="m120.536 75.296-15.496-29.12h-9.152v29.12h-12.584v-73.736h28.288c6.933333 0 12.514667 2.132 16.744 6.396s6.344 9.5853333 6.344 15.964c0 5.2693333-1.490667 9.776-4.472 13.52s-7.037333 6.24-12.168 7.488l16.64 30.368zm-24.648-40.144h13.416c3.813333 0 6.881333-1.0226667 9.204-3.068s3.484-4.7666667 3.484-8.164c0-3.4666667-1.161333-6.2226667-3.484-8.268s-5.390667-3.068-9.204-3.068h-13.416z"/><path d="m164.944 44.096-25.792-42.536h14.768l17.68 30.888 17.784-30.888h14.04l-26 42.536v31.2h-12.48z"/><path d="m225.784 35.464h13c3.952 0 7.054667-1.0226667 9.308-3.068s3.38-4.8013333 3.38-8.268c0-3.536-1.126667-6.344-3.38-8.424s-5.356-3.12-9.308-3.12h-13zm14.872 11.024h-14.872v28.808h-12.48v-73.736h27.352c7.002667 0 12.670667 2.11466667 17.004 6.344 4.333333 4.2293333 6.5 9.6026667 6.5 16.12 0 6.5866667-2.166667 11.9773333-6.5 16.172s-10.001333 6.292-17.004 6.292z"/><path d="m328.848 13.312h-24.024v61.984h-12.48v-61.984h-23.92v-11.752h60.424z"/><path d="m352.352 18.824c-4.853333 4.6453333-7.28 11.1626667-7.28 19.552s2.426667 14.924 7.28 19.604 10.642667 7.02 17.368 7.02 12.532-2.34 17.42-7.02 7.332-11.2146667 7.332-19.604-2.444-14.924-7.332-19.604-10.694667-7.02-17.42-7.02-12.514667 2.3573333-17.368 7.072zm-14.768 40.144c-3.536-5.9626667-5.304-12.8266667-5.304-20.592s1.785333-14.612 5.356-20.54 8.164-10.38266667 13.78-13.364 11.717333-4.472 18.304-4.472 12.688 1.49066667 18.304 4.472 10.226667 7.436 13.832 13.364 5.408 12.7746667 5.408 20.54-1.802667 14.6293333-5.408 20.592-8.216 10.4346667-13.832 13.416-11.717333 4.472-18.304 4.472-12.688-1.4906667-18.304-4.472-10.226667-7.4533333-13.832-13.416z"/><path d="m494.728 18.824-11.232 3.536c-.485333-2.8426667-1.906667-5.4426667-4.264-7.8s-5.754667-3.536-10.192-3.536c-3.674667 0-6.708 1.04-9.1 3.12s-3.588 4.576-3.588 7.488c0 5.0613333 2.877333 8.216 8.632 9.464l10.608 2.184c6.378667 1.248 11.301333 3.7786667 14.768 7.592s5.2 8.3546667 5.2 13.624c0 6.1013333-2.34 11.3533333-7.02 15.756s-11.041333 6.604-19.084 6.604c-8.666667 0-15.426667-2.2706667-20.28-6.812s-7.592-9.828-8.216-15.86l11.648-3.328c.416 4.16 2.08 7.6613333 4.992 10.504s6.864 4.264 11.856 4.264c4.298667 0 7.609333-.9533333 9.932-2.86s3.484-4.3506667 3.484-7.332c0-2.4266667-.866667-4.524-2.6-6.292s-4.16-2.9986667-7.28-3.692l-10.4-2.184c-5.754667-1.1786667-10.313333-3.5706667-13.676-7.176s-5.044-8.112-5.044-13.52c0-6.1706667 2.461333-11.4746667 7.384-15.912 4.922667-4.43733333 10.816-6.656 17.68-6.656 7.834667 0 13.832 1.88933333 17.992 5.668s6.76 8.164 7.8 13.156z"/><path d="m554.112 75.296h-45.552v-73.736h45.552v11.648h-33.072v19.552h29.952v11.336h-29.952v19.552h33.072z"/><path d="m606.32 75.296-15.496-29.12h-9.152v29.12h-12.584v-73.736h28.288c6.933333 0 12.514667 2.132 16.744 6.396s6.344 9.5853333 6.344 15.964c0 5.2693333-1.490667 9.776-4.472 13.52s-7.037333 6.24-12.168 7.488l16.64 30.368zm-24.648-40.144h13.416c3.813333 0 6.881333-1.0226667 9.204-3.068s3.484-4.7666667 3.484-8.164c0-3.4666667-1.161333-6.2226667-3.484-8.268s-5.390667-3.068-9.204-3.068h-13.416z"/><path d="m659.568 58.968 20.696-57.408h13.208l-27.872 73.736h-12.688l-27.456-73.736h13.52z"/><path d="m716.04 75.296h-12.688v-73.736h12.688z"/><path d="m766.48 76.856c-10.330667 0-19.118667-3.5013333-26.364-10.504s-10.868-16.2933333-10.868-27.872c0-11.5093333 3.674667-20.8 11.024-27.872s16.050667-10.608 26.104-10.608c8.874667 0 16.172 2.25333333 21.892 6.76 5.72 4.5066667 9.481333 10.2266667 11.284 17.16l-11.752 3.952c-1.178667-4.784-3.570667-8.6666667-7.176-11.648s-8.354667-4.472-14.248-4.472c-6.586667 0-12.289333 2.34-17.108 7.02s-7.228 11.2493333-7.228 19.708c0 8.2506667 2.392 14.716 7.176 19.396s10.538667 7.02 17.264 7.02c5.754667 0 10.504-1.56 14.248-4.68s6.309333-6.968 7.696-11.544l11.44 3.744c-1.802667 6.864-5.598667 12.6533333-11.388 17.368s-13.121333 7.072-21.996 7.072z"/><path d="m858.104 75.296h-45.552v-73.736h45.552v11.648h-33.072v19.552h29.952v11.336h-29.952v19.552h33.072z"/></g></g></g></svg>