<svg width="309" height="63" xmlns="http://www.w3.org/2000/svg"><defs><linearGradient x1="0%" y1="50%" y2="50%" id="a"><stop stop-color="#9F310E" offset="0%"/><stop stop-color="#E34912" offset="100%"/></linearGradient><linearGradient x1="0%" y1="50%" y2="50%" id="b"><stop stop-color="#9F310E" offset="0%"/><stop stop-color="#E34912" offset="100%"/></linearGradient><linearGradient x1="0%" y1="50%" y2="50%" id="c"><stop stop-color="#9F310E" offset="0%"/><stop stop-color="#E34912" offset="100%"/></linearGradient><linearGradient x1="0%" y1="50%" y2="50%" id="d"><stop stop-color="#9F310E" offset="0%"/><stop stop-color="#E34912" offset="100%"/></linearGradient><linearGradient x1="0%" y1="50%" y2="50%" id="e"><stop stop-color="#9F310E" offset="0%"/><stop stop-color="#E34912" offset="100%"/></linearGradient><linearGradient x1="0%" y1="50%" y2="50%" id="f"><stop stop-color="#9F310E" offset="0%"/><stop stop-color="#E34912" offset="100%"/></linearGradient><linearGradient x1="0%" y1="50%" y2="50%" id="g"><stop stop-color="#9F310E" offset="0%"/><stop stop-color="#E34912" offset="100%"/></linearGradient><linearGradient x1="0%" y1="50%" y2="50%" id="h"><stop stop-color="#9F310E" offset="0%"/><stop stop-color="#E34912" offset="100%"/></linearGradient><linearGradient x1="0%" y1="50%" y2="50%" id="i"><stop stop-color="#9F310E" offset="0%"/><stop stop-color="#E34912" offset="100%"/></linearGradient><linearGradient x1="0%" y1="50%" y2="50%" id="j"><stop stop-color="#9F310E" offset="0%"/><stop stop-color="#E34912" offset="100%"/></linearGradient><linearGradient x1="0%" y1="50%" y2="50%" id="k"><stop stop-color="#9F310E" offset="0%"/><stop stop-color="#E34912" offset="100%"/></linearGradient><linearGradient x1="0%" y1="50%" y2="50%" id="l"><stop stop-color="#9F310E" offset="0%"/><stop stop-color="#E34912" offset="100%"/></linearGradient><linearGradient x1="0%" y1="50%" y2="50%" id="m"><stop stop-color="#9F310E" offset="0%"/><stop stop-color="#E34912" offset="100%"/></linearGradient><linearGradient x1="0%" y1="50%" y2="50%" id="n"><stop stop-color="#9F310E" offset="0%"/><stop stop-color="#E34912" offset="100%"/></linearGradient><linearGradient x1="0%" y1="50%" y2="50%" id="o"><stop stop-color="#9F310E" offset="0%"/><stop stop-color="#E34912" offset="100%"/></linearGradient></defs><g fill="none"><g><path d="M6.75 21.13v3.176a6.014 6.014 0 0 0 6.054 6.051h5.558v-3.075h-5.558c-1.688 0-2.978-1.389-2.978-2.976v-3.274a3.993 3.993 0 0 0 2.482-3.67c0-2.183-1.787-4.068-4.07-4.068-2.183 0-4.07 1.785-4.07 4.067 0 1.786.993 3.274 2.581 3.77" fill="url(#a)"/><path d="M12.804 49.206h5.558v-3.075h-5.558a6.014 6.014 0 0 0-6.055 6.052v2.48c-1.489.595-2.58 2.083-2.58 3.77 0 2.182 1.786 4.067 4.07 4.067 2.183 0 4.069-1.786 4.069-4.067a3.893 3.893 0 0 0-2.482-3.67v-2.481c-.099-1.687 1.29-3.076 2.978-3.076" fill="url(#b)"/><path d="M4.169 42.361c1.687 0 3.176-.992 3.771-2.48h10.422v-3.075H7.842c-.596-1.489-2.085-2.48-3.772-2.48-2.184 0-4.07 1.785-4.07 4.067a4.156 4.156 0 0 0 4.169 3.969" fill="url(#c)"/><path d="M82.779 24.405V21.23c1.489-.595 2.58-2.083 2.58-3.77 0-2.182-1.786-4.067-4.069-4.067-2.184 0-4.07 1.786-4.07 4.067 0 1.687.993 3.076 2.482 3.67v3.275c0 1.686-1.39 2.976-2.978 2.976h-5.558v3.075h5.558c3.375 0 6.055-2.777 6.055-6.051" fill="url(#a)"/><path d="M79.801 52.282v2.48a3.993 3.993 0 0 0-2.481 3.67c0 2.183 1.786 4.068 4.07 4.068 2.183 0 4.069-1.786 4.069-4.067 0-1.687-1.092-3.175-2.58-3.77v-2.48a6.014 6.014 0 0 0-6.056-6.052h-5.558v3.075h5.558c1.589 0 2.978 1.39 2.978 3.076" fill="url(#b)"/><path d="M85.36 34.325c-1.688 0-3.177.992-3.772 2.48H71.265v3.076h10.422c.596 1.488 2.084 2.48 3.772 2.48 2.183 0 4.07-1.786 4.07-4.067a4.156 4.156 0 0 0-4.17-3.969" fill="url(#d)"/><path d="M25.806 57.044h37.916c2.283 0 4.07-1.786 4.07-4.068v-26.29c0-2.281-1.787-4.067-4.07-4.067h-3.673v-7.341C60.05 6.845 53.201 0 44.764 0c-8.437 0-15.285 6.845-15.285 15.278v7.341h-3.673c-2.283 0-4.07 1.786-4.07 4.068v26.29c0 2.28 1.787 4.067 4.07 4.067zm23.028-9.326c.198.595-.298 1.29-.993 1.29h-6.055c-.694 0-1.091-.595-.992-1.29l1.489-5.853a4.186 4.186 0 0 1-1.588-3.274c0-2.281 1.885-4.166 4.168-4.166 2.283 0 4.17 1.885 4.17 4.166 0 1.39-.597 2.58-1.589 3.274l1.39 5.853zm-13.5-32.44c0-5.258 4.269-9.425 9.43-9.425 5.26 0 9.43 4.266 9.43 9.425v7.341h-18.86v-7.341z" fill="url(#e)"/></g><g transform="translate(104.246 29.893)"><path d="M8.854 18.277c-2.457 0-4.547-.833-6.27-2.498C.861 14.114 0 11.904 0 9.15c0-2.737.874-4.947 2.622-6.628C4.369.84 6.439 0 8.829 0c2.11 0 3.846.536 5.206 1.608 1.36 1.071 2.255 2.432 2.684 4.08l-2.795.94c-.28-1.138-.85-2.06-1.707-2.77-.857-.709-1.986-1.063-3.388-1.063-1.566 0-2.922.556-4.068 1.67C3.615 5.576 3.042 7.138 3.042 9.15c0 1.962.569 3.5 1.706 4.612 1.138 1.113 2.507 1.67 4.106 1.67 1.368 0 2.498-.371 3.388-1.113a5.634 5.634 0 0 0 1.83-2.746l2.72.89c-.428 1.633-1.33 3.01-2.707 4.131-1.377 1.121-3.12 1.682-5.231 1.682z" fill="url(#f)"/><path d="M28.664 17.906L24.98 10.98h-2.176v6.925H19.81V.37h6.727c1.649 0 2.976.507 3.982 1.521 1.006 1.014 1.509 2.28 1.509 3.796 0 1.253-.355 2.325-1.064 3.215-.709.89-1.673 1.484-2.893 1.781l3.957 7.222h-3.364zm-5.861-9.547h3.19c.907 0 1.636-.243 2.189-.73.552-.486.828-1.133.828-1.94 0-.825-.276-1.48-.828-1.967-.553-.486-1.282-.73-2.189-.73h-3.19V8.36z" fill="url(#g)"/><path fill="url(#h)" d="M39.2245643 10.4862644L33.091089 0.370976334 36.6029982 0.370976334 40.8073967 7.71630774 45.0365269 0.370976334 48.3753139 0.370976334 42.192375 10.4862644 42.192375 17.905791 39.2245643 17.905791z"/><path d="M53.693 8.434h3.091c.94 0 1.678-.244 2.214-.73.535-.486.803-1.142.803-1.966 0-.841-.268-1.509-.803-2.004-.536-.494-1.274-.741-2.214-.741h-3.091v5.44zm3.536 2.621h-3.536v6.85h-2.968V.372h6.504c1.666 0 3.013.503 4.044 1.509 1.03 1.005 1.546 2.283 1.546 3.833 0 1.566-.516 2.848-1.546 3.846-1.03.997-2.378 1.496-4.044 1.496z" fill="url(#i)"/><path fill="url(#j)" d="M78.2018111 3.16566471L72.4887756 3.16566471 72.4887756 17.905791 69.5209649 17.905791 69.5209649 3.16566471 63.8326611 3.16566471 63.8326611 0.370976334 78.2018111 0.370976334z"/><path d="M83.791 4.476c-1.154 1.105-1.731 2.655-1.731 4.65 0 1.995.577 3.549 1.731 4.662 1.154 1.113 2.531 1.67 4.13 1.67 1.6 0 2.98-.557 4.143-1.67 1.162-1.113 1.744-2.667 1.744-4.662s-.582-3.549-1.744-4.662-2.543-1.67-4.143-1.67c-1.599 0-2.976.561-4.13 1.682zm-3.512 9.547c-.84-1.418-1.261-3.05-1.261-4.897 0-1.847.425-3.475 1.274-4.885.849-1.41 1.941-2.469 3.277-3.178C84.904.354 86.355 0 87.92 0c1.567 0 3.018.354 4.353 1.063 1.336.71 2.432 1.769 3.29 3.178.857 1.41 1.286 3.038 1.286 4.885s-.43 3.479-1.286 4.897c-.858 1.418-1.954 2.481-3.29 3.19-1.335.71-2.786 1.064-4.353 1.064-1.566 0-3.017-.355-4.352-1.064-1.336-.709-2.432-1.772-3.29-3.19z" fill="url(#k)"/><path d="M117.649 4.476l-2.671.841c-.115-.676-.453-1.294-1.014-1.855-.56-.56-1.369-.84-2.424-.84-.874 0-1.595.247-2.164.742-.569.494-.853 1.088-.853 1.78 0 1.204.684 1.954 2.053 2.25l2.522.52c1.517.297 2.688.899 3.512 1.806.825.906 1.237 1.986 1.237 3.24 0 1.45-.557 2.7-1.67 3.746-1.113 1.047-2.625 1.57-4.538 1.57-2.06 0-3.668-.54-4.823-1.62-1.154-1.08-1.805-2.336-1.953-3.77l2.77-.792c.099.99.494 1.822 1.187 2.498.692.676 1.632 1.014 2.82 1.014 1.021 0 1.809-.227 2.361-.68.552-.454.829-1.035.829-1.744 0-.577-.207-1.076-.619-1.496-.412-.42-.989-.713-1.731-.878l-2.473-.52c-1.369-.28-2.453-.849-3.252-1.706-.8-.857-1.2-1.93-1.2-3.215 0-1.468.585-2.729 1.756-3.784C108.481.528 109.883 0 111.515 0c1.864 0 3.29.45 4.28 1.348.988.898 1.607 1.941 1.854 3.128z" fill="url(#l)"/><path fill="url(#m)" d="M131.770794 17.905791L120.938285 17.905791 120.938285 0.370976334 131.770794 0.370976334 131.770794 3.14093296 123.906095 3.14093296 123.906095 7.79050301 131.028841 7.79050301 131.028841 10.4862644 123.906095 10.4862644 123.906095 15.1358344 131.770794 15.1358344z"/><path d="M144.186 17.906l-3.685-6.925h-2.176v6.925h-2.993V.37h6.727c1.649 0 2.976.507 3.982 1.521 1.006 1.014 1.509 2.28 1.509 3.796 0 1.253-.355 2.325-1.064 3.215-.709.89-1.673 1.484-2.893 1.781l3.957 7.222h-3.364zm-5.861-9.547h3.19c.907 0 1.637-.243 2.189-.73.552-.486.828-1.133.828-1.94 0-.825-.276-1.48-.828-1.967-.552-.486-1.282-.73-2.189-.73h-3.19V8.36z" fill="url(#g)"/><path fill="url(#n)" d="M156.848794 14.0229054L161.770413 0.370976334 164.911346 0.370976334 158.283236 17.905791 155.265961 17.905791 148.736778 0.370976334 151.951906 0.370976334z"/><path fill="url(#o)" d="M170.278137 17.905791L167.260863 17.905791 167.260863 0.370976334 170.278137 0.370976334z"/><path d="M182.273 18.277c-2.457 0-4.546-.833-6.27-2.498-1.722-1.665-2.584-3.875-2.584-6.628 0-2.737.874-4.947 2.622-6.628C177.788.84 179.858 0 182.248 0c2.11 0 3.846.536 5.206 1.608 1.36 1.071 2.255 2.432 2.684 4.08l-2.795.94c-.28-1.138-.85-2.06-1.706-2.77-.858-.709-1.987-1.063-3.389-1.063-1.566 0-2.922.556-4.068 1.67-1.146 1.112-1.719 2.674-1.719 4.686 0 1.962.569 3.5 1.707 4.612 1.137 1.113 2.506 1.67 4.105 1.67 1.369 0 2.498-.371 3.388-1.113a5.634 5.634 0 0 0 1.83-2.746l2.72.89c-.428 1.633-1.33 3.01-2.707 4.131-1.377 1.121-3.12 1.682-5.231 1.682z" fill="url(#f)"/><path fill="url(#m)" d="M204.061715 17.905791L193.229206 17.905791 193.229206 0.370976334 204.061715 0.370976334 204.061715 3.14093296 196.197017 3.14093296 196.197017 7.79050301 203.319763 7.79050301 203.319763 10.4862644 196.197017 10.4862644 196.197017 15.1358344 204.061715 15.1358344z"/></g></g></svg>