<svg width="400" height="200" xmlns="http://www.w3.org/2000/svg"><defs><linearGradient x1="50%" y1="100%" x2="50%" y2="0%" id="a"><stop stop-color="#D676EB" offset="0%"/><stop stop-color="#8227FF" offset="100%"/></linearGradient><linearGradient x1="50%" y1="100%" x2="50%" y2="0%" id="b"><stop stop-color="#D676EB" offset="0%"/><stop stop-color="#8227FF" offset="100%"/></linearGradient><linearGradient x1="50%" y1="100%" x2="50%" y2="0%" id="c"><stop stop-color="#D676EB" offset="0%"/><stop stop-color="#8227FF" offset="100%"/></linearGradient><linearGradient x1="50%" y1="100%" x2="50%" y2="0%" id="d"><stop stop-color="#D676EB" offset="0%"/><stop stop-color="#8227FF" offset="100%"/></linearGradient><linearGradient x1="50%" y1="100%" x2="50%" y2="0%" id="e"><stop stop-color="#D676EB" offset="0%"/><stop stop-color="#8227FF" offset="100%"/></linearGradient><linearGradient x1="50%" y1="100%" x2="50%" y2="0%" id="f"><stop stop-color="#D676EB" offset="0%"/><stop stop-color="#8227FF" offset="100%"/></linearGradient><linearGradient x1="50%" y1="100%" x2="50%" y2="0%" id="g"><stop stop-color="#D676EB" offset="0%"/><stop stop-color="#8227FF" offset="100%"/></linearGradient><linearGradient x1="50%" y1="100%" x2="50%" y2="0%" id="h"><stop stop-color="#D676EB" offset="0%"/><stop stop-color="#8227FF" offset="100%"/></linearGradient></defs><g fill="none" fill-rule="evenodd"><path d="M0 0L400 0 400 200 0 200z"/><g transform="translate(11.445 58.946)" fill-rule="nonzero"><path d="M8.87 27.769v4.171a7.903 7.903 0 0 0 7.955 7.953h7.305V35.85h-7.305c-2.217 0-3.912-1.825-3.912-3.911v-4.303a5.247 5.247 0 0 0 3.26-4.822c0-2.869-2.35-5.345-5.348-5.345-2.87 0-5.347 2.346-5.347 5.344 0 2.347 1.303 4.302 3.39 4.953" fill="url(#a)"/><path d="M16.825 64.662h7.305v-4.04h-7.305a7.903 7.903 0 0 0-7.956 7.95v3.26c-1.958.783-3.391 2.738-3.391 4.954 0 2.868 2.347 5.345 5.347 5.345 2.869 0 5.348-2.346 5.348-5.345 0-2.216-1.305-4.041-3.262-4.823v-3.26c-.13-2.216 1.697-4.04 3.913-4.04" fill="url(#b)"/><path d="M5.479 55.666c2.216 0 4.172-1.303 4.956-3.258H24.13v-4.042H10.305c-.784-1.955-2.74-3.258-4.957-3.258-2.87 0-5.348 2.346-5.348 5.345a5.463 5.463 0 0 0 5.479 5.215" fill="url(#c)"/><path d="M108.78 32.07V27.9c1.956-.782 3.391-2.737 3.391-4.954 0-2.869-2.347-5.345-5.347-5.345-2.87 0-5.349 2.347-5.349 5.345 0 2.216 1.305 4.041 3.261 4.823v4.302c0 2.217-1.825 3.912-3.912 3.912h-7.305v4.04h7.305c4.433 0 7.956-3.65 7.956-7.952" fill="url(#d)"/><path d="M104.866 68.704v3.259a5.247 5.247 0 0 0-3.26 4.823c0 2.868 2.348 5.345 5.348 5.345 2.87 0 5.347-2.346 5.347-5.345 0-2.216-1.435-4.171-3.391-4.954v-3.26a7.903 7.903 0 0 0-7.956-7.95H93.65v4.04h7.304c2.087 0 3.912 1.825 3.912 4.042" fill="url(#e)"/><path d="M112.171 45.107c-2.217 0-4.175 1.304-4.956 3.26H93.65v4.04h13.695c.782 1.956 2.739 3.26 4.956 3.26 2.87 0 5.348-2.347 5.348-5.346a5.463 5.463 0 0 0-5.478-5.214" fill="url(#f)"/><path d="M33.913 74.961h49.825c3 0 5.347-2.346 5.347-5.345V35.07c0-2.999-2.349-5.345-5.347-5.345H78.91v-9.648c0-11.08-9-20.076-20.087-20.076S38.739 8.995 38.739 20.076v9.648h-4.826c-3 0-5.348 2.346-5.348 5.345v34.547c0 2.999 2.348 5.345 5.348 5.345zm30.26-12.255c.26.783-.392 1.695-1.306 1.695h-7.954c-.913 0-1.435-.782-1.304-1.695l1.956-7.691a5.501 5.501 0 0 1-2.087-4.303c0-2.997 2.478-5.475 5.478-5.475 3 0 5.479 2.478 5.479 5.475 0 1.825-.784 3.39-2.088 4.303l1.825 7.691zm-17.74-42.63c0-6.909 5.61-12.385 12.392-12.385 6.912 0 12.39 5.606 12.39 12.385v9.648H46.434v-9.648z" fill="url(#g)"/><path d="M147.365 47.748c-1.68-1.68-2.521-3.71-2.521-6.083 0-2.375.84-4.402 2.521-6.084 1.683-1.691 3.71-2.537 6.086-2.537 1.458 0 2.819.347 4.085 1.042v-4a12.364 12.364 0 0 0-4.085-.687c-3.383 0-6.276 1.197-8.675 3.595-2.399 2.397-3.597 5.287-3.597 8.671 0 3.383 1.2 6.273 3.597 8.67 2.399 2.398 5.29 3.596 8.675 3.596 1.4 0 2.763-.236 4.085-.706v-3.983a8.469 8.469 0 0 1-4.085 1.026c-2.375 0-4.405-.84-6.086-2.52zm16.661-7.832v-6.62h5.229c.907 0 1.686.325 2.336.975.639.65.959 1.434.959 2.353 0 .907-.32 1.68-.959 2.319a3.188 3.188 0 0 1-2.337.974h-5.228zm7.951 3.093a6.872 6.872 0 0 0 3.043-2.52 6.702 6.702 0 0 0 1.194-3.865c0-1.928-.684-3.569-2.05-4.925-1.356-1.365-2.993-2.05-4.91-2.05h-8.876v24.046h3.647V43.564h4.119l5.262 10.131h4.119l-5.548-10.688v.002zm20.058-13.359l-5.094 8.638-5.095-8.638h-4.236l7.497 12.738v11.31h3.666v-11.31l7.498-12.738h-4.237.001zm9.935 10.266h5.229c.907 0 1.687-.325 2.337-.975.638-.637.958-1.41.958-2.317 0-.919-.32-1.704-.959-2.353a3.187 3.187 0 0 0-2.336-.975h-5.229v6.62zm0 13.78h-3.649V29.65h8.878c1.917 0 3.553.684 4.91 2.05 1.366 1.356 2.05 2.997 2.05 4.924 0 1.915-.684 3.55-2.05 4.906-1.357 1.356-2.993 2.034-4.91 2.034h-5.228v10.132h-.001zm14.29-24.046v3.646h5.094v20.4h3.665v-20.4h5.094V29.65H216.26zm19.4 5.931c-1.68 1.68-2.521 3.709-2.521 6.083 0 2.375.841 4.402 2.522 6.084 1.681 1.68 3.71 2.52 6.085 2.52 2.376 0 4.405-.84 6.088-2.52 1.68-1.682 2.521-3.71 2.521-6.084 0-2.375-.841-4.403-2.522-6.083-1.682-1.68-3.71-2.52-6.087-2.52-2.375 0-4.404.84-6.085 2.52h-.001zm-2.588 14.754c-2.4-2.398-3.598-5.288-3.598-8.67 0-3.384 1.2-6.274 3.597-8.671 2.4-2.396 5.292-3.595 8.675-3.595 3.385 0 6.276 1.197 8.675 3.595 2.399 2.397 3.598 5.287 3.598 8.671 0 3.383-1.199 6.273-3.598 8.67-2.398 2.398-5.29 3.596-8.675 3.596-3.383 0-6.275-1.2-8.675-3.596h.001zm38.718 3.579a9.4 9.4 0 0 1-4.405-1.276c-1.525-.886-2.561-2.073-3.11-3.563l3.429-1.26c.281.739.857 1.338 1.731 1.797a6.19 6.19 0 0 0 2.522.655c1.402.057 2.562-.285 3.48-1.025.774-.627 1.183-1.343 1.228-2.15.067-1.535-1.541-2.762-4.825-3.68-5.145-1.444-7.637-3.893-7.481-7.343.1-2.42 1.137-4.229 3.11-5.428 1.502-.918 3.306-1.327 5.413-1.226 2.555.113 4.607 1.003 6.153 2.671l-2.673 2.488c-.875-.941-2.09-1.445-3.648-1.513-1.098-.045-2.034.095-2.808.42-1.21.515-1.844 1.434-1.9 2.756-.066 1.513 1.542 2.728 4.825 3.647 2.96.828 5.055 2.05 6.288 3.662.852 1.12 1.25 2.359 1.193 3.714-.088 1.905-.952 3.518-2.587 4.84-1.525 1.22-3.353 1.831-5.481 1.831-.158 0-.309-.006-.454-.017zm11.431-24.264v24.046h12.273V50.05h-8.625v-6.587h6.658v-3.646h-6.657v-6.52h8.625V29.65h-12.274zm18.663 10.266v-6.62h5.227c.908 0 1.688.325 2.338.975.637.65.957 1.434.957 2.353 0 .907-.32 1.68-.959 2.319a3.187 3.187 0 0 1-2.336.974h-5.228zm7.95 3.093a6.875 6.875 0 0 0 3.043-2.52 6.705 6.705 0 0 0 1.194-3.865c0-1.928-.684-3.569-2.051-4.925-1.356-1.365-2.993-2.05-4.91-2.05h-8.876v24.046h3.647V43.564H306l5.262 10.131h4.12l-5.548-10.688v.002zm7.515-13.359v24.046h4.472l14.173-24.046h-4.238l-10.741 18.231V29.65h-3.666zm20.897 24.046h3.649V29.684h-3.649v24.012zm12.76-5.95c-1.681-1.678-2.521-3.707-2.521-6.081 0-2.375.84-4.402 2.521-6.084 1.682-1.691 3.71-2.537 6.087-2.537 1.457 0 2.818.347 4.084 1.042v-4a12.364 12.364 0 0 0-4.085-.687c-3.383 0-6.276 1.197-8.674 3.595-2.398 2.397-3.598 5.287-3.598 8.671 0 3.383 1.2 6.273 3.598 8.67 2.398 2.398 5.29 3.596 8.674 3.596a12.11 12.11 0 0 0 4.086-.706v-3.983a8.469 8.469 0 0 1-4.086 1.026c-2.375 0-4.404-.84-6.084-2.52l-.002-.002zm13.198-18.096v24.046h12.272V50.05h-8.625v-6.587h6.658v-3.646h-6.658v-6.52h8.625V29.65h-12.272z" fill="#111"/><path d="M147.366 47.748c-1.682-1.682-2.522-3.71-2.522-6.084 0-2.375.84-4.403 2.521-6.083 1.683-1.691 3.71-2.537 6.086-2.537 1.458 0 2.819.347 4.085 1.042v-4.001a12.364 12.364 0 0 0-4.085-.688c-3.383 0-6.276 1.2-8.675 3.597-2.399 2.397-3.597 5.287-3.597 8.67s1.2 6.273 3.597 8.671c2.399 2.398 5.29 3.596 8.675 3.596 1.4 0 2.763-.236 4.085-.706v-3.983a8.469 8.469 0 0 1-4.085 1.026c-2.375 0-4.405-.84-6.086-2.52h.001zm16.66-7.832v-6.62h5.229c.907 0 1.686.325 2.336.975a3.23 3.23 0 0 1 .959 2.352c0 .907-.32 1.68-.959 2.318a3.188 3.188 0 0 1-2.337.975h-5.228zm7.951 3.093a6.873 6.873 0 0 0 3.043-2.522 6.702 6.702 0 0 0 1.194-3.864c0-1.927-.683-3.568-2.05-4.923-1.358-1.367-2.995-2.05-4.91-2.05h-8.878v24.045h3.65V43.562h4.118l5.262 10.133h4.119l-5.548-10.688v.002zm20.058-13.359l-5.095 8.638-5.094-8.638h-4.236l7.497 12.738v11.308h3.666V42.388l7.498-12.738h-4.237.001zm9.935 10.266h5.229c.907 0 1.687-.325 2.337-.975a3.16 3.16 0 0 0 .958-2.319 3.23 3.23 0 0 0-.959-2.352 3.187 3.187 0 0 0-2.336-.975h-5.229v6.621zm0 13.78h-3.649V29.65h8.878c1.916 0 3.552.684 4.908 2.05 1.368 1.355 2.052 2.996 2.052 4.924 0 1.915-.684 3.55-2.05 4.906-1.358 1.355-2.994 2.034-4.91 2.034h-5.229v10.132zm14.29-24.046v3.646h5.094v20.4h3.666v-20.4h5.094V29.65h-13.855.001zm19.4 5.931c-1.68 1.68-2.521 3.708-2.521 6.083s.841 4.402 2.522 6.082c1.681 1.681 3.71 2.521 6.085 2.521 2.376 0 4.405-.84 6.088-2.52 1.68-1.68 2.521-3.708 2.521-6.083s-.841-4.403-2.522-6.083c-1.682-1.68-3.71-2.521-6.085-2.521-2.377 0-4.405.841-6.088 2.521zm-2.588 14.754c-2.4-2.398-3.598-5.288-3.598-8.671 0-3.383 1.2-6.273 3.599-8.67 2.397-2.398 5.288-3.596 8.673-3.596 3.384 0 6.275 1.198 8.675 3.596 2.398 2.397 3.597 5.287 3.597 8.67s-1.2 6.273-3.598 8.671c-2.399 2.398-5.29 3.596-8.675 3.596-3.384 0-6.275-1.2-8.675-3.596h.002zm38.718 3.579a9.4 9.4 0 0 1-4.405-1.276c-1.525-.886-2.561-2.073-3.11-3.563l3.429-1.26c.281.738.857 1.338 1.732 1.797a6.19 6.19 0 0 0 2.522.655c1.4.057 2.56-.285 3.48-1.025.773-.627 1.182-1.343 1.227-2.15.067-1.535-1.541-2.762-4.825-3.68-5.144-1.446-7.637-3.893-7.481-7.343.1-2.42 1.137-4.229 3.11-5.428 1.502-.918 3.306-1.327 5.413-1.226 2.555.111 4.607 1.003 6.153 2.671l-2.673 2.488c-.875-.941-2.09-1.447-3.648-1.513-1.098-.045-2.034.095-2.808.42-1.21.515-1.844 1.434-1.9 2.755-.066 1.513 1.542 2.729 4.825 3.647 2.96.83 5.055 2.05 6.288 3.662.852 1.121 1.25 2.359 1.195 3.715-.09 1.904-.954 3.518-2.59 4.839-1.524 1.221-3.35 1.832-5.48 1.832-.158 0-.309-.006-.454-.017zm11.431-24.264v24.046h12.274v-3.648h-8.625V43.46h6.657v-3.642h-6.657v-6.522h8.625V29.65h-12.274zm18.663 10.266v-6.62h5.227c.908 0 1.688.325 2.338.975.637.649.957 1.433.957 2.352 0 .907-.32 1.68-.959 2.318a3.187 3.187 0 0 1-2.336.975h-5.228zm7.95 3.093a6.875 6.875 0 0 0 3.043-2.522 6.705 6.705 0 0 0 1.194-3.864c0-1.927-.684-3.568-2.051-4.923-1.356-1.367-2.993-2.05-4.91-2.05h-8.876v24.045h3.647V43.562H306l5.262 10.133h4.12l-5.548-10.688v.002zm7.515-13.359v24.046h4.472l14.173-24.046h-4.238l-10.741 18.231V29.65h-3.666zm20.897 24.046h3.649V29.684h-3.649v24.012zm12.762-5.95c-1.682-1.68-2.523-3.707-2.523-6.082s.841-4.403 2.522-6.083c1.682-1.691 3.71-2.537 6.085-2.537 1.458 0 2.82.347 4.086 1.042v-4.001a12.364 12.364 0 0 0-4.086-.688c-3.383 0-6.276 1.2-8.674 3.597-2.398 2.397-3.598 5.287-3.598 8.67s1.2 6.273 3.598 8.671c2.398 2.398 5.29 3.596 8.674 3.596a12.11 12.11 0 0 0 4.086-.706v-3.983a8.469 8.469 0 0 1-4.086 1.026c-2.375 0-4.404-.84-6.084-2.52v-.002zm13.196-18.095v24.046h12.274v-3.65h-8.625V43.46h6.657v-3.642h-6.657v-6.522h8.625V29.65h-12.274v.001z" fill="url(#h)"/></g></g></svg>