<svg height="64" viewBox="0 0 361 64" width="361" xmlns="http://www.w3.org/2000/svg" xmlns:xlink="http://www.w3.org/1999/xlink"><linearGradient id="a" x1="50%" x2="50%" y1="23.090894%" y2="94.501%"><stop offset="0" stop-color="#22acff"/><stop offset="1" stop-color="#861efe"/></linearGradient><g fill="url(#a)"><g transform="translate(.75 .8125)"><path d="m6.74939122 21.1309071v3.1747013c0 3.373031 2.6798284 6.0516703 6.05452398 6.0516703h5.5582243v-3.0755364h-5.5582243c-1.6874667 0-2.97756066-1.3887832-2.97756066-2.9761339v-3.2738661c1.48866146-.5952268 2.48126096-2.0831748 2.48126096-3.6705255 0-2.1825774-1.7866316-4.0674226-4.06932504-4.0674226-2.18376645 0-4.06956281 1.7856803-4.06956281 4.0674226 0 1.7856803.99259949 3.2738661 2.58066357 3.7696903"/><path d="m12.8039152 49.2064436h5.5582243v-3.0752987h-5.5582243c-3.37469558 0-6.05452398 2.6784016-6.05452398 6.0514325v2.4803097c-1.48889925.594989-2.58066357 2.0831748-2.58066357 3.7696903 0 2.1825775 1.78663153 4.0674226 4.06956281 4.0674226 2.18352864 0 4.06932504-1.7856803 4.06932504-4.0674226 0-1.6865155-.9925995-3.0752987-2.48126096-3.6705254v-2.4803097c-.09940263-1.6862777 1.29009396-3.0752987 2.97756066-3.0752987"/><path d="m4.16872765 42.3612168c1.6872289 0 3.17612814-.9921239 3.77159272-2.4803097h10.42181913v-3.0752987h-10.52098396c-.59546457-1.4881858-2.08436382-2.4803097-3.77159272-2.4803097-2.18376646.0002378-4.06956282 1.7861559-4.06956282 4.0678982.10061059 2.2266249 1.93984973 3.9774168 4.16872765 3.9683289"/><path d="m82.7788505 24.4047732v-3.1747013c1.4886615-.594989 2.5806636-2.0831748 2.5806636-3.7696903 0-2.1825774-1.7866315-4.0674225-4.0695628-4.0674225-2.1835287 0-4.069325 1.7856803-4.069325 4.0674225 0 1.6865155.9923617 3.0752987 2.4812609 3.6705255v3.2738661c0 1.6865155-1.3894966 2.9761339-2.9775607 2.9761339h-5.5582242v3.0755365h5.5582242c3.3744578 0 6.054524-2.7778042 6.054524-6.0516704"/><path d="m79.8010521 52.2817423v2.4803097c-1.4886615.5952267-2.481261 2.0831748-2.481261 3.6705254 0 2.1825775 1.7866315 4.0674226 4.0695628 4.0674226 2.1835287 0 4.069325-1.7856803 4.069325-4.0674226 0-1.6865155-1.0917643-3.1747013-2.5804257-3.7696903v-2.4803097c0-3.3730309-2.6800662-6.0514325-6.0547618-6.0514325h-5.5582243v3.0752987h5.5582243c1.588064 0 2.9775607 1.3887832 2.9775607 3.0752987"/><path d="m85.3595141 34.3254669c-1.6872289 0-3.1761281.9919557-3.7715927 2.4803793h-10.3226543v3.0750609h10.4218191c.5954646 1.4881858 2.0843638 2.4803097 3.7715927 2.4803097 2.1837665 0 4.0695629-1.7859181 4.0695629-4.0676604-.1008542-2.2264765-1.9399865-3.9770617-4.1687277-3.9680895"/><path d="m25.8063979 57.0437942h37.9156838c2.2826934 0 4.0690872-1.7859181 4.0690872-4.0674225v-26.2898562c0-2.2817423-1.7863938-4.0674226-4.0693251-4.0674226h-3.6724278v-7.3410509c0-8.43257742-6.8487939-15.278042-15.285414-15.278042s-15.2851762 6.84522677-15.2851762 15.2778042v7.3412887h-3.6724279c-2.2829313 0-4.0695628 1.7856803-4.0695628 4.0674226v26.2898562c0 2.2815044 1.7866315 4.0674225 4.0695628 4.0674225zm23.0271669-9.3255365c.1985675.5952268-.2977323 1.2898562-.9925995 1.2898562h-6.054524c-.6946294 0-1.0917643-.5954646-.9925995-1.2898562l1.4886614-5.8531028c-.9923617-.7937943-1.5878262-1.9842478-1.5878262-3.2738662 0-2.2817422 1.8857963-4.1665874 4.1687276-4.1665874s4.1687277 1.8848452 4.1687277 4.1665874c0 1.3887832-.5957024 2.5792368-1.5880641 3.2738662zm-13.4987824-32.4404535c0-5.2578761 4.2681302-9.42470132 9.4292196-9.42470132 5.2607298 0 9.4292196 4.26599002 9.4292196 9.42470132v7.3412887h-18.8584392v-7.3410509z"/></g><g transform="translate(105.4375 20.1875)"><path d="m11.635 24.0175c-3.22833333 0-5.97458333-1.0941667-8.23875-3.2825s-3.39625-5.0916667-3.39625-8.71c0-3.59666667 1.14833333-6.5 3.445-8.71s5.01583333-3.315 8.1575-3.315c2.7733333 0 5.05375.70416667 6.84125 2.1125s2.9629167 3.19583333 3.52625 5.3625l-3.6725 1.235c-.3683333-1.495-1.1158333-2.70833333-2.2425-3.64s-2.6108333-1.3975-4.4525-1.3975c-2.05833333 0-3.84041667.73125-5.34625 2.19375s-2.25875 3.51541667-2.25875 6.15875c0 2.5783333.7475 4.59875 2.2425 6.06125s3.29333333 2.19375 5.395 2.19375c1.7983333 0 3.2825-.4875 4.4525-1.4625s1.9716667-2.1775 2.405-3.6075l3.575 1.17c-.5633333 2.145-1.7495833 3.9541667-3.55875 5.4275s-4.1004167 2.21-6.87375 2.21z"/><path d="m37.6675 23.53-4.8425-9.1h-2.86v9.1h-3.9325v-23.0425h8.84c2.1666667 0 3.9108333.66625 5.2325 1.99875s1.9825 2.99541667 1.9825 4.98875c0 1.64666667-.4658333 3.055-1.3975 4.225s-2.1991667 1.95-3.8025 2.34l5.2 9.49zm-7.7025-12.545h4.1925c1.1916667 0 2.1504167-.3195833 2.87625-.95875.7258333-.63916667 1.08875-1.48958333 1.08875-2.55125 0-1.08333333-.3629167-1.94458333-1.08875-2.58375s-1.6845833-.95875-2.87625-.95875h-4.1925z"/><path d="m51.545 13.78-8.06-13.2925h4.615l5.525 9.6525 5.5575-9.6525h4.3875l-8.125 13.2925v9.75h-3.9z"/><path d="m70.5575 11.0825h4.0625c1.235 0 2.2045833-.3195833 2.90875-.95875.7041667-.63916667 1.05625-1.50041667 1.05625-2.58375 0-1.105-.3520833-1.9825-1.05625-2.6325s-1.67375-.975-2.90875-.975h-4.0625zm4.6475 3.445h-4.6475v9.0025h-3.9v-23.0425h8.5475c2.1883333 0 3.9595833.66083333 5.31375 1.9825s2.03125 3.00083333 2.03125 5.0375c0 2.05833333-.6770833 3.7429167-2.03125 5.05375s-3.1254167 1.96625-5.31375 1.96625z"/><path d="m102.765 4.16h-7.5075v19.37h-3.9v-19.37h-7.475v-3.6725h18.8825z"/><path d="m110.11 5.8825c-1.516667 1.45166667-2.275 3.48833333-2.275 6.11 0 2.6216667.758333 4.66375 2.275 6.12625s3.325833 2.19375 5.4275 2.19375 3.91625-.73125 5.44375-2.19375 2.29125-3.5045833 2.29125-6.12625c0-2.62166667-.76375-4.66375-2.29125-6.12625s-3.342083-2.19375-5.44375-2.19375-3.910833.73666667-5.4275 2.21zm-4.615 12.545c-1.105-1.8633333-1.6575-4.0083333-1.6575-6.435 0-2.42666667.557917-4.56625 1.67375-6.41875s2.55125-3.24458333 4.30625-4.17625c1.755-.93166667 3.661667-1.3975 5.72-1.3975s3.965.46583333 5.72 1.3975 3.195833 2.32375 4.3225 4.17625 1.69 3.99208333 1.69 6.41875c0 2.4266667-.563333 4.5716667-1.69 6.435s-2.5675 3.2608333-4.3225 4.1925-3.661667 1.3975-5.72 1.3975-3.965-.4658333-5.72-1.3975-3.195833-2.3291667-4.3225-4.1925z"/><path d="m154.6025 5.8825-3.51 1.105c-.151667-.88833333-.595833-1.70083333-1.3325-2.4375s-1.798333-1.105-3.185-1.105c-1.148333 0-2.09625.325-2.84375.975s-1.12125 1.43-1.12125 2.34c0 1.58166667.899167 2.5675 2.6975 2.9575l3.315.6825c1.993333.39 3.531667 1.1808333 4.615 2.3725s1.625 2.6108333 1.625 4.2575c0 1.9066667-.73125 3.5479167-2.19375 4.92375s-3.450417 2.06375-5.96375 2.06375c-2.708333 0-4.820833-.7095833-6.3375-2.12875s-2.3725-3.07125-2.5675-4.95625l3.64-1.04c.13 1.3.65 2.3941667 1.56 3.2825s2.145 1.3325 3.705 1.3325c1.343333 0 2.377917-.2979167 3.10375-.89375s1.08875-1.3595833 1.08875-2.29125c0-.7583333-.270833-1.41375-.8125-1.96625s-1.3-.9370833-2.275-1.15375l-3.25-.6825c-1.798333-.3683333-3.222917-1.1158333-4.27375-2.2425s-1.57625-2.535-1.57625-4.225c0-1.92833333.769167-3.58583333 2.3075-4.9725s3.38-2.08 5.525-2.08c2.448333 0 4.3225.59041667 5.6225 1.77125s2.1125 2.55125 2.4375 4.11125z"/><path d="m173.16 23.53h-14.235v-23.0425h14.235v3.64h-10.335v6.11h9.36v3.5425h-9.36v6.11h10.335z"/><path d="m189.475 23.53-4.8425-9.1h-2.86v9.1h-3.9325v-23.0425h8.84c2.166667 0 3.910833.66625 5.2325 1.99875s1.9825 2.99541667 1.9825 4.98875c0 1.64666667-.465833 3.055-1.3975 4.225s-2.199167 1.95-3.8025 2.34l5.2 9.49zm-7.7025-12.545h4.1925c1.191667 0 2.150417-.3195833 2.87625-.95875.725833-.63916667 1.08875-1.48958333 1.08875-2.55125 0-1.08333333-.362917-1.94458333-1.08875-2.58375s-1.684583-.95875-2.87625-.95875h-4.1925z"/><path d="m206.115 18.4275 6.4675-17.94h4.1275l-8.71 23.0425h-3.965l-8.58-23.0425h4.225z"/><path d="m234.0325 23.53h-14.235v-23.0425h14.235v3.64h-10.335v6.11h9.36v3.5425h-9.36v6.11h10.335z"/><path d="m250.3475 23.53-4.8425-9.1h-2.86v9.1h-3.9325v-23.0425h8.84c2.166667 0 3.910833.66625 5.2325 1.99875s1.9825 2.99541667 1.9825 4.98875c0 1.64666667-.465833 3.055-1.3975 4.225s-2.199167 1.95-3.8025 2.34l5.2 9.49zm-7.7025-12.545h4.1925c1.191667 0 2.150417-.3195833 2.87625-.95875.725833-.63916667 1.08875-1.48958333 1.08875-2.55125 0-1.08333333-.362917-1.94458333-1.08875-2.58375s-1.684583-.95875-2.87625-.95875h-4.1925z"/></g></g></svg>