<svg width="1280" height="640" xmlns="http://www.w3.org/2000/svg"><defs><linearGradient x1="50%" y1="94.501%" x2="50%" y2="0%" id="a"><stop stop-color="#861EFE" offset="0%"/><stop stop-color="#22ACFF" offset="100%"/></linearGradient><linearGradient x1="50%" y1="94.501%" x2="50%" y2="0%" id="b"><stop stop-color="#861EFE" offset="0%"/><stop stop-color="#22ACFF" offset="100%"/></linearGradient><linearGradient x1="50%" y1="94.501%" x2="50%" y2="0%" id="c"><stop stop-color="#861EFE" offset="0%"/><stop stop-color="#22ACFF" offset="100%"/></linearGradient><linearGradient x1="50%" y1="94.501%" x2="50%" y2="0%" id="d"><stop stop-color="#861EFE" offset="0%"/><stop stop-color="#22ACFF" offset="100%"/></linearGradient><linearGradient x1="50%" y1="94.501%" x2="50%" y2="0%" id="e"><stop stop-color="#861EFE" offset="0%"/><stop stop-color="#22ACFF" offset="100%"/></linearGradient><linearGradient x1="50%" y1="94.501%" x2="50%" y2="0%" id="f"><stop stop-color="#861EFE" offset="0%"/><stop stop-color="#22ACFF" offset="100%"/></linearGradient><linearGradient x1="50%" y1="94.501%" x2="50%" y2="0%" id="g"><stop stop-color="#861EFE" offset="0%"/><stop stop-color="#22ACFF" offset="100%"/></linearGradient></defs><g fill="none" fill-rule="evenodd"><path d="M0 0L1280 0 1280 640 0 640z"/><g transform="translate(42 195)" fill-rule="nonzero"><path d="M28.382 88.858v13.35c0 14.184 11.269 25.448 25.46 25.448h23.373v-12.933H53.842c-7.096 0-12.521-5.84-12.521-12.515V88.441c6.26-2.503 10.434-8.76 10.434-15.435 0-9.178-7.513-17.104-17.112-17.104-9.183 0-17.113 7.509-17.113 17.104 0 7.509 4.174 13.767 10.852 15.852" fill="url(#a)"/><path d="M53.842 206.919h23.373v-12.932H53.842c-14.191 0-25.46 11.263-25.46 25.447v10.43c-6.261 2.502-10.852 8.76-10.852 15.852 0 9.178 7.513 17.104 17.113 17.104 9.182 0 17.112-7.509 17.112-17.104 0-7.092-4.174-12.932-10.434-15.435v-10.43c-.418-7.091 5.425-12.932 12.521-12.932" fill="url(#b)"/><path d="M17.53 178.134c7.095 0 13.356-4.172 15.86-10.43h43.825v-12.932H32.973c-2.504-6.258-8.765-10.43-15.86-10.43C7.93 144.343 0 151.853 0 161.448a17.476 17.476 0 0 0 17.53 16.687" fill="url(#c)"/><path d="M348.095 102.625v-13.35c6.26-2.502 10.852-8.76 10.852-15.852 0-9.178-7.513-17.104-17.113-17.104-9.182 0-17.112 7.509-17.112 17.104 0 7.092 4.173 12.932 10.434 15.435v13.767c0 7.092-5.843 12.515-12.521 12.515h-23.373v12.933h23.373c14.19 0 25.46-11.681 25.46-25.448" fill="url(#d)"/><path d="M335.573 219.851v10.43c-6.26 2.503-10.434 8.76-10.434 15.435 0 9.178 7.513 17.104 17.113 17.104 9.182 0 17.112-7.509 17.112-17.104 0-7.092-4.591-13.35-10.851-15.852v-10.43c0-14.184-11.27-25.447-25.461-25.447h-23.373v12.932h23.373c6.678 0 12.521 5.84 12.521 12.932" fill="url(#b)"/><path d="M358.947 144.343c-7.095 0-13.356 4.171-15.86 10.43h-43.408v12.931h43.825c2.504 6.258 8.765 10.43 15.86 10.43 9.183 0 17.113-7.51 17.113-17.105a17.477 17.477 0 0 0-17.53-16.686" fill="url(#e)"/><path d="M108.519 239.876h159.44c9.599 0 17.111-7.51 17.111-17.104V112.22c0-9.595-7.512-17.104-17.112-17.104h-15.443v-30.87c0-35.46-28.8-64.246-64.277-64.246-35.477 0-64.276 28.785-64.276 64.245v30.871h-15.443c-9.6 0-17.113 7.509-17.113 17.104v110.552c0 9.594 7.513 17.104 17.113 17.104zm96.832-39.215c.835 2.503-1.252 5.424-4.174 5.424h-25.46c-2.921 0-4.591-2.504-4.174-5.424l6.26-24.613c-4.173-3.338-6.677-8.344-6.677-13.767 0-9.595 7.93-17.521 17.53-17.521 9.6 0 17.53 7.926 17.53 17.521 0 5.84-2.505 10.846-6.678 13.767l5.843 24.613zM148.587 64.245c0-22.11 17.948-39.632 39.651-39.632 22.122 0 39.651 17.939 39.651 39.632v30.871h-79.302v-30.87z" fill="url(#f)"/></g><path d="M19.797 58.718c-5.38-5.377-8.07-11.866-8.07-19.465 0-7.6 2.69-14.088 8.07-19.466 5.38-5.413 11.872-8.119 19.475-8.119 4.662 0 9.02 1.112 13.073 3.334V2.205A39.564 39.564 0 0 0 39.272 0C28.44 0 19.187 3.835 11.512 11.507 3.837 19.178 0 28.427 0 39.252c0 10.826 3.837 20.075 11.512 27.746 7.676 7.672 16.929 11.508 27.76 11.508 4.483 0 8.84-.754 13.073-2.26V63.504c-4.053 2.187-8.41 3.28-13.073 3.28-7.603 0-14.095-2.688-19.475-8.065zM73.111 33.66V12.474h16.73c2.906 0 5.398 1.04 7.479 3.118 2.044 2.08 3.066 4.589 3.066 7.529 0 2.903-1.022 5.377-3.066 7.42-2.08 2.079-4.573 3.119-7.478 3.119H73.11zm25.445 9.894c4.017-1.72 7.262-4.41 9.737-8.066 2.547-3.728 3.82-7.85 3.82-12.367 0-6.166-2.188-11.418-6.564-15.755-4.34-4.373-9.576-6.56-15.708-6.56H61.434v76.946h11.674V45.33h13.18l16.84 32.423h13.18L98.556 43.554zM162.738.807l-16.3 27.638L130.136.807h-13.558l23.994 40.76v36.189H152.3v-36.19L176.295.806h-13.558zm31.794 32.853h16.731c2.905 0 5.398-1.04 7.478-3.119 2.044-2.043 3.066-4.517 3.066-7.42 0-2.94-1.022-5.45-3.066-7.529-2.08-2.078-4.573-3.118-7.478-3.118h-16.73V33.66zm0 44.093h-11.674V.807h28.406c6.133 0 11.37 2.187 15.71 6.56 4.375 4.338 6.563 9.589 6.563 15.755 0 6.13-2.188 11.364-6.564 15.701-4.34 4.338-9.576 6.507-15.709 6.507h-16.73v32.423h-.002zM240.26.807v11.668h16.3v65.279h11.729V12.475h16.3V.807h-44.33.001zm62.083 18.98c-5.38 5.377-8.07 11.866-8.07 19.465 0 7.6 2.69 14.088 8.07 19.465 5.38 5.377 11.871 8.066 19.474 8.066 7.604 0 14.096-2.689 19.475-8.066 5.38-5.377 8.07-11.866 8.07-19.465 0-7.6-2.69-14.088-8.07-19.465-5.38-5.377-11.871-8.066-19.475-8.066-7.603 0-14.095 2.689-19.474 8.066zm-8.285 47.212c-7.675-7.672-11.513-16.92-11.513-27.746 0-10.825 3.838-20.074 11.513-27.745C301.733 3.836 310.987 0 321.818 0c10.83 0 20.084 3.835 27.759 11.507 7.675 7.67 11.512 16.92 11.512 27.745 0 10.826-3.837 20.074-11.512 27.746-7.676 7.671-16.929 11.507-27.76 11.507-10.83 0-20.084-3.836-27.759-11.507zm123.896 11.453c-5.093-.215-9.79-1.577-14.095-4.086-4.877-2.832-8.195-6.632-9.952-11.4l10.975-4.033c.896 2.366 2.743 4.284 5.54 5.754 2.475 1.254 5.165 1.953 8.07 2.097 4.484.18 8.195-.915 11.136-3.28 2.475-2.008 3.784-4.302 3.928-6.883.215-4.91-4.932-8.837-15.44-11.776-16.463-4.624-24.442-12.457-23.94-23.498.322-7.743 3.64-13.532 9.952-17.368 4.806-2.94 10.58-4.248 17.323-3.925 8.177.358 14.74 3.208 19.69 8.55l-8.554 7.957c-2.797-3.011-6.688-4.624-11.674-4.84-3.515-.142-6.51.306-8.984 1.345-3.874 1.65-5.9 4.589-6.079 8.818-.215 4.84 4.931 8.73 15.44 11.67 9.468 2.652 16.176 6.56 20.12 11.721 2.726 3.585 4 7.546 3.82 11.884-.287 6.094-3.048 11.256-8.285 15.486-4.877 3.907-10.724 5.861-17.538 5.861-.502 0-.986-.018-1.453-.054zM454.537.806v76.947h39.272V66.085H466.21V45.006h21.304V33.338H466.21V12.474h27.6V.806h-39.273zm59.715 32.854V12.474h16.731c2.905 0 5.398 1.04 7.478 3.118 2.044 2.08 3.066 4.589 3.066 7.529 0 2.903-1.022 5.377-3.066 7.42-2.08 2.079-4.573 3.119-7.478 3.119h-16.731zm25.445 9.894c4.017-1.72 7.263-4.41 9.738-8.066 2.546-3.728 3.82-7.85 3.82-12.367 0-6.166-2.188-11.418-6.564-15.755-4.34-4.373-9.576-6.56-15.709-6.56h-28.407v76.946h11.674V45.33h13.181l16.84 32.423h13.18l-17.753-34.198zM563.746.807v76.946h14.31L623.408.807H609.85l-34.375 58.34V.807h-11.73zm105.207 0v11.667h-27.6v20.864h21.305v11.668h-21.304v21.079h27.6v11.668H629.68V.806h39.272zm37.029-.001c6.133 0 11.37 2.187 15.709 6.56 4.376 4.337 6.564 9.59 6.564 15.755 0 4.517-1.274 8.64-3.82 12.367-2.475 3.657-5.721 6.345-9.738 8.066l17.753 34.198h-13.18L702.43 45.33h-13.18v32.423h-11.675V.806zm.001 11.668h-16.731V33.66h16.731c2.905 0 5.398-1.04 7.478-3.119 2.044-2.043 3.066-4.517 3.066-7.42 0-2.94-1.022-5.45-3.066-7.529-2.08-2.078-4.573-3.118-7.478-3.118z" transform="translate(493 287)" fill="url(#g)" fill-rule="nonzero"/></g></svg>