<?xml version="1.0" encoding="UTF-8"?>
<svg width="252px" height="64px" viewBox="0 0 252 64" version="1.1" xmlns="http://www.w3.org/2000/svg" xmlns:xlink="http://www.w3.org/1999/xlink">
    <title>crypto-cli-small</title>
    <defs>
        <linearGradient x1="50%" y1="23.0908939%" x2="50%" y2="94.501%" id="linearGradient-1">
            <stop stop-color="#66CDA9" offset="0%"></stop>
            <stop stop-color="#85D575" offset="100%"></stop>
        </linearGradient>
        <linearGradient x1="50%" y1="23.0908939%" x2="50%" y2="94.501%" id="linearGradient-2">
            <stop stop-color="#66CDA9" offset="0%"></stop>
            <stop stop-color="#85D575" offset="100%"></stop>
        </linearGradient>
        <linearGradient x1="50%" y1="23.0908939%" x2="50%" y2="94.501%" id="linearGradient-3">
            <stop stop-color="#66CDA9" offset="0%"></stop>
            <stop stop-color="#85D575" offset="100%"></stop>
        </linearGradient>
        <linearGradient x1="50%" y1="23.0908939%" x2="50%" y2="94.501%" id="linearGradient-4">
            <stop stop-color="#66CDA9" offset="0%"></stop>
            <stop stop-color="#85D575" offset="100%"></stop>
        </linearGradient>
        <linearGradient x1="50%" y1="23.0908939%" x2="50%" y2="94.501%" id="linearGradient-5">
            <stop stop-color="#66CDA9" offset="0%"></stop>
            <stop stop-color="#85D575" offset="100%"></stop>
        </linearGradient>
        <linearGradient x1="50%" y1="23.0908939%" x2="50%" y2="94.501%" id="linearGradient-6">
            <stop stop-color="#66CDA9" offset="0%"></stop>
            <stop stop-color="#85D575" offset="100%"></stop>
        </linearGradient>
        <linearGradient x1="50%" y1="23.0908939%" x2="50%" y2="94.501%" id="linearGradient-7">
            <stop stop-color="#66CDA9" offset="0%"></stop>
            <stop stop-color="#85D575" offset="100%"></stop>
        </linearGradient>
        <linearGradient x1="50%" y1="23.0908939%" x2="50%" y2="94.501%" id="linearGradient-8">
            <stop stop-color="#66CDA9" offset="0%"></stop>
            <stop stop-color="#85D575" offset="100%"></stop>
        </linearGradient>
        <linearGradient x1="50%" y1="23.0908939%" x2="50%" y2="94.501%" id="linearGradient-9">
            <stop stop-color="#66CDA9" offset="0%"></stop>
            <stop stop-color="#85D575" offset="100%"></stop>
        </linearGradient>
        <linearGradient x1="50%" y1="23.0908939%" x2="50%" y2="94.501%" id="linearGradient-10">
            <stop stop-color="#66CDA9" offset="0%"></stop>
            <stop stop-color="#85D575" offset="100%"></stop>
        </linearGradient>
        <linearGradient x1="50%" y1="23.0908939%" x2="50%" y2="94.501%" id="linearGradient-11">
            <stop stop-color="#66CDA9" offset="0%"></stop>
            <stop stop-color="#85D575" offset="100%"></stop>
        </linearGradient>
        <linearGradient x1="50%" y1="23.0908939%" x2="50%" y2="94.501%" id="linearGradient-12">
            <stop stop-color="#66CDA9" offset="0%"></stop>
            <stop stop-color="#85D575" offset="100%"></stop>
        </linearGradient>
        <linearGradient x1="50%" y1="23.0908939%" x2="50%" y2="94.501%" id="linearGradient-13">
            <stop stop-color="#66CDA9" offset="0%"></stop>
            <stop stop-color="#85D575" offset="100%"></stop>
        </linearGradient>
    </defs>
    <g id="Crypto-Service-Logos" stroke="none" stroke-width="1" fill="none" fill-rule="evenodd">
        <g id="Small-logos" transform="translate(-30.250000, 0.000000)" fill-rule="nonzero">
            <g id="crypto-cli-small" transform="translate(30.250000, 0.000000)">
                <g id="lock">
                    <path d="M6.91137661,21.6380489 L6.91137661,24.888943 C6.91137661,28.3429267 9.65552089,31.0858534 13.1112092,31.0858534 L18.8028308,31.0858534 L18.8028308,27.9365041 L13.1112092,27.9365041 C11.3832433,27.9365041 10.062187,26.5143901 10.062187,24.888943 L10.062187,21.5365041 C11.5865764,20.9269919 12.6029982,19.4033331 12.6029982,17.777886 C12.6029982,15.5429267 10.7734876,13.6128453 8.43600944,13.6128453 C6.19983259,13.6128453 4.26877711,15.4413819 4.26877711,17.777886 C4.26877711,19.6064226 5.285199,21.1303249 6.91137661,21.6380489" id="Path" fill="url(#linearGradient-1)"></path>
                    <path d="M13.1112092,50.3873982 L18.8028308,50.3873982 L18.8028308,47.2382924 L13.1112092,47.2382924 C9.65552089,47.2382924 6.91137661,49.9809756 6.91137661,53.4349593 L6.91137661,55.9747964 C5.38674378,56.5840651 4.26877711,58.1079674 4.26877711,59.8349593 C4.26877711,62.0699186 6.0982878,64 8.43600944,64 C10.6719428,64 12.6029982,62.1714634 12.6029982,59.8349593 C12.6029982,58.1079674 11.5865764,56.6858534 10.062187,56.0763412 L10.062187,53.5365041 C9.96039875,51.8097557 11.3832433,50.3873982 13.1112092,50.3873982" id="Path" fill="url(#linearGradient-2)"></path>
                    <path d="M4.26877711,43.377886 C5.99649951,43.377886 7.52113233,42.3619511 8.13088806,40.8380489 L18.8028308,40.8380489 L18.8028308,37.688943 L8.02934328,37.688943 C7.41958755,36.1650407 5.89495472,35.1491059 4.16723233,35.1491059 C1.93105548,35.1493494 1.73026159e-15,36.9781295 1.73026159e-15,39.3146336 C0.103025243,41.5946975 1.98640612,43.3875084 4.26877711,43.3782024" id="Path" fill="url(#linearGradient-3)"></path>
                    <path d="M84.765543,24.9904878 L84.765543,21.7395936 C86.2899323,21.1303249 87.4081425,19.6064226 87.4081425,17.8794308 C87.4081425,15.6444715 85.5786318,13.7143901 83.2409101,13.7143901 C81.0049768,13.7143901 79.0739213,15.5429267 79.0739213,17.8794308 C79.0739213,19.6064226 80.0900997,21.0285366 81.6147325,21.6380489 L81.6147325,24.9904878 C81.6147325,26.7174796 80.191888,28.0380489 78.5657104,28.0380489 L72.8740887,28.0380489 L72.8740887,31.1873982 L78.5657104,31.1873982 C82.0211552,31.1873982 84.765543,28.3429267 84.765543,24.9904878" id="Path" fill="url(#linearGradient-1)"></path>
                    <path d="M81.7162773,53.5365041 L81.7162773,56.0763412 C80.191888,56.6858534 79.1754661,58.2095122 79.1754661,59.8349593 C79.1754661,62.0699186 81.0049768,64 83.3426984,64 C85.5786318,64 87.5096872,62.1714634 87.5096872,59.8349593 C87.5096872,58.1079674 86.3917206,56.5840651 84.8673313,55.9747964 L84.8673313,53.4349593 C84.8673313,49.9809756 82.1229435,47.2382924 78.6672552,47.2382924 L72.9756335,47.2382924 L72.9756335,50.3873982 L78.6672552,50.3873982 C80.2934328,50.3873982 81.7162773,51.8095122 81.7162773,53.5365041" id="Path" fill="url(#linearGradient-2)"></path>
                    <path d="M87.4081425,35.1492781 C85.6804201,35.1492781 84.1557872,36.1650407 83.5460315,37.6891865 L72.9756335,37.6891865 L72.9756335,40.8380489 L83.6475763,40.8380489 C84.257332,42.3619511 85.7819648,43.377886 87.5096872,43.377886 C89.7458641,43.377886 91.6769196,41.5491059 91.6769196,39.2126018 C91.5736449,36.9326898 89.6903734,35.1400905 87.4081425,35.1492781" id="Path" fill="url(#linearGradient-4)"></path>
                    <path d="M26.4257515,58.4128453 L65.2514116,58.4128453 C67.5888897,58.4128453 69.4181569,56.5840651 69.4181569,54.2478046 L69.4181569,27.3269919 C69.4181569,24.9904878 67.5888897,23.1619511 65.2511681,23.1619511 L61.4906019,23.1619511 L61.4906019,15.644715 C61.4906019,7.00975573 54.477437,-3.46052317e-15 45.838338,-3.46052317e-15 C37.199239,-3.46052317e-15 30.1863176,7.00951221 30.1863176,15.6444715 L30.1863176,23.1619511 L26.4257515,23.1619511 C24.0880298,23.1619511 22.2585191,24.9904878 22.2585191,27.3269919 L22.2585191,54.2478046 C22.2585191,56.5840651 24.0880298,58.4128453 26.4257515,58.4128453 L26.4257515,58.4128453 Z M50.0055704,48.8634959 C50.2089034,49.4730081 49.7006925,50.1843087 48.9891485,50.1843087 L42.7893159,50.1843087 C42.0780154,50.1843087 41.6713492,49.5745529 41.772894,48.8634959 L43.2972833,42.8699186 C42.2811049,42.0570733 41.6713492,40.8380489 41.6713492,39.5174796 C41.6713492,37.1809756 43.6024047,35.2508941 45.9401263,35.2508941 C48.277848,35.2508941 50.2089034,37.1809756 50.2089034,39.5174796 C50.2089034,40.9395936 49.5989042,42.1586181 48.5827258,42.8699186 L50.0055704,48.8634959 Z M36.1828171,15.6444715 C36.1828171,10.2604064 40.5533825,5.99357735 45.838338,5.99357735 C51.2253253,5.99357735 55.4938589,10.3619511 55.4938589,15.6444715 L55.4938589,23.1619511 L36.1828171,23.1619511 L36.1828171,15.644715 L36.1828171,15.6444715 Z" id="Shape" fill="url(#linearGradient-5)"></path>
                </g>
                <g id="title" transform="translate(106.748162, 30.610517)">
                    <path d="M9.06646374,18.7154098 C6.55081551,18.7154098 4.41082617,17.8627908 2.6464957,16.1575527 C0.882165233,14.4523146 -1.38420927e-14,12.1899196 -1.38420927e-14,9.37036755 C-1.38420927e-14,6.56769906 0.894827892,4.30530401 2.68448368,2.58318241 C4.47413946,0.861060802 6.59302438,0 9.04113842,0 C11.2022322,0 12.9792253,0.548715217 14.3721178,1.64614565 C15.7650103,2.74357609 16.6809426,4.13646856 17.1199148,5.82482307 L14.2581539,6.78718515 C13.9711336,5.62222053 13.3886513,4.676742 12.5107069,3.95074956 C11.6327626,3.22475712 10.4762398,2.8617609 9.04113842,2.8617609 C7.43720163,2.8617609 6.04853005,3.43158055 4.87512366,4.57121985 C3.70171727,5.71085914 3.11501408,7.31057505 3.11501408,9.37036755 C3.11501408,11.3795094 3.69749639,12.9539 4.862461,14.0935393 C6.02742561,15.2331786 7.42875986,15.8029982 9.06646374,15.8029982 C10.467798,15.8029982 11.6243208,15.4231185 12.5360323,14.663359 C13.4477437,13.9035994 14.0724349,12.9665627 14.4101058,11.8522487 L17.1958907,12.7639601 C16.7569186,14.4354311 15.8325445,15.8452071 14.4227684,16.9932882 C13.0129924,18.1413693 11.2275575,18.7154098 9.06646374,18.7154098 Z" id="Path" fill="url(#linearGradient-6)"></path>
                    <path d="M29.3520432,18.33553 L25.5785709,11.2444411 L23.3499429,11.2444411 L23.3499429,18.33553 L20.2855795,18.33553 L20.2855795,0.379879766 L27.1740659,0.379879766 C28.8624204,0.379879766 30.2215458,0.899048779 31.2514421,1.9373868 C32.2813383,2.97572483 32.7962864,4.27153692 32.7962864,5.82482307 C32.7962864,7.1079725 32.4332902,8.20540294 31.7072978,9.11711437 C30.9813053,10.0288258 29.9936179,10.6366334 28.7442356,10.9405372 L32.7962864,18.33553 L29.3520432,18.33553 Z M23.3499429,8.55995739 L26.6169089,8.55995739 C27.5455039,8.55995739 28.2926008,8.31092509 28.8581995,7.81286051 C29.4237983,7.31479593 29.7065977,6.65211678 29.7065977,5.82482307 C29.7065977,4.98064582 29.4237983,4.3095249 28.8581995,3.81146032 C28.2926008,3.31339573 27.5455039,3.06436344 26.6169089,3.06436344 L23.3499429,3.06436344 L23.3499429,8.55995739 Z" id="Shape" fill="url(#linearGradient-7)"></path>
                    <polygon id="Path" fill="url(#linearGradient-8)" points="40.1659539 10.7379347 33.8852751 0.379879766 37.4814702 0.379879766 41.7867742 7.90149912 46.1174035 0.379879766 49.5363214 0.379879766 43.204992 10.7379347 43.204992 18.33553 40.1659539 18.33553"></polygon>
                    <path d="M54.9812647,8.63593334 L58.1469295,8.63593334 C59.1092915,8.63593334 59.8648302,8.38690105 60.4135454,7.88883647 C60.9622606,7.39077188 61.2366182,6.71965097 61.2366182,5.87547371 C61.2366182,5.01441291 60.9622606,4.33062933 60.4135454,3.82412297 C59.8648302,3.31761662 59.1092915,3.06436344 58.1469295,3.06436344 L54.9812647,3.06436344 L54.9812647,8.63593334 Z M58.6027852,11.320417 L54.9812647,11.320417 L54.9812647,18.33553 L51.9422266,18.33553 L51.9422266,0.379879766 L58.6027852,0.379879766 C60.3080232,0.379879766 61.6882531,0.894827892 62.7434746,1.92472415 C63.7986962,2.9546204 64.326307,4.26309515 64.326307,5.85014839 C64.326307,7.45408518 63.7986962,8.76678081 62.7434746,9.78823529 C61.6882531,10.8096898 60.3080232,11.320417 58.6027852,11.320417 Z" id="Shape" fill="url(#linearGradient-9)"></path>
                    <polygon id="Path" fill="url(#linearGradient-10)" points="80.0786546 3.24164067 74.2285062 3.24164067 74.2285062 18.33553 71.1894681 18.33553 71.1894681 3.24164067 65.364645 3.24164067 65.364645 0.379879766 80.0786546 0.379879766"></polygon>
                    <path d="M85.8021764,4.58388251 C84.6203282,5.71508003 84.0294042,7.30213327 84.0294042,9.34504223 C84.0294042,11.3879512 84.6203282,12.9792253 85.8021764,14.1188646 C86.9840246,15.2585039 88.3938006,15.8283236 90.0315045,15.8283236 C91.6692083,15.8283236 93.0832052,15.2585039 94.2734952,14.1188646 C95.4637851,12.9792253 96.0589301,11.3879512 96.0589301,9.34504223 C96.0589301,7.30213327 95.4637851,5.71085914 94.2734952,4.57121985 C93.0832052,3.43158055 91.6692083,2.8617609 90.0315045,2.8617609 C88.3938006,2.8617609 86.9840246,3.43580144 85.8021764,4.58388251 Z M82.2059813,14.3594551 C81.3449205,12.9074703 80.9143901,11.2359993 80.9143901,9.34504223 C80.9143901,7.45408518 81.3491414,5.7868351 82.2186439,4.34329199 C83.0881465,2.89974888 84.2066814,1.8149811 85.5742485,1.08898866 C86.9418157,0.36299622 88.4275677,0 90.0315045,0 C91.6354412,0 93.1211932,0.36299622 94.4887604,1.08898866 C95.8563275,1.8149811 96.9790833,2.89974888 97.8570276,4.34329199 C98.734972,5.7868351 99.1739441,7.45408518 99.1739441,9.34504223 C99.1739441,11.2359993 98.734972,12.9074703 97.8570276,14.3594551 C96.9790833,15.81144 95.8563275,16.9004287 94.4887604,17.6264211 C93.1211932,18.3524136 91.6354412,18.7154098 90.0315045,18.7154098 C88.4275677,18.7154098 86.9418157,18.3524136 85.5742485,17.6264211 C84.2066814,16.9004287 83.0839256,15.81144 82.2059813,14.3594551 Z" id="Shape" fill="url(#linearGradient-11)"></path>
                    <path d="M116.648413,18.7154098 C114.132765,18.7154098 111.992776,17.8627908 110.228445,16.1575527 C108.464115,14.4523146 107.58195,12.1899196 107.58195,9.37036755 C107.58195,6.56769906 108.476778,4.30530401 110.266433,2.58318241 C112.056089,0.861060802 114.174974,0 116.623088,0 C118.784182,0 120.561175,0.548715217 121.954067,1.64614565 C123.34696,2.74357609 124.262892,4.13646856 124.701864,5.82482307 L121.840103,6.78718515 C121.553083,5.62222053 120.970601,4.676742 120.092657,3.95074956 C119.214712,3.22475712 118.058189,2.8617609 116.623088,2.8617609 C115.019151,2.8617609 113.63048,3.43158055 112.457073,4.57121985 C111.283667,5.71085914 110.696964,7.31057505 110.696964,9.37036755 C110.696964,11.3795094 111.279446,12.9539 112.444411,14.0935393 C113.609375,15.2331786 115.010709,15.8029982 116.648413,15.8029982 C118.049748,15.8029982 119.20627,15.4231185 120.117982,14.663359 C121.029693,13.9035994 121.654384,12.9665627 121.992055,11.8522487 L124.77784,12.7639601 C124.338868,14.4354311 123.414494,15.8452071 122.004718,16.9932882 C120.594942,18.1413693 118.809507,18.7154098 116.648413,18.7154098 Z" id="Path" fill="url(#linearGradient-6)"></path>
                    <polygon id="Path" fill="url(#linearGradient-12)" points="139.137295 18.33553 127.867529 18.33553 127.867529 0.379879766 130.906567 0.379879766 130.906567 15.4484438 139.137295 15.4484438"></polygon>
                    <polygon id="Path" fill="url(#linearGradient-13)" points="145.012769 18.33553 141.92308 18.33553 141.92308 0.379879766 145.012769 0.379879766"></polygon>
                </g>
            </g>
        </g>
    </g>
</svg>