<?xml version="1.0" encoding="UTF-8"?>
<svg width="1303px" height="640px" viewBox="0 0 1303 640" version="1.1" xmlns="http://www.w3.org/2000/svg" xmlns:xlink="http://www.w3.org/1999/xlink">
    <title>crypto-server-logo</title>
    <defs>
        <linearGradient x1="50%" y1="23.0908939%" x2="50%" y2="94.501%" id="linearGradient-1">
            <stop stop-color="#22ACFF" offset="0%"></stop>
            <stop stop-color="#861EFE" offset="100%"></stop>
        </linearGradient>
        <linearGradient x1="50%" y1="23.0908939%" x2="50%" y2="94.501%" id="linearGradient-2">
            <stop stop-color="#22ACFF" offset="0%"></stop>
            <stop stop-color="#861EFE" offset="100%"></stop>
        </linearGradient>
        <linearGradient x1="50%" y1="23.0908939%" x2="50%" y2="94.501%" id="linearGradient-3">
            <stop stop-color="#22ACFF" offset="0%"></stop>
            <stop stop-color="#861EFE" offset="100%"></stop>
        </linearGradient>
        <linearGradient x1="50%" y1="23.0908939%" x2="50%" y2="94.501%" id="linearGradient-4">
            <stop stop-color="#22ACFF" offset="0%"></stop>
            <stop stop-color="#861EFE" offset="100%"></stop>
        </linearGradient>
        <linearGradient x1="50%" y1="23.0908939%" x2="50%" y2="94.501%" id="linearGradient-5">
            <stop stop-color="#22ACFF" offset="0%"></stop>
            <stop stop-color="#861EFE" offset="100%"></stop>
        </linearGradient>
        <linearGradient x1="50%" y1="23.0908939%" x2="50%" y2="94.501%" id="linearGradient-6">
            <stop stop-color="#22ACFF" offset="0%"></stop>
            <stop stop-color="#861EFE" offset="100%"></stop>
        </linearGradient>
    </defs>
    <g id="Page-1" stroke="none" stroke-width="1" fill="none" fill-rule="evenodd">
        <g id="crypto-server-logo">
            <polygon id="Path" points="0 0 1280 0 1280 640 0 640"></polygon>
            <g id="CRYPTO-SERVER-LOCK" transform="translate(44.000000, 199.000000)" fill-rule="nonzero">
                <path d="M28.382,88.858 L28.382,102.208 C28.382,116.392 39.651,127.656 53.842,127.656 L77.215,127.656 L77.215,114.723 L53.842,114.723 C46.746,114.723 41.321,108.883 41.321,102.208 L41.321,88.441 C47.581,85.938 51.755,79.681 51.755,73.006 C51.755,63.828 44.242,55.902 34.643,55.902 C25.46,55.902 17.53,63.411 17.53,73.006 C17.53,80.515 21.704,86.773 28.382,88.858" id="Path" fill="url(#linearGradient-1)"></path>
                <path d="M53.842,206.919 L77.215,206.919 L77.215,193.987 L53.842,193.987 C39.651,193.987 28.382,205.25 28.382,219.434 L28.382,229.864 C22.121,232.366 17.53,238.624 17.53,245.716 C17.53,254.894 25.043,262.82 34.643,262.82 C43.825,262.82 51.755,255.311 51.755,245.716 C51.755,238.624 47.581,232.784 41.321,230.281 L41.321,219.851 C40.903,212.76 46.746,206.919 53.842,206.919" id="Path" fill="url(#linearGradient-2)"></path>
                <path d="M17.53,178.134 C24.625,178.134 30.886,173.962 33.39,167.704 L77.215,167.704 L77.215,154.772 L32.973,154.772 C30.469,148.514 24.208,144.342 17.113,144.342 C7.93,144.343 7.10542736e-15,151.853 7.10542736e-15,161.448 C0.4230796,170.811225 8.15730089,178.173515 17.53,178.135299" id="Path" fill="url(#linearGradient-3)"></path>
                <path d="M348.095,102.625 L348.095,89.275 C354.355,86.773 358.947,80.515 358.947,73.423 C358.947,64.245 351.434,56.319 341.834,56.319 C332.652,56.319 324.722,63.828 324.722,73.423 C324.722,80.515 328.895,86.355 335.156,88.858 L335.156,102.625 C335.156,109.717 329.313,115.14 322.635,115.14 L299.262,115.14 L299.262,128.073 L322.635,128.073 C336.825,128.073 348.095,116.392 348.095,102.625" id="Path" fill="url(#linearGradient-1)"></path>
                <path d="M335.573,219.851 L335.573,230.281 C329.313,232.784 325.139,239.041 325.139,245.716 C325.139,254.894 332.652,262.82 342.252,262.82 C351.434,262.82 359.364,255.311 359.364,245.716 C359.364,238.624 354.773,232.366 348.513,229.864 L348.513,219.434 C348.513,205.25 337.243,193.987 323.052,193.987 L299.679,193.987 L299.679,206.919 L323.052,206.919 C329.73,206.919 335.573,212.759 335.573,219.851" id="Path" fill="url(#linearGradient-2)"></path>
                <path d="M358.947,144.342708 C351.852,144.342708 345.591,148.514 343.087,154.773 L299.679,154.773 L299.679,167.704 L343.504,167.704 C346.008,173.962 352.269,178.134 359.364,178.134 C368.547,178.134 376.477,170.624 376.477,161.029 C376.052896,151.666399 368.319124,144.304978 358.947,144.342708" id="Path" fill="url(#linearGradient-4)"></path>
                <path d="M108.519,239.876 L267.959,239.876 C277.558,239.876 285.07,232.366 285.07,222.772 L285.07,112.22 C285.07,102.625 277.558,95.116 267.958,95.116 L252.515,95.116 L252.515,64.246 C252.515,28.786 223.715,-1.42108547e-14 188.238,-1.42108547e-14 C152.761,-1.42108547e-14 123.962,28.785 123.962,64.245 L123.962,95.116 L108.519,95.116 C98.919,95.116 91.406,102.625 91.406,112.22 L91.406,222.772 C91.406,232.366 98.919,239.876 108.519,239.876 L108.519,239.876 Z M205.351,200.661 C206.186,203.164 204.099,206.085 201.177,206.085 L175.717,206.085 C172.796,206.085 171.126,203.581 171.543,200.661 L177.803,176.048 C173.63,172.71 171.126,167.704 171.126,162.281 C171.126,152.686 179.056,144.76 188.656,144.76 C198.256,144.76 206.186,152.686 206.186,162.281 C206.186,168.121 203.681,173.127 199.508,176.048 L205.351,200.661 Z M148.587,64.245 C148.587,42.135 166.535,24.613 188.238,24.613 C210.36,24.613 227.889,42.552 227.889,64.245 L227.889,95.116 L148.587,95.116 L148.587,64.246 L148.587,64.245 Z" id="Shape" fill="url(#linearGradient-5)"></path>
            </g>
            <g id="CRYPTO-SERVER" transform="translate(478.000000, 296.000000)" fill="url(#linearGradient-6)" fill-rule="nonzero" font-family="CircularStd-Medium, Circular Std" font-size="104" font-weight="400">
                <text>
                    <tspan x="0" y="104">CRYPTO SERVER</tspan>
                </text>
            </g>
        </g>
    </g>
</svg>