<svg height="640" width="1280" xmlns="http://www.w3.org/2000/svg" xmlns:xlink="http://www.w3.org/1999/xlink"><linearGradient id="a" x1="50%" x2="50%" y1="94.501%" y2="0%"><stop offset="0" stop-color="#861efe"/><stop offset="1" stop-color="#22acff"/></linearGradient><g fill="none" fill-rule="evenodd"><path d="m0 0h1280v640h-1280z"/><g fill="url(#a)" fill-rule="nonzero"><g transform="translate(42 195)"><path d="m28.382 88.858v13.35c0 14.184 11.269 25.448 25.46 25.448h23.373v-12.933h-23.373c-7.096 0-12.521-5.84-12.521-12.515v-13.767c6.26-2.503 10.434-8.76 10.434-15.435 0-9.178-7.513-17.104-17.112-17.104-9.183 0-17.113 7.509-17.113 17.104 0 7.509 4.174 13.767 10.852 15.852"/><path d="m53.842 206.919h23.373v-12.932h-23.373c-14.191 0-25.46 11.263-25.46 25.447v10.43c-6.261 2.502-10.852 8.76-10.852 15.852 0 9.178 7.513 17.104 17.113 17.104 9.182 0 17.112-7.509 17.112-17.104 0-7.092-4.174-12.932-10.434-15.435v-10.43c-.418-7.091 5.425-12.932 12.521-12.932"/><path d="m17.53 178.134c7.095 0 13.356-4.172 15.86-10.43h43.825v-12.932h-44.242c-2.504-6.258-8.765-10.43-15.86-10.43-9.183.001-17.113 7.511-17.113 17.106a17.476 17.476 0 0 0 17.53 16.687"/><path d="m348.095 102.625v-13.35c6.26-2.502 10.852-8.76 10.852-15.852 0-9.178-7.513-17.104-17.113-17.104-9.182 0-17.112 7.509-17.112 17.104 0 7.092 4.173 12.932 10.434 15.435v13.767c0 7.092-5.843 12.515-12.521 12.515h-23.373v12.933h23.373c14.19 0 25.46-11.681 25.46-25.448"/><path d="m335.573 219.851v10.43c-6.26 2.503-10.434 8.76-10.434 15.435 0 9.178 7.513 17.104 17.113 17.104 9.182 0 17.112-7.509 17.112-17.104 0-7.092-4.591-13.35-10.851-15.852v-10.43c0-14.184-11.27-25.447-25.461-25.447h-23.373v12.932h23.373c6.678 0 12.521 5.84 12.521 12.932"/><path d="m358.947 144.343c-7.095 0-13.356 4.171-15.86 10.43h-43.408v12.931h43.825c2.504 6.258 8.765 10.43 15.86 10.43 9.183 0 17.113-7.51 17.113-17.105a17.477 17.477 0 0 0 -17.53-16.686"/><path d="m108.519 239.876h159.44c9.599 0 17.111-7.51 17.111-17.104v-110.552c0-9.595-7.512-17.104-17.112-17.104h-15.443v-30.87c0-35.46-28.8-64.246-64.277-64.246s-64.276 28.785-64.276 64.245v30.871h-15.443c-9.6 0-17.113 7.509-17.113 17.104v110.552c0 9.594 7.513 17.104 17.113 17.104zm96.832-39.215c.835 2.503-1.252 5.424-4.174 5.424h-25.46c-2.921 0-4.591-2.504-4.174-5.424l6.26-24.613c-4.173-3.338-6.677-8.344-6.677-13.767 0-9.595 7.93-17.521 17.53-17.521s17.53 7.926 17.53 17.521c0 5.84-2.505 10.846-6.678 13.767zm-56.764-136.416c0-22.11 17.948-39.632 39.651-39.632 22.122 0 39.651 17.939 39.651 39.632v30.871h-79.302v-30.87z"/></g><path d="m19.797 58.718c-5.38-5.377-8.07-11.866-8.07-19.465 0-7.6 2.69-14.088 8.07-19.466 5.38-5.413 11.872-8.119 19.475-8.119 4.662 0 9.02 1.112 13.073 3.334v-12.797a39.564 39.564 0 0 0 -13.073-2.205c-10.832 0-20.085 3.835-27.76 11.507-7.675 7.671-11.512 16.92-11.512 27.745 0 10.826 3.837 20.075 11.512 27.746 7.676 7.672 16.929 11.508 27.76 11.508 4.483 0 8.84-.754 13.073-2.26v-12.742c-4.053 2.187-8.41 3.28-13.073 3.28-7.603 0-14.095-2.688-19.475-8.065zm53.314-25.058v-21.186h16.73c2.906 0 5.398 1.04 7.479 3.118 2.044 2.08 3.066 4.589 3.066 7.529 0 2.903-1.022 5.377-3.066 7.42-2.08 2.079-4.573 3.119-7.478 3.119h-16.732zm25.445 9.894c4.017-1.72 7.262-4.41 9.737-8.066 2.547-3.728 3.82-7.85 3.82-12.367 0-6.166-2.188-11.418-6.564-15.755-4.34-4.373-9.576-6.56-15.708-6.56h-28.407v76.946h11.674v-32.422h13.18l16.84 32.423h13.18zm64.182-42.747-16.3 27.638-16.302-27.638h-13.558l23.994 40.76v36.189h11.728v-36.19l23.995-40.76h-13.558zm31.794 32.853h16.731c2.905 0 5.398-1.04 7.478-3.119 2.044-2.043 3.066-4.517 3.066-7.42 0-2.94-1.022-5.45-3.066-7.529-2.08-2.078-4.573-3.118-7.478-3.118h-16.73v21.186zm0 44.093h-11.674v-76.946h28.406c6.133 0 11.37 2.187 15.71 6.56 4.375 4.338 6.563 9.589 6.563 15.755 0 6.13-2.188 11.364-6.564 15.701-4.34 4.338-9.576 6.507-15.709 6.507h-16.73v32.423zm45.728-76.946v11.668h16.3v65.279h11.729v-65.279h16.3v-11.668h-44.33zm62.083 18.98c-5.38 5.377-8.07 11.866-8.07 19.465 0 7.6 2.69 14.088 8.07 19.465s11.871 8.066 19.474 8.066c7.604 0 14.096-2.689 19.475-8.066 5.38-5.377 8.07-11.866 8.07-19.465 0-7.6-2.69-14.088-8.07-19.465s-11.871-8.066-19.475-8.066c-7.603 0-14.095 2.689-19.474 8.066zm-8.285 47.212c-7.675-7.672-11.513-16.92-11.513-27.746 0-10.825 3.838-20.074 11.513-27.745 7.675-7.672 16.929-11.508 27.76-11.508 10.83 0 20.084 3.835 27.759 11.507 7.675 7.67 11.512 16.92 11.512 27.745 0 10.826-3.837 20.074-11.512 27.746-7.676 7.671-16.929 11.507-27.76 11.507-10.83 0-20.084-3.836-27.759-11.507zm123.896 11.453c-5.093-.215-9.79-1.577-14.095-4.086-4.877-2.832-8.195-6.632-9.952-11.4l10.975-4.033c.896 2.366 2.743 4.284 5.54 5.754 2.475 1.254 5.165 1.953 8.07 2.097 4.484.18 8.195-.915 11.136-3.28 2.475-2.008 3.784-4.302 3.928-6.883.215-4.91-4.932-8.837-15.44-11.776-16.463-4.624-24.442-12.457-23.94-23.498.322-7.743 3.64-13.532 9.952-17.368 4.806-2.94 10.58-4.248 17.323-3.925 8.177.358 14.74 3.208 19.69 8.55l-8.554 7.957c-2.797-3.011-6.688-4.624-11.674-4.84-3.515-.142-6.51.306-8.984 1.345-3.874 1.65-5.9 4.589-6.079 8.818-.215 4.84 4.931 8.73 15.44 11.67 9.468 2.652 16.176 6.56 20.12 11.721 2.726 3.585 4 7.546 3.82 11.884-.287 6.094-3.048 11.256-8.285 15.486-4.877 3.907-10.724 5.861-17.538 5.861-.502 0-.986-.018-1.453-.054zm36.583-77.646v76.947h39.272v-11.668h-27.599v-21.079h21.304v-11.668h-21.304v-20.864h27.6v-11.668zm59.715 32.854v-21.186h16.731c2.905 0 5.398 1.04 7.478 3.118 2.044 2.08 3.066 4.589 3.066 7.529 0 2.903-1.022 5.377-3.066 7.42-2.08 2.079-4.573 3.119-7.478 3.119zm25.445 9.894c4.017-1.72 7.263-4.41 9.738-8.066 2.546-3.728 3.82-7.85 3.82-12.367 0-6.166-2.188-11.418-6.564-15.755-4.34-4.373-9.576-6.56-15.709-6.56h-28.407v76.946h11.674v-32.422h13.181l16.84 32.423h13.18l-17.753-34.198zm24.049-42.747v76.946h14.31l45.352-76.946h-13.558l-34.375 58.34v-58.34h-11.73zm105.207 0v11.667h-27.6v20.864h21.305v11.668h-21.304v21.079h27.6v11.668h-39.274v-76.947h39.272zm37.029-.001c6.133 0 11.37 2.187 15.709 6.56 4.376 4.337 6.564 9.59 6.564 15.755 0 4.517-1.274 8.64-3.82 12.367-2.475 3.657-5.721 6.345-9.738 8.066l17.753 34.198h-13.18l-16.84-32.422h-13.18v32.423h-11.675v-76.947zm.001 11.668h-16.731v21.186h16.731c2.905 0 5.398-1.04 7.478-3.119 2.044-2.043 3.066-4.517 3.066-7.42 0-2.94-1.022-5.45-3.066-7.529-2.08-2.078-4.573-3.118-7.478-3.118z" transform="translate(493 287)"/></g></g></svg>