<svg width="320" height="160" xmlns="http://www.w3.org/2000/svg"><defs><linearGradient x1="50%" y1="100%" x2="50%" y2="0%" id="a"><stop stop-color="#D676EB" offset="0%"/><stop stop-color="#8227FF" offset="100%"/></linearGradient><linearGradient x1="50%" y1="100%" x2="50%" y2="0%" id="b"><stop stop-color="#D676EB" offset="0%"/><stop stop-color="#8227FF" offset="100%"/></linearGradient><linearGradient x1="50%" y1="100%" x2="50%" y2="0%" id="c"><stop stop-color="#D676EB" offset="0%"/><stop stop-color="#8227FF" offset="100%"/></linearGradient><linearGradient x1="50%" y1="100%" x2="50%" y2="0%" id="d"><stop stop-color="#D676EB" offset="0%"/><stop stop-color="#8227FF" offset="100%"/></linearGradient><linearGradient x1="50%" y1="100%" x2="50%" y2="0%" id="e"><stop stop-color="#D676EB" offset="0%"/><stop stop-color="#8227FF" offset="100%"/></linearGradient><linearGradient x1="50%" y1="100%" x2="50%" y2="0%" id="f"><stop stop-color="#D676EB" offset="0%"/><stop stop-color="#8227FF" offset="100%"/></linearGradient></defs><g fill="none" fill-rule="evenodd"><path d="M0 0L320 0 320 160 0 160z"/><g transform="translate(9.156 47.157)" fill-rule="nonzero"><path d="M7.096 22.215v3.337a6.322 6.322 0 0 0 6.364 6.362h5.844v-3.233H13.46c-1.774 0-3.13-1.46-3.13-3.129V22.11a4.198 4.198 0 0 0 2.608-3.858c0-2.295-1.879-4.276-4.278-4.276-2.296 0-4.278 1.877-4.278 4.275 0 1.878 1.043 3.442 2.713 3.963" fill="url(#a)"/><path d="M13.46 51.73h5.844v-3.233H13.46a6.322 6.322 0 0 0-6.365 6.361v2.608c-1.566.626-2.713 2.19-2.713 3.963 0 2.294 1.878 4.276 4.278 4.276 2.295 0 4.278-1.877 4.278-4.276 0-1.773-1.044-3.233-2.609-3.859v-2.607c-.104-1.773 1.357-3.233 3.13-3.233" fill="url(#b)"/><path d="M4.383 44.533c1.773 0 3.338-1.043 3.965-2.607h10.956v-3.233H8.244c-.627-1.564-2.192-2.607-3.966-2.607C1.983 36.086 0 37.963 0 40.362a4.37 4.37 0 0 0 4.383 4.172" fill="url(#c)"/><path d="M87.024 25.656V22.32c1.565-.626 2.713-2.19 2.713-3.963 0-2.295-1.878-4.276-4.278-4.276-2.296 0-4.279 1.877-4.279 4.276 0 1.773 1.044 3.233 2.609 3.858v3.442c0 1.773-1.46 3.129-3.13 3.129h-5.844v3.233h5.844c3.547 0 6.365-2.92 6.365-6.362" fill="url(#a)"/><path d="M83.893 54.963v2.607a4.198 4.198 0 0 0-2.608 3.859c0 2.294 1.878 4.276 4.278 4.276 2.296 0 4.278-1.877 4.278-4.276 0-1.773-1.148-3.337-2.713-3.963v-2.608a6.322 6.322 0 0 0-6.365-6.361H74.92v3.233h5.843c1.67 0 3.13 1.46 3.13 3.233" fill="url(#b)"/><path d="M89.737 36.086c-1.774 0-3.34 1.043-3.965 2.607H74.92v3.233h10.956c.626 1.564 2.191 2.607 3.965 2.607 2.296 0 4.278-1.877 4.278-4.276a4.37 4.37 0 0 0-4.382-4.171" fill="url(#d)"/><path d="M27.13 59.969h39.86c2.4 0 4.278-1.877 4.278-4.276V28.055c0-2.399-1.879-4.276-4.278-4.276h-3.861v-7.718C63.129 7.197 55.929 0 47.059 0 38.19 0 30.991 7.196 30.991 16.061v7.718H27.13c-2.4 0-4.278 1.877-4.278 4.276v27.638c0 2.399 1.878 4.276 4.278 4.276zm24.208-9.804c.209.626-.313 1.356-1.044 1.356H43.93c-.73 0-1.148-.626-1.043-1.356l1.565-6.153a4.401 4.401 0 0 1-1.67-3.442c0-2.398 1.983-4.38 4.383-4.38s4.383 1.982 4.383 4.38c0 1.46-.627 2.712-1.67 3.442l1.46 6.153zM37.147 16.061c0-5.527 4.487-9.908 9.913-9.908 5.53 0 9.912 4.485 9.912 9.908v7.718H37.147v-7.718z" fill="url(#e)"/><path d="M117.892 38.198c-1.344-1.344-2.017-2.967-2.017-4.866 0-1.9.672-3.522 2.017-4.867 1.346-1.353 2.968-2.03 4.869-2.03 1.166 0 2.255.278 3.268.834v-3.2a9.891 9.891 0 0 0-3.268-.55c-2.707 0-5.021.958-6.94 2.876-1.919 1.918-2.878 4.23-2.878 6.937 0 2.706.96 5.018 2.878 6.936 1.919 1.918 4.232 2.877 6.94 2.877 1.12 0 2.21-.189 3.268-.565v-3.186a6.775 6.775 0 0 1-3.268.82c-1.9 0-3.524-.672-4.869-2.016zm13.329-6.265v-5.296h4.183c.726 0 1.349.26 1.869.78.511.52.767 1.147.767 1.882 0 .726-.256 1.344-.767 1.855a2.55 2.55 0 0 1-1.87.78h-4.182zm6.361 2.474a5.498 5.498 0 0 0 2.434-2.016 5.362 5.362 0 0 0 .955-3.092c0-1.542-.547-2.855-1.64-3.94-1.085-1.092-2.394-1.64-3.928-1.64h-7.101v19.237h2.918v-8.105h3.295l4.21 8.105h3.295l-4.438-8.55zm16.046-10.687l-4.075 6.91-4.076-6.91h-3.389l5.998 10.19v9.048h2.932V33.91l5.999-10.19h-3.39zm7.948 8.213h4.183c.726 0 1.35-.26 1.87-.78.51-.51.766-1.128.766-1.854 0-.735-.256-1.363-.767-1.882a2.55 2.55 0 0 0-1.869-.78h-4.183v5.296zm0 11.024h-2.919V23.72h7.102c1.534 0 2.843.547 3.928 1.64 1.093 1.085 1.64 2.398 1.64 3.939 0 1.532-.547 2.84-1.64 3.925-1.085 1.085-2.394 1.627-3.928 1.627h-4.182v8.106zm11.432-19.237v2.917h4.075v16.32h2.932v-16.32h4.075V23.72h-11.082zm15.52 4.745c-1.344 1.344-2.017 2.967-2.017 4.866 0 1.9.673 3.522 2.018 4.867 1.345 1.344 2.968 2.016 4.868 2.016 1.901 0 3.524-.672 4.87-2.016 1.344-1.345 2.017-2.967 2.017-4.867s-.673-3.522-2.018-4.866c-1.345-1.344-2.968-2.016-4.869-2.016-1.9 0-3.523.672-4.868 2.016zm-2.07 11.803c-1.92-1.918-2.879-4.23-2.879-6.936 0-2.707.96-5.019 2.878-6.937 1.92-1.917 4.233-2.876 6.94-2.876 2.708 0 5.021.958 6.94 2.876 1.919 1.918 2.878 4.23 2.878 6.937 0 2.706-.959 5.018-2.878 6.936-1.919 1.918-4.232 2.877-6.94 2.877-2.707 0-5.02-.96-6.94-2.877zm30.974 2.863a7.52 7.52 0 0 1-3.524-1.021c-1.22-.708-2.049-1.658-2.488-2.85l2.743-1.008c.225.591.686 1.07 1.385 1.438a4.952 4.952 0 0 0 2.018.524c1.121.045 2.049-.228 2.784-.82.619-.502.946-1.075.982-1.72.054-1.228-1.233-2.21-3.86-2.944-4.116-1.156-6.11-3.115-5.985-5.875.08-1.936.91-3.383 2.488-4.342 1.202-.735 2.645-1.062 4.331-.981 2.044.09 3.685.802 4.922 2.137l-2.138 1.99c-.7-.753-1.672-1.156-2.919-1.21-.878-.036-1.627.076-2.246.336-.968.412-1.475 1.147-1.52 2.205-.053 1.21 1.233 2.182 3.86 2.917 2.368.663 4.044 1.64 5.03 2.93.682.896 1 1.887.955 2.971-.071 1.524-.762 2.814-2.07 3.872-1.22.976-2.682 1.465-4.385 1.465-.126 0-.247-.005-.363-.014zm9.145-19.411v19.237h9.818v-2.918h-6.9V34.77h5.327v-2.917h-5.326v-5.216h6.9V23.72h-9.819zm14.93 8.213v-5.296h4.182c.726 0 1.35.26 1.87.78.51.52.766 1.147.766 1.882 0 .726-.256 1.344-.767 1.855a2.55 2.55 0 0 1-1.869.78h-4.183zm6.36 2.474a5.5 5.5 0 0 0 2.435-2.016 5.364 5.364 0 0 0 .955-3.092c0-1.542-.547-2.855-1.641-3.94-1.085-1.092-2.394-1.64-3.928-1.64h-7.101v19.237h2.918v-8.105h3.295l4.21 8.105h3.295l-4.438-8.55zm6.012-10.687v19.237h3.578l11.338-19.237h-3.39l-8.593 14.585V23.72h-2.933zm16.718 19.237h2.919v-19.21h-2.919v19.21zm10.208-4.76c-1.345-1.343-2.017-2.966-2.017-4.865 0-1.9.672-3.522 2.017-4.867 1.345-1.353 2.968-2.03 4.869-2.03 1.166 0 2.255.278 3.268.834v-3.2a9.891 9.891 0 0 0-3.268-.55c-2.707 0-5.021.958-6.94 2.876-1.918 1.918-2.878 4.23-2.878 6.937 0 2.706.96 5.018 2.878 6.936 1.919 1.918 4.233 2.877 6.94 2.877 1.121 0 2.21-.189 3.268-.565v-3.186a6.775 6.775 0 0 1-3.268.82c-1.9 0-3.524-.672-4.868-2.016zm10.558-14.477v19.237h9.818v-2.918h-6.9V34.77h5.326v-2.917h-5.326v-5.216h6.9V23.72h-9.818z" fill="#111"/><path d="M4.95 14.68c-1.346-1.345-2.018-2.967-2.018-4.867s.672-3.522 2.017-4.866c1.346-1.353 2.968-2.03 4.869-2.03 1.166 0 2.255.278 3.268.834V.55A9.891 9.891 0 0 0 9.818 0c-2.707 0-5.021.959-6.94 2.877C.959 4.795 0 7.107 0 9.813c0 2.707.96 5.019 2.878 6.937 1.919 1.918 4.232 2.877 6.94 2.877 1.12 0 2.21-.189 3.268-.565v-3.186a6.775 6.775 0 0 1-3.268.82c-1.9 0-3.524-.672-4.869-2.016zm13.328-6.265V3.119h4.183c.726 0 1.349.26 1.869.78.511.519.767 1.146.767 1.881 0 .726-.256 1.345-.767 1.855a2.55 2.55 0 0 1-1.87.78h-4.182zm6.361 2.474a5.498 5.498 0 0 0 2.434-2.017 5.362 5.362 0 0 0 .955-3.092c0-1.541-.546-2.854-1.64-3.938C25.302.748 23.992.202 22.46.202h-7.102v19.236h2.92v-8.106h3.294l4.21 8.106h3.295l-4.438-8.55zM40.685.202l-4.076 6.91-4.075-6.91h-3.389l5.998 10.19v9.047h2.932v-9.047L44.074.202h-3.39zm7.948 8.213h4.183c.726 0 1.35-.26 1.87-.78.51-.51.766-1.129.766-1.855 0-.735-.255-1.362-.767-1.882a2.55 2.55 0 0 0-1.869-.78h-4.183v5.297zm0 11.024h-2.919V.202h7.102c1.533 0 2.842.547 3.927 1.64 1.094 1.084 1.641 2.397 1.641 3.939 0 1.532-.547 2.84-1.64 3.925-1.086 1.084-2.395 1.627-3.928 1.627h-4.183v8.106zM60.065.202v2.917h4.075v16.32h2.933V3.119h4.075V.202H60.064zm15.52 4.745c-1.344 1.344-2.017 2.966-2.017 4.866 0 1.9.673 3.522 2.018 4.866 1.345 1.345 2.968 2.017 4.868 2.017 1.901 0 3.524-.672 4.87-2.017 1.344-1.344 2.017-2.966 2.017-4.866 0-1.9-.673-3.522-2.018-4.866-1.345-1.344-2.968-2.017-4.868-2.017-1.901 0-3.524.673-4.87 2.017zm-2.07 11.803c-1.92-1.918-2.879-4.23-2.879-6.937 0-2.706.96-5.018 2.879-6.936C75.433.959 77.746 0 80.454 0c2.707 0 5.02.959 6.94 2.877 1.918 1.918 2.877 4.23 2.877 6.936 0 2.707-.959 5.019-2.878 6.937-1.919 1.918-4.232 2.877-6.94 2.877-2.707 0-5.02-.96-6.94-2.877zm30.974 2.863a7.52 7.52 0 0 1-3.524-1.021c-1.22-.708-2.049-1.658-2.488-2.85l2.743-1.008c.225.59.686 1.07 1.386 1.438a4.952 4.952 0 0 0 2.017.524c1.121.045 2.049-.228 2.784-.82.619-.502.946-1.075.982-1.72.054-1.228-1.233-2.21-3.86-2.944-4.115-1.157-6.11-3.115-5.985-5.875.08-1.936.91-3.383 2.488-4.342 1.202-.735 2.645-1.062 4.331-.981 2.044.089 3.685.802 4.922 2.137l-2.138 1.99c-.7-.753-1.672-1.157-2.919-1.21-.878-.036-1.627.076-2.246.336-.968.412-1.475 1.147-1.52 2.204-.053 1.21 1.233 2.183 3.86 2.917 2.368.664 4.044 1.64 5.03 2.93.682.897 1 1.887.956 2.972-.072 1.523-.763 2.814-2.072 3.871-1.219.977-2.68 1.466-4.384 1.466-.126 0-.247-.005-.363-.014zM113.634.202v19.237h9.819V16.52h-6.9v-5.27h5.326V8.336h-5.326V3.119h6.9V.202h-9.819zm14.93 8.213V3.119h4.182c.726 0 1.35.26 1.87.78.51.519.766 1.146.766 1.881 0 .726-.256 1.345-.767 1.855a2.55 2.55 0 0 1-1.869.78h-4.183zm6.36 2.474a5.5 5.5 0 0 0 2.435-2.017 5.364 5.364 0 0 0 .955-3.092c0-1.541-.547-2.854-1.641-3.938-1.085-1.094-2.394-1.64-3.928-1.64h-7.101v19.236h2.918v-8.106h3.295l4.21 8.106h3.296l-4.439-8.55zM140.936.202v19.237h3.578L155.852.202h-3.39l-8.593 14.585V.202h-2.933zm16.718 19.237h2.919V.229h-2.919v19.21zm10.209-4.76c-1.345-1.344-2.018-2.966-2.018-4.866 0-1.9.673-3.522 2.018-4.866 1.345-1.353 2.967-2.03 4.868-2.03 1.166 0 2.255.278 3.268.834V.55A9.891 9.891 0 0 0 172.731 0c-2.707 0-5.021.959-6.94 2.877-1.918 1.918-2.878 4.23-2.878 6.936 0 2.707.96 5.019 2.878 6.937 1.919 1.918 4.233 2.877 6.94 2.877 1.121 0 2.21-.189 3.268-.565v-3.186a6.775 6.775 0 0 1-3.268.82c-1.9 0-3.524-.672-4.868-2.016zM178.42.203v19.237h9.819V16.52h-6.9v-5.27h5.326V8.336h-5.326V3.119h6.9V.202h-9.819z" transform="translate(112.943 23.518)" fill="url(#f)"/></g></g></svg>