<?xml version="1.0" encoding="UTF-8"?>
<svg width="1280px" height="640px" viewBox="0 0 1280 640" version="1.1" xmlns="http://www.w3.org/2000/svg" xmlns:xlink="http://www.w3.org/1999/xlink">
    <title>crypto-cli-logo</title>
    <defs>
        <linearGradient x1="50%" y1="23.0908939%" x2="50%" y2="94.501%" id="linearGradient-1">
            <stop stop-color="#66CDA9" offset="0%"></stop>
            <stop stop-color="#85D575" offset="100%"></stop>
        </linearGradient>
        <linearGradient x1="50%" y1="23.0908939%" x2="50%" y2="94.501%" id="linearGradient-2">
            <stop stop-color="#66CDA9" offset="0%"></stop>
            <stop stop-color="#85D575" offset="100%"></stop>
        </linearGradient>
        <linearGradient x1="50%" y1="23.0908939%" x2="50%" y2="94.501%" id="linearGradient-3">
            <stop stop-color="#66CDA9" offset="0%"></stop>
            <stop stop-color="#85D575" offset="100%"></stop>
        </linearGradient>
        <linearGradient x1="50%" y1="23.0908939%" x2="50%" y2="94.501%" id="linearGradient-4">
            <stop stop-color="#66CDA9" offset="0%"></stop>
            <stop stop-color="#85D575" offset="100%"></stop>
        </linearGradient>
        <linearGradient x1="50%" y1="23.0908939%" x2="50%" y2="94.501%" id="linearGradient-5">
            <stop stop-color="#66CDA9" offset="0%"></stop>
            <stop stop-color="#85D575" offset="100%"></stop>
        </linearGradient>
        <linearGradient x1="50%" y1="23.0908939%" x2="50%" y2="94.501%" id="linearGradient-6">
            <stop stop-color="#66CDA9" offset="0%"></stop>
            <stop stop-color="#85D575" offset="100%"></stop>
        </linearGradient>
        <linearGradient x1="50%" y1="23.0908939%" x2="50%" y2="94.501%" id="linearGradient-7">
            <stop stop-color="#66CDA9" offset="0%"></stop>
            <stop stop-color="#85D575" offset="100%"></stop>
        </linearGradient>
        <linearGradient x1="50%" y1="23.0908939%" x2="50%" y2="94.501%" id="linearGradient-8">
            <stop stop-color="#66CDA9" offset="0%"></stop>
            <stop stop-color="#85D575" offset="100%"></stop>
        </linearGradient>
        <linearGradient x1="50%" y1="23.0908939%" x2="50%" y2="94.501%" id="linearGradient-9">
            <stop stop-color="#66CDA9" offset="0%"></stop>
            <stop stop-color="#85D575" offset="100%"></stop>
        </linearGradient>
        <linearGradient x1="50%" y1="23.0908939%" x2="50%" y2="94.501%" id="linearGradient-10">
            <stop stop-color="#66CDA9" offset="0%"></stop>
            <stop stop-color="#85D575" offset="100%"></stop>
        </linearGradient>
        <linearGradient x1="50%" y1="23.0908939%" x2="50%" y2="94.501%" id="linearGradient-11">
            <stop stop-color="#66CDA9" offset="0%"></stop>
            <stop stop-color="#85D575" offset="100%"></stop>
        </linearGradient>
        <linearGradient x1="50%" y1="23.0908939%" x2="50%" y2="94.501%" id="linearGradient-12">
            <stop stop-color="#66CDA9" offset="0%"></stop>
            <stop stop-color="#85D575" offset="100%"></stop>
        </linearGradient>
        <linearGradient x1="50%" y1="23.0908939%" x2="50%" y2="94.501%" id="linearGradient-13">
            <stop stop-color="#66CDA9" offset="0%"></stop>
            <stop stop-color="#85D575" offset="100%"></stop>
        </linearGradient>
    </defs>
    <g id="Crypto-Service-Logos" stroke="none" stroke-width="1" fill="none" fill-rule="evenodd">
        <g id="crypto-cli-logo">
            <polygon id="Path" points="0 0 1280 0 1280 640 0 640"></polygon>
            <g id="lock" transform="translate(44.000000, 199.000000)" fill-rule="nonzero">
                <path d="M28.382,88.858 L28.382,102.208 C28.382,116.392 39.651,127.656 53.842,127.656 L77.215,127.656 L77.215,114.723 L53.842,114.723 C46.746,114.723 41.321,108.883 41.321,102.208 L41.321,88.441 C47.581,85.938 51.755,79.681 51.755,73.006 C51.755,63.828 44.242,55.902 34.643,55.902 C25.46,55.902 17.53,63.411 17.53,73.006 C17.53,80.515 21.704,86.773 28.382,88.858" id="Path" fill="url(#linearGradient-1)"></path>
                <path d="M53.842,206.919 L77.215,206.919 L77.215,193.987 L53.842,193.987 C39.651,193.987 28.382,205.25 28.382,219.434 L28.382,229.864 C22.121,232.366 17.53,238.624 17.53,245.716 C17.53,254.894 25.043,262.82 34.643,262.82 C43.825,262.82 51.755,255.311 51.755,245.716 C51.755,238.624 47.581,232.784 41.321,230.281 L41.321,219.851 C40.903,212.76 46.746,206.919 53.842,206.919" id="Path" fill="url(#linearGradient-2)"></path>
                <path d="M17.53,178.134 C24.625,178.134 30.886,173.962 33.39,167.704 L77.215,167.704 L77.215,154.772 L32.973,154.772 C30.469,148.514 24.208,144.342 17.113,144.342 C7.93,144.343 7.10542736e-15,151.853 7.10542736e-15,161.448 C0.4230796,170.811225 8.15730089,178.173515 17.53,178.135299" id="Path" fill="url(#linearGradient-3)"></path>
                <path d="M348.095,102.625 L348.095,89.275 C354.355,86.773 358.947,80.515 358.947,73.423 C358.947,64.245 351.434,56.319 341.834,56.319 C332.652,56.319 324.722,63.828 324.722,73.423 C324.722,80.515 328.895,86.355 335.156,88.858 L335.156,102.625 C335.156,109.717 329.313,115.14 322.635,115.14 L299.262,115.14 L299.262,128.073 L322.635,128.073 C336.825,128.073 348.095,116.392 348.095,102.625" id="Path" fill="url(#linearGradient-1)"></path>
                <path d="M335.573,219.851 L335.573,230.281 C329.313,232.784 325.139,239.041 325.139,245.716 C325.139,254.894 332.652,262.82 342.252,262.82 C351.434,262.82 359.364,255.311 359.364,245.716 C359.364,238.624 354.773,232.366 348.513,229.864 L348.513,219.434 C348.513,205.25 337.243,193.987 323.052,193.987 L299.679,193.987 L299.679,206.919 L323.052,206.919 C329.73,206.919 335.573,212.759 335.573,219.851" id="Path" fill="url(#linearGradient-2)"></path>
                <path d="M358.947,144.342708 C351.852,144.342708 345.591,148.514 343.087,154.773 L299.679,154.773 L299.679,167.704 L343.504,167.704 C346.008,173.962 352.269,178.134 359.364,178.134 C368.547,178.134 376.477,170.624 376.477,161.029 C376.052896,151.666399 368.319124,144.304978 358.947,144.342708" id="Path" fill="url(#linearGradient-4)"></path>
                <path d="M108.519,239.876 L267.959,239.876 C277.558,239.876 285.07,232.366 285.07,222.772 L285.07,112.22 C285.07,102.625 277.558,95.116 267.958,95.116 L252.515,95.116 L252.515,64.246 C252.515,28.786 223.715,-1.42108547e-14 188.238,-1.42108547e-14 C152.761,-1.42108547e-14 123.962,28.785 123.962,64.245 L123.962,95.116 L108.519,95.116 C98.919,95.116 91.406,102.625 91.406,112.22 L91.406,222.772 C91.406,232.366 98.919,239.876 108.519,239.876 L108.519,239.876 Z M205.351,200.661 C206.186,203.164 204.099,206.085 201.177,206.085 L175.717,206.085 C172.796,206.085 171.126,203.581 171.543,200.661 L177.803,176.048 C173.63,172.71 171.126,167.704 171.126,162.281 C171.126,152.686 179.056,144.76 188.656,144.76 C198.256,144.76 206.186,152.686 206.186,162.281 C206.186,168.121 203.681,173.127 199.508,176.048 L205.351,200.661 Z M148.587,64.245 C148.587,42.135 166.535,24.613 188.238,24.613 C210.36,24.613 227.889,42.552 227.889,64.245 L227.889,95.116 L148.587,95.116 L148.587,64.246 L148.587,64.245 Z" id="Shape" fill="url(#linearGradient-5)"></path>
            </g>
            <g id="title" transform="translate(482.368000, 324.704000)" fill-rule="nonzero">
                <path d="M37.232,76.856 C26.9013333,76.856 18.1133333,73.3546667 10.868,66.352 C3.62266667,59.3493333 -5.68434189e-14,50.0586667 -5.68434189e-14,38.48 C-5.68434189e-14,26.9706667 3.67466667,17.68 11.024,10.608 C18.3733333,3.536 27.0746667,0 37.128,0 C46.0026667,0 53.3,2.25333333 59.02,6.76 C64.74,11.2666667 68.5013333,16.9866667 70.304,23.92 L58.552,27.872 C57.3733333,23.088 54.9813333,19.2053333 51.376,16.224 C47.7706667,13.2426667 43.0213333,11.752 37.128,11.752 C30.5413333,11.752 24.8386667,14.092 20.02,18.772 C15.2013333,23.452 12.792,30.0213333 12.792,38.48 C12.792,46.7306667 15.184,53.196 19.968,57.876 C24.752,62.556 30.5066667,64.896 37.232,64.896 C42.9866667,64.896 47.736,63.336 51.48,60.216 C55.224,57.096 57.7893333,53.248 59.176,48.672 L70.616,52.416 C68.8133333,59.28 65.0173333,65.0693333 59.228,69.784 C53.4386667,74.4986667 46.1066667,76.856 37.232,76.856 Z" id="Path" fill="url(#linearGradient-6)"></path>
                <path d="M120.536,75.296 L105.04,46.176 L95.888,46.176 L95.888,75.296 L83.304,75.296 L83.304,1.56 L111.592,1.56 C118.525333,1.56 124.106667,3.692 128.336,7.956 C132.565333,12.22 134.68,17.5413333 134.68,23.92 C134.68,29.1893333 133.189333,33.696 130.208,37.44 C127.226667,41.184 123.170667,43.68 118.04,44.928 L134.68,75.296 L120.536,75.296 Z M95.888,35.152 L109.304,35.152 C113.117333,35.152 116.185333,34.1293333 118.508,32.084 C120.830667,30.0386667 121.992,27.3173333 121.992,23.92 C121.992,20.4533333 120.830667,17.6973333 118.508,15.652 C116.185333,13.6066667 113.117333,12.584 109.304,12.584 L95.888,12.584 L95.888,35.152 Z" id="Shape" fill="url(#linearGradient-7)"></path>
                <polygon id="Path" fill="url(#linearGradient-8)" points="164.944 44.096 139.152 1.56 153.92 1.56 171.6 32.448 189.384 1.56 203.424 1.56 177.424 44.096 177.424 75.296 164.944 75.296"></polygon>
                <path d="M225.784,35.464 L238.784,35.464 C242.736,35.464 245.838667,34.4413333 248.092,32.396 C250.345333,30.3506667 251.472,27.5946667 251.472,24.128 C251.472,20.592 250.345333,17.784 248.092,15.704 C245.838667,13.624 242.736,12.584 238.784,12.584 L225.784,12.584 L225.784,35.464 Z M240.656,46.488 L225.784,46.488 L225.784,75.296 L213.304,75.296 L213.304,1.56 L240.656,1.56 C247.658667,1.56 253.326667,3.67466667 257.66,7.904 C261.993333,12.1333333 264.16,17.5066667 264.16,24.024 C264.16,30.6106667 261.993333,36.0013333 257.66,40.196 C253.326667,44.3906667 247.658667,46.488 240.656,46.488 Z" id="Shape" fill="url(#linearGradient-9)"></path>
                <polygon id="Path" fill="url(#linearGradient-10)" points="328.848 13.312 304.824 13.312 304.824 75.296 292.344 75.296 292.344 13.312 268.424 13.312 268.424 1.56 328.848 1.56"></polygon>
                <path d="M352.352,18.824 C347.498667,23.4693333 345.072,29.9866667 345.072,38.376 C345.072,46.7653333 347.498667,53.3 352.352,57.98 C357.205333,62.66 362.994667,65 369.72,65 C376.445333,65 382.252,62.66 387.14,57.98 C392.028,53.3 394.472,46.7653333 394.472,38.376 C394.472,29.9866667 392.028,23.452 387.14,18.772 C382.252,14.092 376.445333,11.752 369.72,11.752 C362.994667,11.752 357.205333,14.1093333 352.352,18.824 Z M337.584,58.968 C334.048,53.0053333 332.28,46.1413333 332.28,38.376 C332.28,30.6106667 334.065333,23.764 337.636,17.836 C341.206667,11.908 345.8,7.45333333 351.416,4.472 C357.032,1.49066667 363.133333,0 369.72,0 C376.306667,0 382.408,1.49066667 388.024,4.472 C393.64,7.45333333 398.250667,11.908 401.856,17.836 C405.461333,23.764 407.264,30.6106667 407.264,38.376 C407.264,46.1413333 405.461333,53.0053333 401.856,58.968 C398.250667,64.9306667 393.64,69.4026667 388.024,72.384 C382.408,75.3653333 376.306667,76.856 369.72,76.856 C363.133333,76.856 357.032,75.3653333 351.416,72.384 C345.8,69.4026667 341.189333,64.9306667 337.584,58.968 Z" id="Shape" fill="url(#linearGradient-11)"></path>
                <path d="M479.024,76.856 C468.693333,76.856 459.905333,73.3546667 452.66,66.352 C445.414667,59.3493333 441.792,50.0586667 441.792,38.48 C441.792,26.9706667 445.466667,17.68 452.816,10.608 C460.165333,3.536 468.866667,0 478.92,0 C487.794667,0 495.092,2.25333333 500.812,6.76 C506.532,11.2666667 510.293333,16.9866667 512.096,23.92 L500.344,27.872 C499.165333,23.088 496.773333,19.2053333 493.168,16.224 C489.562667,13.2426667 484.813333,11.752 478.92,11.752 C472.333333,11.752 466.630667,14.092 461.812,18.772 C456.993333,23.452 454.584,30.0213333 454.584,38.48 C454.584,46.7306667 456.976,53.196 461.76,57.876 C466.544,62.556 472.298667,64.896 479.024,64.896 C484.778667,64.896 489.528,63.336 493.272,60.216 C497.016,57.096 499.581333,53.248 500.968,48.672 L512.408,52.416 C510.605333,59.28 506.809333,65.0693333 501.02,69.784 C495.230667,74.4986667 487.898667,76.856 479.024,76.856 Z" id="Path" fill="url(#linearGradient-6)"></path>
                <polygon id="Path" fill="url(#linearGradient-12)" points="571.376 75.296 525.096 75.296 525.096 1.56 537.576 1.56 537.576 63.44 571.376 63.44"></polygon>
                <polygon id="Path" fill="url(#linearGradient-13)" points="595.504 75.296 582.816 75.296 582.816 1.56 595.504 1.56"></polygon>
            </g>
        </g>
    </g>
</svg>